SplineFontDB: 3.2
FontName: DSETypewriterSlashedZero
FullName: DSE Typewriter Slashed Zero
FamilyName: DSE Typewriter Slashed Zero
Weight: Book
Copyright: Copyright (c) 2020-2022, Darren Embry\n\nSIL OFL 1.1\n
Version: 2022.10.11 ; ttfautohint (v1.8.3) -l 2 -r 50 -G 50 -x 14 -H 96 -D latn -f none -a qsq -W -X ""
ItalicAngle: 0
UnderlinePosition: -192
UnderlineWidth: 96
Ascent: 1648
Descent: 400
InvalidEm: 0
sfntRevision: 0x80000000
LayerCount: 2
Layer: 0 1 "Back" 1
Layer: 1 1 "Fore" 0
XUID: [1021 357 1593893238 1543353]
StyleMap: 0x0040
FSType: 0
OS2Version: 1
OS2_WeightWidthSlopeOnly: 0
OS2_UseTypoMetrics: 0
CreationTime: 1582156054
ModificationTime: 1666301947
PfmFamily: 17
TTFWeight: 400
TTFWidth: 5
LineGap: 0
VLineGap: 0
Panose: 2 7 5 9 0 2 5 2 4 3
OS2TypoAscent: 1648
OS2TypoAOffset: 0
OS2TypoDescent: -400
OS2TypoDOffset: 0
OS2TypoLinegap: 0
OS2WinAscent: 1648
OS2WinAOffset: 0
OS2WinDescent: 400
OS2WinDOffset: 0
HheadAscent: 1648
HheadAOffset: 0
HheadDescent: -400
HheadDOffset: 0
OS2SubXSize: 1331
OS2SubYSize: 1433
OS2SubXOff: 0
OS2SubYOff: 286
OS2SupXSize: 1331
OS2SupYSize: 1433
OS2SupXOff: 0
OS2SupYOff: 983
OS2StrikeYSize: 102
OS2StrikeYPos: 530
OS2Vendor: 'PfEd'
OS2CodePages: 60000015.c3d60000
OS2UnicodeRanges: e00002ff.0000f8fb.00040000.00000000
Lookup: 1 0 0 "'ss05' Style Set 5 lookup 0" { "'ss05' Style Set 5 lookup 0 subtable"  } ['ss05' ('DFLT' <'dflt' > 'brai' <'dflt' > 'cyrl' <'SRB ' 'dflt' > 'grek' <'dflt' > 'latn' <'IPPH' 'ROM ' 'TRK ' 'dflt' > ) ]
Lookup: 1 0 0 "'cv03' Character Variants 03 lookup 1" { "'cv03' Character Variants 03 lookup 1 subtable"  } ['cv03' ('DFLT' <'dflt' > 'brai' <'dflt' > 'cyrl' <'SRB ' 'dflt' > 'grek' <'dflt' > 'latn' <'IPPH' 'ROM ' 'TRK ' 'dflt' > ) ]
Lookup: 1 0 0 "'zero' Slashed Zero lookup 2" { "'zero' Slashed Zero lookup 2 subtable"  } ['zero' ('DFLT' <'dflt' > 'cyrl' <'SRB ' 'dflt' > 'grek' <'dflt' > 'latn' <'IPPH' 'ROM ' 'TRK ' 'dflt' > ) ]

StartChar: .notdef
Encoding: 65536 -1 0
Width: 1024
Flags: W
LayerCount: 2
Fore
SplineSet
68 0 m 1,0,-1
 68 1365 l 1,1,-1
 612 1365 l 1,2,-1
 612 0 l 1,3,-1
 68 0 l 1,0,-1
136 68 m 1,4,-1
 544 68 l 1,5,-1
 544 1297 l 1,6,-1
 136 1297 l 1,7,-1
 136 68 l 1,4,-1
EndSplineSet
EndChar

StartChar: exclam
Encoding: 33 33 4
Width: 1024
GlyphClass: 2
Flags: W
LayerCount: 2
Fore
SplineSet
704 1072 m 0,0,1
 704 1035 704 1035 688 969 c 0,2,3
 672 905 672 905 642 811 c 0,4,5
 602 689 602 689 557 575 c 0,6,7
 553 565 553 565 546 558 c 0,8,9
 532 544 532 544 512 544 c 128,-1,10
 492 544 492 544 478 558 c 0,11,12
 471 565 471 565 467 575 c 0,13,14
 422 690 422 690 382 811 c 0,15,16
 352 905 352 905 336 969 c 0,17,18
 320 1035 320 1035 320 1072 c 0,19,20
 320 1151 320 1151 376.5 1207.5 c 128,-1,21
 433 1264 433 1264 512 1264 c 128,-1,22
 591 1264 591 1264 647.5 1207.5 c 128,-1,23
 704 1151 704 1151 704 1072 c 0,0,1
320 128 m 128,-1,25
 320 172 320 172 352 208 c 0,26,27
 378 238 378 238 420 255 c 128,-1,28
 462 272 462 272 512 272 c 128,-1,29
 562 272 562 272 604 255 c 128,-1,30
 646 238 646 238 672 208 c 0,31,32
 704 172 704 172 704 128 c 128,-1,33
 704 84 704 84 672 48 c 0,34,35
 646 18 646 18 604 1 c 128,-1,36
 562 -16 562 -16 512 -16 c 128,-1,37
 462 -16 462 -16 420 1 c 128,-1,38
 378 18 378 18 352 48 c 0,39,24
 320 84 320 84 320 128 c 128,-1,25
EndSplineSet
EndChar

StartChar: quotedbl
Encoding: 34 34 5
Width: 1024
GlyphClass: 2
Flags: W
LayerCount: 2
Fore
SplineSet
224 1168 m 0,0,1
 224 1208 224 1208 252 1236 c 128,-1,2
 280 1264 280 1264 320 1264 c 128,-1,3
 360 1264 360 1264 388 1236 c 128,-1,4
 416 1208 416 1208 416 1168 c 0,5,6
 416 1059 416 1059 402.5 917 c 128,-1,7
 389 775 389 775 381 720.5 c 128,-1,8
 373 666 373 666 367 632 c 0,9,10
 365 617 365 617 354 606 c 0,11,12
 340 592 340 592 320 592 c 128,-1,13
 300 592 300 592 286 606 c 0,14,15
 275 617 275 617 273 632 c 0,16,17
 267 666 267 666 259 720.5 c 128,-1,18
 251 775 251 775 237.5 917 c 128,-1,19
 224 1059 224 1059 224 1168 c 0,0,1
608 1168 m 0,20,21
 608 1208 608 1208 636 1236 c 128,-1,22
 664 1264 664 1264 704 1264 c 128,-1,23
 744 1264 744 1264 772 1236 c 128,-1,24
 800 1208 800 1208 800 1168 c 0,25,26
 800 1059 800 1059 786.5 917 c 128,-1,27
 773 775 773 775 765 720.5 c 128,-1,28
 757 666 757 666 751 632 c 0,29,30
 749 617 749 617 738 606 c 0,31,32
 724 592 724 592 704 592 c 128,-1,33
 684 592 684 592 670 606 c 0,34,35
 659 617 659 617 657 632 c 0,36,37
 651 666 651 666 643 720.5 c 128,-1,38
 635 775 635 775 621.5 917 c 128,-1,39
 608 1059 608 1059 608 1168 c 0,20,21
EndSplineSet
EndChar

StartChar: numbersign
Encoding: 35 35 6
Width: 1024
GlyphClass: 2
Flags: W
LayerCount: 2
Fore
SplineSet
417 528 m 1,0,-1
 575 528 l 1,1,-1
 607 720 l 1,2,-1
 449 720 l 1,3,-1
 417 528 l 1,0,-1
768 1440 m 0,4,5
 788 1440 788 1440 802 1426 c 128,-1,6
 816 1412 816 1412 816 1392 c 0,7,8
 816 1388 816 1388 815 1384 c 2,9,-1
 721 816 l 1,10,-1
 880 816 l 2,11,12
 900 816 900 816 914 802 c 128,-1,13
 928 788 928 788 928 768 c 128,-1,14
 928 748 928 748 914 734 c 128,-1,15
 900 720 900 720 880 720 c 2,16,-1
 705 720 l 1,17,-1
 673 528 l 1,18,-1
 880 528 l 2,19,20
 900 528 900 528 914 514 c 128,-1,21
 928 500 928 500 928 480 c 128,-1,22
 928 460 928 460 914 446 c 128,-1,23
 900 432 900 432 880 432 c 2,24,-1
 657 432 l 1,25,-1
 559 -152 l 2,26,27
 556 -169 556 -169 543 -180.5 c 128,-1,28
 530 -192 530 -192 512 -192 c 0,29,30
 492 -192 492 -192 478 -178 c 128,-1,31
 464 -164 464 -164 464 -144 c 0,32,33
 464 -140 464 -140 465 -136 c 2,34,-1
 559 432 l 1,35,-1
 401 432 l 1,36,-1
 303 -152 l 2,37,38
 300 -169 300 -169 287 -180.5 c 128,-1,39
 274 -192 274 -192 256 -192 c 0,40,41
 236 -192 236 -192 222 -178 c 128,-1,42
 208 -164 208 -164 208 -144 c 0,43,44
 208 -140 208 -140 209 -136 c 2,45,-1
 303 432 l 1,46,-1
 144 432 l 2,47,48
 124 432 124 432 110 446 c 128,-1,49
 96 460 96 460 96 480 c 128,-1,50
 96 500 96 500 110 514 c 128,-1,51
 124 528 124 528 144 528 c 2,52,-1
 319 528 l 1,53,-1
 351 720 l 1,54,-1
 144 720 l 2,55,56
 124 720 124 720 110 734 c 128,-1,57
 96 748 96 748 96 768 c 128,-1,58
 96 788 96 788 110 802 c 128,-1,59
 124 816 124 816 144 816 c 2,60,-1
 367 816 l 1,61,-1
 465 1400 l 2,62,63
 468 1417 468 1417 481 1428.5 c 128,-1,64
 494 1440 494 1440 512 1440 c 0,65,66
 532 1440 532 1440 546 1426 c 128,-1,67
 560 1412 560 1412 560 1392 c 0,68,69
 560 1388 560 1388 559 1384 c 2,70,-1
 465 816 l 1,71,-1
 623 816 l 1,72,-1
 721 1400 l 2,73,74
 724 1417 724 1417 737 1428.5 c 128,-1,75
 750 1440 750 1440 768 1440 c 0,4,5
EndSplineSet
EndChar

StartChar: dollar
Encoding: 36 36 7
Width: 1024
GlyphClass: 2
Flags: W
LayerCount: 2
Fore
SplineSet
464 1392 m 2,0,1
 464 1412 464 1412 478 1426 c 128,-1,2
 492 1440 492 1440 512 1440 c 128,-1,3
 532 1440 532 1440 546 1426 c 128,-1,4
 560 1412 560 1412 560 1392 c 2,5,-1
 560 -144 l 2,6,7
 560 -164 560 -164 546 -178 c 128,-1,8
 532 -192 532 -192 512 -192 c 128,-1,9
 492 -192 492 -192 478 -178 c 128,-1,10
 464 -164 464 -164 464 -144 c 2,11,-1
 464 1392 l 2,0,1
224 400 m 2,12,13
 224 264 224 264 307 172 c 128,-1,14
 390 80 390 80 512 80 c 0,15,16
 627 80 627 80 703 135 c 0,17,18
 800 204 800 204 800 336 c 0,19,20
 800 420 800 420 754 486 c 0,21,22
 680 594 680 594 504 625 c 0,23,24
 347 652 347 652 257 737 c 0,25,26
 160 829 160 829 160 960 c 0,27,28
 160 1029 160 1029 187 1086 c 0,29,30
 219 1157 219 1157 286 1202 c 0,31,32
 379 1264 379 1264 512 1264 c 0,33,34
 657 1264 657 1264 752 1161 c 1,35,-1
 752 1200 l 2,36,37
 752 1220 752 1220 766 1234 c 128,-1,38
 780 1248 780 1248 800 1248 c 128,-1,39
 820 1248 820 1248 834 1234 c 128,-1,40
 848 1220 848 1220 848 1200 c 2,41,-1
 848 864 l 2,42,43
 848 844 848 844 834 830 c 128,-1,44
 820 816 820 816 800 816 c 128,-1,45
 780 816 780 816 766 830 c 128,-1,46
 752 844 752 844 752 864 c 2,47,-1
 752 896 l 2,48,49
 752 1001 752 1001 699 1075 c 0,50,51
 632 1168 632 1168 512 1168 c 0,52,53
 408 1168 408 1168 340 1122 c 0,54,55
 295 1092 295 1092 274 1046 c 0,56,57
 256 1008 256 1008 256 960 c 0,58,59
 256 870 256 870 323 807 c 0,60,61
 392 742 392 742 520 719 c 0,62,63
 737 681 737 681 833 541 c 0,64,65
 896 450 896 450 896 336 c 0,66,67
 896 247 896 247 860 175 c 128,-1,68
 824 103 824 103 759 56 c 0,69,70
 658 -16 658 -16 512 -16 c 0,71,72
 426 -16 426 -16 351.5 20.5 c 128,-1,73
 277 57 277 57 224 121 c 1,74,-1
 224 48 l 2,75,76
 224 28 224 28 210 14 c 128,-1,77
 196 0 196 0 176 0 c 128,-1,78
 156 0 156 0 142 14 c 128,-1,79
 128 28 128 28 128 48 c 2,80,-1
 128 432 l 2,81,82
 128 452 128 452 142 466 c 128,-1,83
 156 480 156 480 176 480 c 128,-1,84
 196 480 196 480 210 466 c 128,-1,85
 224 452 224 452 224 432 c 2,86,-1
 224 400 l 2,12,13
EndSplineSet
Substitution2: "'cv02' Character Variants 02 lookup 4 subtable" dollar.cv02
EndChar

StartChar: percent
Encoding: 37 37 8
Width: 1024
GlyphClass: 2
Flags: W
LayerCount: 2
Fore
SplineSet
896 1440 m 0,0,1
 916 1440 916 1440 930 1426 c 128,-1,2
 944 1412 944 1412 944 1392 c 0,3,4
 944 1381 944 1381 939 1371 c 2,5,-1
 171 -166 l 2,6,7
 158 -192 158 -192 128 -192 c 0,8,9
 108 -192 108 -192 94 -178 c 128,-1,10
 80 -164 80 -164 80 -144 c 0,11,12
 80 -133 80 -133 85 -123 c 2,13,-1
 782 1271 l 1,14,15
 747 1254 747 1254 711 1239 c 0,16,17
 594 1190 594 1190 484 1170 c 1,18,19
 509 1125 509 1125 509 1068 c 0,20,21
 509 995 509 995 470 928 c 128,-1,22
 431 861 431 861 369 824 c 0,23,24
 318 795 318 795 265 795 c 0,25,26
 221 795 221 795 184 816 c 0,27,28
 142 841 142 841 120.5 885 c 128,-1,29
 99 929 99 929 99 980 c 0,30,31
 99 1053 99 1053 138 1120 c 128,-1,32
 177 1187 177 1187 239 1224 c 0,33,34
 290 1253 290 1253 343 1253 c 0,35,36
 419 1253 419 1253 502 1272.5 c 128,-1,37
 585 1292 585 1292 644 1315.5 c 128,-1,38
 703 1339 703 1339 761.5 1369.5 c 128,-1,39
 820 1400 820 1400 839 1412 c 128,-1,40
 858 1424 858 1424 868 1431 c 0,41,42
 881 1440 881 1440 896 1440 c 0,0,1
195 980 m 0,43,44
 195 921 195 921 232 899 c 0,45,46
 247 891 247 891 265 891 c 0,47,48
 292 891 292 891 321 907 c 0,49,50
 361 931 361 931 387 976 c 128,-1,51
 413 1021 413 1021 413 1068 c 0,52,53
 413 1127 413 1127 376 1149 c 0,54,55
 361 1157 361 1157 343 1157 c 0,56,57
 316 1157 316 1157 287 1141 c 0,58,59
 247 1117 247 1117 221 1072 c 128,-1,60
 195 1027 195 1027 195 980 c 0,43,44
759 453 m 0,61,62
 803 453 803 453 840 432 c 0,63,64
 882 407 882 407 903.5 363 c 128,-1,65
 925 319 925 319 925 268 c 0,66,67
 925 195 925 195 886 128 c 128,-1,68
 847 61 847 61 785 24 c 0,69,70
 734 -5 734 -5 681 -5 c 0,71,72
 637 -5 637 -5 600 16 c 0,73,74
 558 41 558 41 536.5 85 c 128,-1,75
 515 129 515 129 515 180 c 0,76,77
 515 253 515 253 554 320 c 128,-1,78
 593 387 593 387 655 424 c 0,79,80
 706 453 706 453 759 453 c 0,61,62
611 180 m 0,81,82
 611 121 611 121 648 99 c 0,83,84
 663 91 663 91 681 91 c 0,85,86
 708 91 708 91 737 107 c 0,87,88
 777 131 777 131 803 176 c 128,-1,89
 829 221 829 221 829 268 c 0,90,91
 829 327 829 327 792 349 c 0,92,93
 777 357 777 357 759 357 c 0,94,95
 732 357 732 357 703 341 c 0,96,97
 663 317 663 317 637 272 c 128,-1,98
 611 227 611 227 611 180 c 0,81,82
EndSplineSet
EndChar

StartChar: ampersand
Encoding: 38 38 9
Width: 1024
GlyphClass: 2
Flags: W
LayerCount: 2
Fore
SplineSet
656 139 m 1,0,1
 527 -16 527 -16 384 -16 c 0,2,3
 324 -16 324 -16 273 6 c 0,4,5
 204 36 204 36 160 103 c 0,6,7
 96 201 96 201 96 368 c 0,8,9
 96 458 96 458 159 561 c 0,10,11
 203 634 203 634 322 770 c 1,12,13
 273 885 273 885 253 961 c 0,14,15
 240 1009 240 1009 240 1040 c 0,16,17
 240 1136 240 1136 278 1193 c 0,18,19
 305 1233 305 1233 348 1251 c 0,20,21
 379 1264 379 1264 416 1264 c 128,-1,22
 453 1264 453 1264 484 1251 c 0,23,24
 527 1233 527 1233 554 1193 c 0,25,26
 592 1136 592 1136 592 1040 c 0,27,28
 592 971 592 971 539 888 c 0,29,30
 505 834 505 834 434 752 c 1,31,32
 486 638 486 638 552 516 c 0,33,34
 625 379 625 379 661 316 c 1,35,36
 727 431 727 431 769 562 c 0,37,38
 786 615 786 615 794 657 c 0,39,40
 796 665 796 665 797 672 c 1,41,-1
 688 672 l 2,42,43
 668 672 668 672 654 686 c 128,-1,44
 640 700 640 700 640 720 c 128,-1,45
 640 740 640 740 654 754 c 128,-1,46
 668 768 668 768 688 768 c 2,47,-1
 976 768 l 2,48,49
 996 768 996 768 1010 754 c 128,-1,50
 1024 740 1024 740 1024 720 c 128,-1,51
 1024 700 1024 700 1010 686 c 128,-1,52
 996 672 996 672 976 672 c 2,53,-1
 894 672 l 1,54,55
 892 657 892 657 888 639 c 0,56,57
 879 591 879 591 860 533 c 0,58,59
 810 376 810 376 730 245 c 0,60,61
 723 234 723 234 716 223 c 1,62,63
 723 212 723 212 729 202 c 0,64,65
 766 145 766 145 794 114 c 0,66,67
 813 91 813 91 832 80 c 1,68,69
 854 80 854 80 868 88 c 0,70,71
 887 101 887 101 898 141 c 0,72,73
 912 192 912 192 912 304 c 0,74,75
 912 324 912 324 926 338 c 128,-1,76
 940 352 940 352 960 352 c 128,-1,77
 980 352 980 352 994 338 c 128,-1,78
 1008 324 1008 324 1008 304 c 0,79,80
 1008 179 1008 179 991 116 c 0,81,82
 970 40 970 40 919 7 c 0,83,84
 882 -16 882 -16 832 -16 c 0,85,86
 812 -16 812 -16 792 -7 c 256,87,88
 772 2 772 2 751 20 c 0,89,90
 715 52 715 52 670 119 c 0,91,92
 663 128 663 128 656 139 c 1,0,1
384 80 m 0,93,94
 444 80 444 80 506 127 c 0,95,96
 554 163 554 163 602 226 c 1,97,98
 560 298 560 298 466 473 c 0,99,100
 411 574 411 574 365 673 c 1,101,102
 278 573 278 573 241 511 c 0,103,104
 192 431 192 431 192 368 c 0,105,106
 192 230 192 230 241 155 c 0,107,108
 269 113 269 113 311 94 c 0,109,110
 344 80 344 80 384 80 c 0,93,94
496 1040 m 0,111,112
 496 1107 496 1107 474 1139 c 0,113,114
 463 1156 463 1156 447 1162 c 0,115,116
 434 1168 434 1168 416 1168 c 128,-1,117
 398 1168 398 1168 385 1162 c 0,118,119
 369 1156 369 1156 358 1139 c 0,120,121
 336 1107 336 1107 336 1040 c 0,122,123
 336 1022 336 1022 346 986 c 0,124,125
 360 931 360 931 392 851 c 1,126,127
 435 902 435 902 458 939 c 0,128,129
 496 999 496 999 496 1040 c 0,111,112
EndSplineSet
EndChar

StartChar: quotesingle
Encoding: 39 39 10
Width: 1024
GlyphClass: 2
Flags: W
LayerCount: 2
Fore
SplineSet
368 1120 m 0,0,1
 368 1180 368 1180 410 1222 c 128,-1,2
 452 1264 452 1264 512 1264 c 128,-1,3
 572 1264 572 1264 614 1222 c 128,-1,4
 656 1180 656 1180 656 1120 c 0,5,6
 656 1033 656 1033 615 850 c 0,7,8
 589 735 589 735 558 628 c 0,9,10
 554 612 554 612 541.5 602 c 128,-1,11
 529 592 529 592 512 592 c 128,-1,12
 495 592 495 592 482 602.5 c 128,-1,13
 469 613 469 613 465 628 c 0,14,15
 435 735 435 735 409 850 c 0,16,17
 368 1033 368 1033 368 1120 c 0,0,1
EndSplineSet
EndChar

StartChar: parenleft
Encoding: 40 40 11
Width: 1024
GlyphClass: 2
Flags: W
LayerCount: 2
Fore
SplineSet
720 1440 m 0,0,1
 740 1440 740 1440 754 1426 c 128,-1,2
 768 1412 768 1412 768 1392 c 0,3,4
 768 1368 768 1368 749 1354 c 0,5,6
 741 1348 741 1348 728 1337 c 128,-1,7
 715 1326 715 1326 677 1288.5 c 128,-1,8
 639 1251 639 1251 604.5 1209.5 c 128,-1,9
 570 1168 570 1168 528 1102.5 c 128,-1,10
 486 1037 486 1037 456 968 c 128,-1,11
 426 899 426 899 405 808 c 128,-1,12
 384 717 384 717 384 624 c 128,-1,13
 384 531 384 531 404 440.5 c 128,-1,14
 424 350 424 350 456.5 280 c 128,-1,15
 489 210 489 210 527.5 146.5 c 128,-1,16
 566 83 566 83 605 38 c 128,-1,17
 644 -7 644 -7 676.5 -40 c 128,-1,18
 709 -73 709 -73 729 -90 c 2,19,-1
 749 -106 l 2,20,21
 768 -120 768 -120 768 -144 c 0,22,23
 768 -164 768 -164 754 -178 c 128,-1,24
 740 -192 740 -192 720 -192 c 0,25,26
 704 -192 704 -192 691 -182 c 0,27,28
 685 -178 685 -178 676 -170.5 c 128,-1,29
 667 -163 667 -163 639.5 -137.5 c 128,-1,30
 612 -112 612 -112 585.5 -84 c 128,-1,31
 559 -56 559 -56 523 -11.5 c 128,-1,32
 487 33 487 33 456 80 c 0,33,34
 288 337 288 337 288 624 c 128,-1,35
 288 911 288 911 456 1168 c 0,36,37
 487 1215 487 1215 523 1259.5 c 128,-1,38
 559 1304 559 1304 585.5 1332 c 128,-1,39
 612 1360 612 1360 639.5 1385.5 c 128,-1,40
 667 1411 667 1411 676 1418.5 c 128,-1,41
 685 1426 685 1426 691 1430 c 0,42,43
 704 1440 704 1440 720 1440 c 0,0,1
EndSplineSet
EndChar

StartChar: parenright
Encoding: 41 41 12
Width: 1024
GlyphClass: 2
Flags: W
LayerCount: 2
Fore
SplineSet
256 1392 m 0,0,1
 256 1412 256 1412 270 1426 c 128,-1,2
 284 1440 284 1440 304 1440 c 0,3,4
 320 1440 320 1440 333 1430 c 0,5,6
 339 1426 339 1426 348 1418.5 c 128,-1,7
 357 1411 357 1411 384.5 1385.5 c 128,-1,8
 412 1360 412 1360 438.5 1332 c 128,-1,9
 465 1304 465 1304 501 1259.5 c 128,-1,10
 537 1215 537 1215 568 1168 c 0,11,12
 736 911 736 911 736 624 c 128,-1,13
 736 337 736 337 568 80 c 0,14,15
 537 33 537 33 501 -11.5 c 128,-1,16
 465 -56 465 -56 438.5 -84 c 128,-1,17
 412 -112 412 -112 384.5 -137.5 c 128,-1,18
 357 -163 357 -163 348 -170.5 c 128,-1,19
 339 -178 339 -178 333 -182 c 0,20,21
 320 -192 320 -192 304 -192 c 0,22,23
 284 -192 284 -192 270 -178 c 128,-1,24
 256 -164 256 -164 256 -144 c 0,25,26
 256 -120 256 -120 275 -106 c 0,27,28
 283 -100 283 -100 296 -89 c 128,-1,29
 309 -78 309 -78 347 -40.5 c 128,-1,30
 385 -3 385 -3 419.5 38.5 c 128,-1,31
 454 80 454 80 496 145.5 c 128,-1,32
 538 211 538 211 568 280 c 128,-1,33
 598 349 598 349 619 440 c 128,-1,34
 640 531 640 531 640 624 c 128,-1,35
 640 717 640 717 620 807.5 c 128,-1,36
 600 898 600 898 568 968 c 128,-1,37
 536 1038 536 1038 496.5 1101.5 c 128,-1,38
 457 1165 457 1165 418.5 1210 c 128,-1,39
 380 1255 380 1255 347.5 1288 c 128,-1,40
 315 1321 315 1321 295.5 1337.5 c 128,-1,41
 276 1354 276 1354 275 1354 c 0,42,43
 256 1368 256 1368 256 1392 c 0,0,1
EndSplineSet
EndChar

StartChar: asterisk
Encoding: 42 42 13
Width: 1024
GlyphClass: 2
Flags: W
LayerCount: 2
Fore
SplineSet
96 880 m 128,-1,1
 96 906 96 906 114.5 925 c 128,-1,2
 133 944 133 944 160 944 c 0,3,4
 164 944 164 944 167 944 c 2,5,-1
 372 928 l 2,6,7
 389 926 389 926 402 914 c 0,8,9
 416 900 416 900 416 880 c 128,-1,10
 416 860 416 860 402 846 c 0,11,12
 389 834 389 834 372 832 c 2,13,-1
 167 816 l 2,14,15
 164 816 164 816 160 816 c 0,16,17
 133 816 133 816 114.5 835 c 128,-1,0
 96 854 96 854 96 880 c 128,-1,1
928 880 m 128,-1,19
 928 854 928 854 909 835 c 128,-1,20
 890 816 890 816 864 816 c 0,21,22
 860 816 860 816 857 816 c 2,23,-1
 652 832 l 2,24,25
 628 834 628 834 615 855 c 0,26,27
 608 866 608 866 608 880 c 0,28,29
 608 907 608 907 631 921 c 0,30,31
 641 927 641 927 652 928 c 2,32,-1
 857 944 l 2,33,34
 860 944 860 944 864 944 c 0,35,36
 890 944 890 944 909 925 c 128,-1,18
 928 906 928 906 928 880 c 128,-1,19
336 511 m 0,37,38
 309 511 309 511 290.5 530.5 c 128,-1,39
 272 550 272 550 272 575 c 0,40,41
 272 596 272 596 285 613 c 2,42,-1
 400 782 l 2,43,44
 415 803 415 803 440 803 c 0,45,46
 459 803 459 803 473.5 789.5 c 128,-1,47
 488 776 488 776 488 755 c 0,48,49
 488 744 488 744 483 735 c 2,50,-1
 395 550 l 2,51,52
 387 533 387 533 371 522 c 128,-1,53
 355 511 355 511 336 511 c 0,37,38
688 1249 m 0,54,55
 715 1249 715 1249 733.5 1229.5 c 128,-1,56
 752 1210 752 1210 752 1185 c 0,57,58
 752 1164 752 1164 739 1147 c 2,59,-1
 624 978 l 2,60,61
 609 957 609 957 584 957 c 0,62,63
 565 957 565 957 550.5 970.5 c 128,-1,64
 536 984 536 984 536 1005 c 0,65,66
 536 1016 536 1016 541 1025 c 2,67,-1
 629 1210 l 2,68,69
 637 1227 637 1227 653 1238 c 128,-1,70
 669 1249 669 1249 688 1249 c 0,54,55
752 575 m 0,71,72
 752 550 752 550 733.5 530.5 c 128,-1,73
 715 511 715 511 688 511 c 0,74,75
 669 511 669 511 653 522 c 128,-1,76
 637 533 637 533 629 550 c 2,77,-1
 541 735 l 2,78,79
 536 744 536 744 536 755 c 0,80,81
 536 776 536 776 550.5 789.5 c 128,-1,82
 565 803 565 803 584 803 c 0,83,84
 609 803 609 803 624 782 c 2,85,-1
 739 613 l 2,86,87
 752 596 752 596 752 575 c 0,71,72
272 1185 m 0,88,89
 272 1210 272 1210 290.5 1229.5 c 128,-1,90
 309 1249 309 1249 336 1249 c 0,91,92
 355 1249 355 1249 371 1238 c 128,-1,93
 387 1227 387 1227 395 1210 c 2,94,-1
 483 1025 l 2,95,96
 488 1016 488 1016 488 1005 c 0,97,98
 488 984 488 984 473.5 970.5 c 128,-1,99
 459 957 459 957 440 957 c 0,100,101
 415 957 415 957 400 978 c 2,102,-1
 285 1147 l 2,103,104
 272 1164 272 1164 272 1185 c 0,88,89
EndSplineSet
EndChar

StartChar: plus
Encoding: 43 43 14
Width: 1024
GlyphClass: 2
Flags: W
LayerCount: 2
Fore
SplineSet
464 992 m 2,0,1
 464 1012 464 1012 478 1026 c 128,-1,2
 492 1040 492 1040 512 1040 c 128,-1,3
 532 1040 532 1040 546 1026 c 128,-1,4
 560 1012 560 1012 560 992 c 2,5,-1
 560 672 l 1,6,-1
 880 672 l 2,7,8
 900 672 900 672 914 658 c 128,-1,9
 928 644 928 644 928 624 c 128,-1,10
 928 604 928 604 914 590 c 128,-1,11
 900 576 900 576 880 576 c 2,12,-1
 560 576 l 1,13,-1
 560 256 l 2,14,15
 560 236 560 236 546 222 c 128,-1,16
 532 208 532 208 512 208 c 128,-1,17
 492 208 492 208 478 222 c 128,-1,18
 464 236 464 236 464 256 c 2,19,-1
 464 576 l 1,20,-1
 144 576 l 2,21,22
 124 576 124 576 110 590 c 128,-1,23
 96 604 96 604 96 624 c 128,-1,24
 96 644 96 644 110 658 c 128,-1,25
 124 672 124 672 144 672 c 2,26,-1
 464 672 l 1,27,-1
 464 992 l 2,0,1
EndSplineSet
EndChar

StartChar: comma
Encoding: 44 44 15
Width: 1024
GlyphClass: 2
Flags: W
LayerCount: 2
Fore
SplineSet
320 128 m 128,-1,1
 320 172 320 172 352 208 c 0,2,3
 378 238 378 238 420 255 c 128,-1,4
 462 272 462 272 512 272 c 128,-1,5
 562 272 562 272 604 255 c 128,-1,6
 646 238 646 238 672 208 c 0,7,8
 704 172 704 172 704 128 c 0,9,10
 704 52 704 52 671.5 -30 c 128,-1,11
 639 -112 639 -112 575 -199 c 0,12,13
 538 -249 538 -249 491.5 -298.5 c 128,-1,14
 445 -348 445 -348 427.5 -363.5 c 128,-1,15
 410 -379 410 -379 399 -389 c 0,16,17
 385 -400 385 -400 368 -400 c 0,18,19
 348 -400 348 -400 334 -386 c 128,-1,20
 320 -372 320 -372 320 -352 c 0,21,22
 320 -330 320 -330 337 -315 c 0,23,24
 347 -307 347 -307 363 -293 c 128,-1,25
 379 -279 379 -279 421 -233.5 c 128,-1,26
 463 -188 463 -188 497 -142 c 0,27,28
 549 -73 549 -73 577 -8 c 1,29,30
 546 -16 546 -16 512 -16 c 0,31,32
 462 -16 462 -16 420 1 c 128,-1,33
 378 18 378 18 352 48 c 0,34,0
 320 84 320 84 320 128 c 128,-1,1
EndSplineSet
EndChar

StartChar: hyphen
Encoding: 45 45 16
Width: 1024
GlyphClass: 2
Flags: W
LayerCount: 2
Fore
SplineSet
144 576 m 2,0,1
 124 576 124 576 110 590 c 128,-1,2
 96 604 96 604 96 624 c 128,-1,3
 96 644 96 644 110 658 c 128,-1,4
 124 672 124 672 144 672 c 2,5,-1
 880 672 l 2,6,7
 900 672 900 672 914 658 c 128,-1,8
 928 644 928 644 928 624 c 128,-1,9
 928 604 928 604 914 590 c 128,-1,10
 900 576 900 576 880 576 c 2,11,-1
 144 576 l 2,0,1
EndSplineSet
EndChar

StartChar: period
Encoding: 46 46 17
Width: 1024
GlyphClass: 2
Flags: W
LayerCount: 2
Fore
SplineSet
320 128 m 128,-1,1
 320 172 320 172 352 208 c 0,2,3
 378 238 378 238 420 255 c 128,-1,4
 462 272 462 272 512 272 c 128,-1,5
 562 272 562 272 604 255 c 128,-1,6
 646 238 646 238 672 208 c 0,7,8
 704 172 704 172 704 128 c 128,-1,9
 704 84 704 84 672 48 c 0,10,11
 646 18 646 18 604 1 c 128,-1,12
 562 -16 562 -16 512 -16 c 128,-1,13
 462 -16 462 -16 420 1 c 128,-1,14
 378 18 378 18 352 48 c 0,15,0
 320 84 320 84 320 128 c 128,-1,1
EndSplineSet
EndChar

StartChar: slash
Encoding: 47 47 18
Width: 1024
GlyphClass: 2
Flags: W
LayerCount: 2
Fore
SplineSet
128 -192 m 0,0,1
 108 -192 108 -192 94 -178 c 128,-1,2
 80 -164 80 -164 80 -144 c 0,3,4
 80 -133 80 -133 85 -123 c 2,5,-1
 853 1414 l 2,6,7
 866 1440 866 1440 896 1440 c 0,8,9
 916 1440 916 1440 930 1426 c 128,-1,10
 944 1412 944 1412 944 1392 c 0,11,12
 944 1381 944 1381 939 1371 c 2,13,-1
 171 -166 l 2,14,15
 158 -192 158 -192 128 -192 c 0,0,1
EndSplineSet
EndChar

StartChar: one
Encoding: 49 49 20
Width: 1024
GlyphClass: 2
Flags: W
LayerCount: 2
Fore
SplineSet
512 1248 m 0,0,1
 531 1248 531 1248 545.5 1234.5 c 128,-1,2
 560 1221 560 1221 560 1200 c 2,3,-1
 560 96 l 1,4,-1
 816 96 l 2,5,6
 836 96 836 96 850 82 c 128,-1,7
 864 68 864 68 864 48 c 128,-1,8
 864 28 864 28 850 14 c 128,-1,9
 836 0 836 0 816 0 c 2,10,-1
 208 0 l 2,11,12
 188 0 188 0 174 14 c 128,-1,13
 160 28 160 28 160 48 c 128,-1,14
 160 68 160 68 174 82 c 128,-1,15
 188 96 188 96 208 96 c 2,16,-1
 464 96 l 1,17,-1
 464 1066 l 1,18,19
 452 1054 452 1054 439 1043 c 0,20,21
 326 944 326 944 208 944 c 0,22,23
 188 944 188 944 174 958 c 128,-1,24
 160 972 160 972 160 992 c 128,-1,25
 160 1012 160 1012 174 1026 c 128,-1,26
 188 1040 188 1040 208 1040 c 0,27,28
 290 1040 290 1040 376 1115 c 0,29,30
 403 1138 403 1138 426.5 1166 c 128,-1,31
 450 1194 450 1194 461 1209 c 2,32,-1
 471 1225 l 2,33,34
 485 1248 485 1248 512 1248 c 0,0,1
EndSplineSet
Substitution2: "'onum' Oldstyle Figures lookup 5 subtable" one.oldstyle
Substitution2: "'cv03' Character Variants 03 lookup 1 subtable" one.cv03
EndChar

StartChar: two
Encoding: 50 50 21
Width: 1024
GlyphClass: 2
Flags: W
LayerCount: 2
Fore
SplineSet
832 336 m 0,0,1
 832 356 832 356 846 370 c 128,-1,2
 860 384 860 384 880 384 c 128,-1,3
 900 384 900 384 914 370 c 128,-1,4
 928 356 928 356 928 336 c 0,5,6
 928 186 928 186 875 99 c 0,7,8
 805 -16 805 -16 656 -16 c 0,9,10
 601 -16 601 -16 556 8 c 0,11,12
 523 25 523 25 478 70 c 0,13,14
 443 105 443 105 423 115 c 0,15,16
 400 128 400 128 368 128 c 256,17,18
 336 128 336 128 305 116.5 c 128,-1,19
 274 105 274 105 254 91 c 128,-1,20
 234 77 234 77 216 59.5 c 128,-1,21
 198 42 198 42 192.5 34 c 128,-1,22
 187 26 187 26 185 23 c 0,23,24
 171 0 171 0 144 0 c 0,25,26
 124 0 124 0 110 14 c 128,-1,27
 96 28 96 28 96 48 c 0,28,29
 96 289 96 289 199 450 c 0,30,31
 255 537 255 537 333.5 591.5 c 128,-1,32
 412 646 412 646 499 670 c 0,33,34
 596 697 596 697 664 737 c 0,35,36
 724 773 724 773 757 818 c 0,37,38
 800 874 800 874 800 944 c 0,39,40
 800 1002 800 1002 763 1053 c 256,41,42
 726 1104 726 1104 659 1136 c 128,-1,43
 592 1168 592 1168 512 1168 c 128,-1,44
 432 1168 432 1168 365 1136 c 128,-1,45
 298 1104 298 1104 261 1053 c 0,46,47
 245 1031 245 1031 236 1007 c 1,48,49
 272 1003 272 1003 296 975.5 c 128,-1,50
 320 948 320 948 320 912 c 0,51,52
 320 872 320 872 292 844 c 128,-1,53
 264 816 264 816 224 816 c 128,-1,54
 184 816 184 816 156 844 c 128,-1,55
 128 872 128 872 128 912 c 2,56,-1
 128 944 l 2,57,58
 128 1033 128 1033 183 1109 c 0,59,60
 235 1181 235 1181 322.5 1222.5 c 128,-1,61
 410 1264 410 1264 512 1264 c 128,-1,62
 614 1264 614 1264 701.5 1222.5 c 128,-1,63
 789 1181 789 1181 841 1109 c 0,64,65
 896 1033 896 1033 896 944 c 0,66,67
 896 842 896 842 834 760 c 0,68,69
 789 700 789 700 712 655 c 0,70,71
 634 608 634 608 525 578 c 0,72,73
 368 535 368 535 280 398 c 0,74,75
 219 303 219 303 200 171 c 1,76,77
 279 224 279 224 368 224 c 0,78,79
 423 224 423 224 468 200 c 0,80,81
 501 183 501 183 546 138 c 0,82,83
 581 103 581 103 601 93 c 0,84,85
 624 80 624 80 656 80 c 0,86,87
 700 80 700 80 732 94 c 0,88,89
 770 110 770 110 793 149 c 0,90,91
 832 213 832 213 832 336 c 0,0,1
EndSplineSet
Substitution2: "'onum' Oldstyle Figures lookup 5 subtable" two.oldstyle
EndChar

StartChar: three
Encoding: 51 51 22
Width: 1024
GlyphClass: 2
Flags: W
LayerCount: 2
Fore
SplineSet
512 80 m 0,0,1
 617 80 617 80 695.5 121 c 128,-1,2
 774 162 774 162 808 236 c 0,3,4
 832 287 832 287 832 352 c 0,5,6
 832 424 832 424 790 487 c 0,7,8
 748 549 748 549 674 586.5 c 128,-1,9
 600 624 600 624 512 624 c 2,10,-1
 416 624 l 2,11,12
 396 624 396 624 382 638 c 128,-1,13
 368 652 368 652 368 672 c 128,-1,14
 368 692 368 692 382 706 c 128,-1,15
 396 720 396 720 416 720 c 2,16,-1
 512 720 l 2,17,18
 585 720 585 720 646 751.5 c 128,-1,19
 707 783 707 783 741 834 c 0,20,21
 776 885 776 885 776 944 c 0,22,23
 776 999 776 999 756 1042 c 0,24,25
 729 1103 729 1103 664.5 1135.5 c 128,-1,26
 600 1168 600 1168 512 1168 c 0,27,28
 439 1168 439 1168 375 1148 c 128,-1,29
 311 1128 311 1128 276 1094 c 0,30,31
 272 1090 272 1090 268 1086 c 1,32,33
 301 1079 301 1079 322.5 1052.5 c 128,-1,34
 344 1026 344 1026 344 992 c 0,35,36
 344 952 344 952 316 924 c 128,-1,37
 288 896 288 896 248 896 c 128,-1,38
 208 896 208 896 180 924 c 128,-1,39
 152 952 152 952 152 992 c 2,40,-1
 152 1040 l 2,41,42
 152 1108 152 1108 209 1163 c 0,43,44
 253 1205 253 1205 323 1232 c 0,45,46
 409 1264 409 1264 512 1264 c 0,47,48
 646 1264 646 1264 739 1203 c 0,49,50
 800 1162 800 1162 836 1097 c 128,-1,51
 872 1032 872 1032 872 944 c 128,-1,52
 872 856 872 856 821 780 c 0,53,54
 778 717 778 717 709 676 c 1,55,56
 810 628 810 628 870 540 c 0,57,58
 928 454 928 454 928 352 c 0,59,60
 928 252 928 252 886.5 178 c 128,-1,61
 845 104 845 104 776 57 c 0,62,63
 666 -16 666 -16 512 -16 c 0,64,65
 392 -16 392 -16 292 22 c 0,66,67
 211 52 211 52 161 100 c 0,68,69
 96 163 96 163 96 240 c 2,70,-1
 96 288 l 2,71,72
 96 328 96 328 124 356 c 128,-1,73
 152 384 152 384 192 384 c 128,-1,74
 232 384 232 384 260 356 c 128,-1,75
 288 328 288 328 288 288 c 0,76,77
 288 253 288 253 265 226 c 128,-1,78
 242 199 242 199 207 193 c 1,79,80
 215 181 215 181 228 170 c 0,81,82
 271 128 271 128 347.5 104 c 128,-1,83
 424 80 424 80 512 80 c 0,0,1
EndSplineSet
Substitution2: "'onum' Oldstyle Figures lookup 5 subtable" three.oldstyle
EndChar

StartChar: four
Encoding: 52 52 23
Width: 1024
GlyphClass: 2
Flags: W
LayerCount: 2
Fore
SplineSet
112 384 m 2,0,1
 91 384 91 384 77.5 398.5 c 128,-1,2
 64 413 64 413 64 432 c 0,3,4
 64 446 64 446 72 458 c 2,5,-1
 568 1226 l 2,6,7
 582 1248 582 1248 608 1248 c 2,8,-1
 656 1248 l 2,9,10
 683 1248 683 1248 697 1225 c 0,11,12
 704 1214 704 1214 704 1200 c 2,13,-1
 704 736 l 1,14,-1
 704 480 l 1,15,-1
 944 480 l 2,16,17
 964 480 964 480 978 466 c 128,-1,18
 992 452 992 452 992 432 c 128,-1,19
 992 412 992 412 978 398 c 128,-1,20
 964 384 964 384 944 384 c 2,21,-1
 704 384 l 1,22,-1
 704 96 l 1,23,-1
 928 96 l 2,24,25
 948 96 948 96 962 82 c 128,-1,26
 976 68 976 68 976 48 c 128,-1,27
 976 28 976 28 962 14 c 128,-1,28
 948 0 948 0 928 0 c 2,29,-1
 384 0 l 2,30,31
 364 0 364 0 350 14 c 128,-1,32
 336 28 336 28 336 48 c 128,-1,33
 336 68 336 68 350 82 c 128,-1,34
 364 96 364 96 384 96 c 2,35,-1
 608 96 l 1,36,-1
 608 384 l 1,37,-1
 112 384 l 2,0,1
608 480 m 1,38,-1
 608 1112 l 1,39,-1
 200 480 l 1,40,-1
 608 480 l 1,38,-1
EndSplineSet
Substitution2: "'onum' Oldstyle Figures lookup 5 subtable" four.oldstyle
EndChar

StartChar: five
Encoding: 53 53 24
Width: 1024
GlyphClass: 2
Flags: W
LayerCount: 2
Fore
SplineSet
208 640 m 0,0,1
 189 640 189 640 174.5 653.5 c 128,-1,2
 160 667 160 667 160 688 c 0,3,4
 160 690 160 690 160 693 c 2,5,-1
 208 1205 l 2,6,7
 210 1223 210 1223 223.5 1235.5 c 128,-1,8
 237 1248 237 1248 256 1248 c 2,9,-1
 816 1248 l 2,10,11
 836 1248 836 1248 850 1234 c 128,-1,12
 864 1220 864 1220 864 1200 c 128,-1,13
 864 1180 864 1180 850 1166 c 128,-1,14
 836 1152 836 1152 816 1152 c 2,15,-1
 300 1152 l 1,16,-1
 267 803 l 1,17,18
 385 880 385 880 528 880 c 0,19,20
 641 880 641 880 737 813 c 0,21,22
 826 750 826 750 877 647.5 c 128,-1,23
 928 545 928 545 928 432 c 128,-1,24
 928 319 928 319 872.5 216 c 128,-1,25
 817 113 817 113 724 51 c 0,26,27
 625 -16 625 -16 512 -16 c 0,28,29
 400 -16 400 -16 306.5 23 c 128,-1,30
 213 62 213 62 158 128 c 0,31,32
 96 201 96 201 96 288 c 2,33,-1
 96 320 l 2,34,35
 96 360 96 360 124 388 c 128,-1,36
 152 416 152 416 192 416 c 128,-1,37
 232 416 232 416 260 388 c 128,-1,38
 288 360 288 360 288 320 c 0,39,40
 288 285 288 285 265 258 c 128,-1,41
 242 231 242 231 207 225 c 1,42,43
 217 207 217 207 231 190 c 0,44,45
 273 140 273 140 348.5 110 c 128,-1,46
 424 80 424 80 512 80 c 0,47,48
 596 80 596 80 671 130 c 0,49,50
 743 179 743 179 787.5 261.5 c 128,-1,51
 832 344 832 344 832 432 c 0,52,53
 832 522 832 522 791 604 c 128,-1,54
 750 686 750 686 682 734 c 0,55,56
 611 784 611 784 528 784 c 0,57,58
 423 784 423 784 333 731 c 0,59,60
 300 711 300 711 272 685 c 2,61,-1
 246 659 l 2,62,63
 232 640 232 640 208 640 c 0,0,1
EndSplineSet
Substitution2: "'onum' Oldstyle Figures lookup 5 subtable" five.oldstyle
EndChar

StartChar: six
Encoding: 54 54 25
Width: 1024
GlyphClass: 2
Flags: W
LayerCount: 2
Fore
SplineSet
758 1100 m 1,0,1
 730 1131 730 1131 681.5 1149.5 c 128,-1,2
 633 1168 633 1168 576 1168 c 0,3,4
 452 1168 452 1168 363 1077 c 0,5,6
 289 1001 289 1001 245 870 c 0,7,8
 214 781 214 781 201 676 c 1,9,10
 260 742 260 742 340.5 779 c 128,-1,11
 421 816 421 816 512 816 c 0,12,13
 684 816 684 816 806 694 c 128,-1,14
 928 572 928 572 928 400 c 128,-1,15
 928 228 928 228 806 106 c 128,-1,16
 684 -16 684 -16 512 -16 c 128,-1,17
 340 -16 340 -16 218 106 c 128,-1,18
 96 228 96 228 96 400 c 2,19,-1
 96 528 l 2,20,21
 96 731 96 731 154 901 c 0,22,23
 205 1052 205 1052 295 1144 c 0,24,25
 412 1264 412 1264 576 1264 c 0,26,27
 657 1264 657 1264 725 1236 c 128,-1,28
 793 1208 793 1208 833 1160 c 0,29,30
 880 1105 880 1105 880 1040 c 2,31,-1
 880 1008 l 2,32,33
 880 968 880 968 852 940 c 128,-1,34
 824 912 824 912 784 912 c 128,-1,35
 744 912 744 912 716 940 c 128,-1,36
 688 968 688 968 688 1008 c 0,37,38
 688 1041 688 1041 707.5 1066.5 c 128,-1,39
 727 1092 727 1092 758 1100 c 1,0,1
192 400 m 128,-1,41
 192 268 192 268 286 174 c 128,-1,42
 380 80 380 80 512 80 c 128,-1,43
 644 80 644 80 738 174 c 128,-1,44
 832 268 832 268 832 400 c 128,-1,45
 832 532 832 532 738 626 c 128,-1,46
 644 720 644 720 512 720 c 128,-1,47
 380 720 380 720 286 626 c 128,-1,40
 192 532 192 532 192 400 c 128,-1,41
EndSplineSet
Substitution2: "'onum' Oldstyle Figures lookup 5 subtable" six.oldstyle
EndChar

StartChar: seven
Encoding: 55 55 26
Width: 1024
GlyphClass: 2
Flags: W
LayerCount: 2
Fore
SplineSet
384 1168 m 0,0,1
 333 1168 333 1168 291 1128 c 0,2,3
 244 1082 244 1082 218 998.5 c 128,-1,4
 192 915 192 915 192 816 c 0,5,6
 192 796 192 796 178 782 c 128,-1,7
 164 768 164 768 144 768 c 128,-1,8
 124 768 124 768 110 782 c 128,-1,9
 96 796 96 796 96 816 c 2,10,-1
 96 1200 l 2,11,12
 96 1220 96 1220 110 1234 c 128,-1,13
 124 1248 124 1248 144 1248 c 128,-1,14
 164 1248 164 1248 178 1234 c 128,-1,15
 192 1220 192 1220 192 1200 c 2,16,-1
 192 1160 l 1,17,18
 207 1180 207 1180 224 1197 c 0,19,20
 294 1264 294 1264 384 1264 c 0,21,22
 432 1264 432 1264 472 1246 c 0,23,24
 508 1230 508 1230 545 1194 c 0,25,26
 551 1189 551 1189 562 1178 c 0,27,28
 597 1143 597 1143 617 1133 c 0,29,30
 640 1120 640 1120 672 1120 c 256,31,32
 704 1120 704 1120 735 1131.5 c 128,-1,33
 766 1143 766 1143 786 1157 c 128,-1,34
 806 1171 806 1171 824 1189 c 128,-1,35
 842 1207 842 1207 847.5 1214.5 c 128,-1,36
 853 1222 853 1222 855 1225 c 0,37,38
 869 1248 869 1248 896 1248 c 0,39,40
 916 1248 916 1248 930 1234 c 128,-1,41
 944 1220 944 1220 944 1200 c 0,42,43
 944 1077 944 1077 900 951 c 0,44,45
 861 841 861 841 802 782 c 0,46,47
 775 755 775 755 717 704 c 0,48,49
 677 669 677 669 655.5 649 c 128,-1,50
 634 629 634 629 603 596 c 128,-1,51
 572 563 572 563 548.5 527.5 c 128,-1,52
 525 492 525 492 505 451 c 0,53,54
 432 295 432 295 432 48 c 0,55,56
 432 28 432 28 418 14 c 128,-1,57
 404 0 404 0 384 0 c 128,-1,58
 364 0 364 0 350 14 c 128,-1,59
 336 28 336 28 336 48 c 0,60,61
 336 316 336 316 419 491 c 0,62,63
 441 539 441 539 468.5 580.5 c 128,-1,64
 496 622 496 622 532 660 c 128,-1,65
 568 698 568 698 590.5 719 c 128,-1,66
 613 740 613 740 654 776 c 0,67,68
 709 825 709 825 734 850 c 0,69,70
 777 893 777 893 809 983 c 0,71,72
 824 1026 824 1026 834 1073 c 1,73,74
 758 1024 758 1024 672 1024 c 0,75,76
 617 1024 617 1024 572 1048 c 0,77,78
 539 1065 539 1065 494 1110 c 0,79,80
 484 1120 484 1120 479 1125 c 0,81,82
 453 1149 453 1149 433 1159 c 0,83,84
 412 1168 412 1168 384 1168 c 0,0,1
EndSplineSet
Substitution2: "'onum' Oldstyle Figures lookup 5 subtable" seven.oldstyle
EndChar

StartChar: eight
Encoding: 56 56 27
Width: 1024
GlyphClass: 2
Flags: W
LayerCount: 2
Fore
SplineSet
248 944 m 0,0,1
 248 885 248 885 283 834 c 0,2,3
 317 783 317 783 378 751.5 c 128,-1,4
 439 720 439 720 512 720 c 128,-1,5
 585 720 585 720 646 751.5 c 128,-1,6
 707 783 707 783 741 834 c 0,7,8
 776 885 776 885 776 944 c 0,9,10
 776 999 776 999 756 1042 c 0,11,12
 729 1103 729 1103 664.5 1135.5 c 128,-1,13
 600 1168 600 1168 512 1168 c 128,-1,14
 424 1168 424 1168 359.5 1135.5 c 128,-1,15
 295 1103 295 1103 268 1042 c 0,16,17
 248 999 248 999 248 944 c 0,0,1
152 944 m 128,-1,19
 152 1032 152 1032 188 1097 c 128,-1,20
 224 1162 224 1162 285 1203 c 0,21,22
 378 1264 378 1264 512 1264 c 128,-1,23
 646 1264 646 1264 739 1203 c 0,24,25
 800 1162 800 1162 836 1097 c 128,-1,26
 872 1032 872 1032 872 944 c 128,-1,27
 872 856 872 856 821 780 c 0,28,29
 778 717 778 717 709 676 c 1,30,31
 810 628 810 628 870 540 c 0,32,33
 928 454 928 454 928 352 c 0,34,35
 928 252 928 252 886.5 177.5 c 128,-1,36
 845 103 845 103 776 57 c 0,37,38
 667 -16 667 -16 512 -16 c 128,-1,39
 357 -16 357 -16 248 57 c 0,40,41
 179 103 179 103 137.5 177.5 c 128,-1,42
 96 252 96 252 96 352 c 0,43,44
 96 454 96 454 154 540 c 0,45,46
 214 628 214 628 315 676 c 1,47,48
 246 717 246 717 203 780 c 0,49,18
 152 856 152 856 152 944 c 128,-1,19
192 352 m 0,50,51
 192 287 192 287 216 235 c 0,52,53
 250 162 250 162 328 121 c 128,-1,54
 406 80 406 80 512 80 c 128,-1,55
 618 80 618 80 696 121 c 128,-1,56
 774 162 774 162 808 235 c 0,57,58
 832 287 832 287 832 352 c 0,59,60
 832 424 832 424 790 487 c 0,61,62
 748 549 748 549 674 586.5 c 128,-1,63
 600 624 600 624 512 624 c 128,-1,64
 424 624 424 624 350 586.5 c 128,-1,65
 276 549 276 549 234 487 c 0,66,67
 192 424 192 424 192 352 c 0,50,51
EndSplineSet
Substitution2: "'onum' Oldstyle Figures lookup 5 subtable" eight.oldstyle
EndChar

StartChar: nine
Encoding: 57 57 28
Width: 1024
GlyphClass: 2
Flags: W
LayerCount: 2
Fore
SplineSet
266 148 m 1,0,1
 294 117 294 117 342.5 98.5 c 128,-1,2
 391 80 391 80 448 80 c 0,3,4
 572 80 572 80 661 171 c 0,5,6
 735 247 735 247 779 378 c 0,7,8
 810 467 810 467 823 572 c 1,9,10
 764 506 764 506 683.5 469 c 128,-1,11
 603 432 603 432 512 432 c 0,12,13
 340 432 340 432 218 554 c 128,-1,14
 96 676 96 676 96 848 c 128,-1,15
 96 1020 96 1020 218 1142 c 128,-1,16
 340 1264 340 1264 512 1264 c 128,-1,17
 684 1264 684 1264 806 1142 c 128,-1,18
 928 1020 928 1020 928 848 c 2,19,-1
 928 720 l 2,20,21
 928 517 928 517 870 347 c 0,22,23
 819 196 819 196 729 104 c 0,24,25
 612 -16 612 -16 448 -16 c 0,26,27
 367 -16 367 -16 299 12 c 128,-1,28
 231 40 231 40 191 88 c 0,29,30
 144 143 144 143 144 208 c 2,31,-1
 144 240 l 2,32,33
 144 280 144 280 172 308 c 128,-1,34
 200 336 200 336 240 336 c 128,-1,35
 280 336 280 336 308 308 c 128,-1,36
 336 280 336 280 336 240 c 0,37,38
 336 207 336 207 316.5 181.5 c 128,-1,39
 297 156 297 156 266 148 c 1,0,1
832 848 m 128,-1,41
 832 980 832 980 738 1074 c 128,-1,42
 644 1168 644 1168 512 1168 c 128,-1,43
 380 1168 380 1168 286 1074 c 128,-1,44
 192 980 192 980 192 848 c 128,-1,45
 192 716 192 716 286 622 c 128,-1,46
 380 528 380 528 512 528 c 128,-1,47
 644 528 644 528 738 622 c 128,-1,40
 832 716 832 716 832 848 c 128,-1,41
EndSplineSet
Substitution2: "'onum' Oldstyle Figures lookup 5 subtable" nine.oldstyle
EndChar

StartChar: colon
Encoding: 58 58 29
Width: 1024
GlyphClass: 2
Flags: W
LayerCount: 2
Fore
SplineSet
320 688 m 128,-1,1
 320 732 320 732 352 768 c 0,2,3
 378 798 378 798 420 815 c 128,-1,4
 462 832 462 832 512 832 c 128,-1,5
 562 832 562 832 604 815 c 128,-1,6
 646 798 646 798 672 768 c 0,7,8
 704 732 704 732 704 688 c 128,-1,9
 704 644 704 644 672 608 c 0,10,11
 646 578 646 578 604 561 c 128,-1,12
 562 544 562 544 512 544 c 128,-1,13
 462 544 462 544 420 561 c 128,-1,14
 378 578 378 578 352 608 c 0,15,0
 320 644 320 644 320 688 c 128,-1,1
320 128 m 128,-1,17
 320 172 320 172 352 208 c 0,18,19
 378 238 378 238 420 255 c 128,-1,20
 462 272 462 272 512 272 c 128,-1,21
 562 272 562 272 604 255 c 128,-1,22
 646 238 646 238 672 208 c 0,23,24
 704 172 704 172 704 128 c 128,-1,25
 704 84 704 84 672 48 c 0,26,27
 646 18 646 18 604 1 c 128,-1,28
 562 -16 562 -16 512 -16 c 128,-1,29
 462 -16 462 -16 420 1 c 128,-1,30
 378 18 378 18 352 48 c 0,31,16
 320 84 320 84 320 128 c 128,-1,17
EndSplineSet
EndChar

StartChar: semicolon
Encoding: 59 59 30
Width: 1024
GlyphClass: 2
Flags: W
LayerCount: 2
Fore
SplineSet
320 128 m 128,-1,1
 320 172 320 172 352 208 c 0,2,3
 378 238 378 238 420 255 c 128,-1,4
 462 272 462 272 512 272 c 128,-1,5
 562 272 562 272 604 255 c 128,-1,6
 646 238 646 238 672 208 c 0,7,8
 704 172 704 172 704 128 c 0,9,10
 704 52 704 52 671.5 -30 c 128,-1,11
 639 -112 639 -112 575 -199 c 0,12,13
 538 -249 538 -249 491.5 -298.5 c 128,-1,14
 445 -348 445 -348 427.5 -363.5 c 128,-1,15
 410 -379 410 -379 399 -389 c 0,16,17
 385 -400 385 -400 368 -400 c 0,18,19
 348 -400 348 -400 334 -386 c 128,-1,20
 320 -372 320 -372 320 -352 c 0,21,22
 320 -330 320 -330 337 -315 c 0,23,24
 347 -307 347 -307 363 -293 c 128,-1,25
 379 -279 379 -279 421 -233.5 c 128,-1,26
 463 -188 463 -188 497 -142 c 0,27,28
 549 -73 549 -73 577 -8 c 1,29,30
 546 -16 546 -16 512 -16 c 0,31,32
 462 -16 462 -16 420 1 c 128,-1,33
 378 18 378 18 352 48 c 0,34,0
 320 84 320 84 320 128 c 128,-1,1
320 688 m 128,-1,36
 320 732 320 732 352 768 c 0,37,38
 378 798 378 798 420 815 c 128,-1,39
 462 832 462 832 512 832 c 128,-1,40
 562 832 562 832 604 815 c 128,-1,41
 646 798 646 798 672 768 c 0,42,43
 704 732 704 732 704 688 c 128,-1,44
 704 644 704 644 672 608 c 0,45,46
 646 578 646 578 604 561 c 128,-1,47
 562 544 562 544 512 544 c 128,-1,48
 462 544 462 544 420 561 c 128,-1,49
 378 578 378 578 352 608 c 0,50,35
 320 644 320 644 320 688 c 128,-1,36
EndSplineSet
EndChar

StartChar: less
Encoding: 60 60 31
Width: 1024
GlyphClass: 2
Flags: W
LayerCount: 2
Fore
SplineSet
880 1104 m 0,0,1
 900 1104 900 1104 914 1090 c 128,-1,2
 928 1076 928 1076 928 1056 c 0,3,4
 928 1028 928 1028 904 1014 c 2,5,-1
 224 624 l 1,6,-1
 904 234 l 2,7,8
 928 220 928 220 928 192 c 0,9,10
 928 172 928 172 914 158 c 128,-1,11
 900 144 900 144 880 144 c 0,12,13
 867 144 867 144 856 150 c 2,14,-1
 104 582 l 2,15,16
 80 596 80 596 80 624 c 128,-1,17
 80 652 80 652 104 666 c 2,18,-1
 856 1098 l 2,19,20
 867 1104 867 1104 880 1104 c 0,0,1
EndSplineSet
EndChar

StartChar: equal
Encoding: 61 61 32
Width: 1024
GlyphClass: 2
Flags: W
LayerCount: 2
Fore
SplineSet
144 720 m 2,0,1
 124 720 124 720 110 734 c 128,-1,2
 96 748 96 748 96 768 c 128,-1,3
 96 788 96 788 110 802 c 128,-1,4
 124 816 124 816 144 816 c 2,5,-1
 880 816 l 2,6,7
 900 816 900 816 914 802 c 128,-1,8
 928 788 928 788 928 768 c 128,-1,9
 928 748 928 748 914 734 c 128,-1,10
 900 720 900 720 880 720 c 2,11,-1
 144 720 l 2,0,1
144 432 m 2,12,13
 124 432 124 432 110 446 c 128,-1,14
 96 460 96 460 96 480 c 128,-1,15
 96 500 96 500 110 514 c 128,-1,16
 124 528 124 528 144 528 c 2,17,-1
 880 528 l 2,18,19
 900 528 900 528 914 514 c 128,-1,20
 928 500 928 500 928 480 c 128,-1,21
 928 460 928 460 914 446 c 128,-1,22
 900 432 900 432 880 432 c 2,23,-1
 144 432 l 2,12,13
EndSplineSet
EndChar

StartChar: greater
Encoding: 62 62 33
Width: 1024
GlyphClass: 2
Flags: W
LayerCount: 2
Fore
SplineSet
80 1056 m 0,0,1
 80 1076 80 1076 94 1090 c 128,-1,2
 108 1104 108 1104 128 1104 c 0,3,4
 141 1104 141 1104 152 1098 c 2,5,-1
 904 666 l 2,6,7
 928 652 928 652 928 624 c 128,-1,8
 928 596 928 596 904 582 c 2,9,-1
 152 150 l 2,10,11
 141 144 141 144 128 144 c 0,12,13
 108 144 108 144 94 158 c 128,-1,14
 80 172 80 172 80 192 c 0,15,16
 80 220 80 220 104 234 c 2,17,-1
 784 624 l 1,18,-1
 104 1014 l 2,19,20
 80 1028 80 1028 80 1056 c 0,0,1
EndSplineSet
EndChar

StartChar: question
Encoding: 63 63 34
Width: 1024
GlyphClass: 2
Flags: W
LayerCount: 2
Fore
SplineSet
96 960 m 2,0,-1
 96 1008 l 2,1,2
 96 1085 96 1085 161 1148 c 0,3,4
 211 1196 211 1196 292 1226 c 0,5,6
 392 1264 392 1264 512 1264 c 128,-1,7
 632 1264 632 1264 732 1226 c 0,8,9
 813 1196 813 1196 863 1148 c 0,10,11
 928 1085 928 1085 928 1008 c 0,12,13
 928 929 928 929 883 877 c 0,14,15
 851 841 851 841 768 803 c 0,16,17
 734 787 734 787 717 778 c 0,18,19
 686 760 686 760 669.5 750 c 128,-1,20
 653 740 653 740 633.5 721 c 128,-1,21
 614 702 614 702 600 680 c 0,22,23
 560 611 560 611 560 481 c 0,24,25
 560 461 560 461 546 447 c 128,-1,26
 532 433 532 433 512 433 c 128,-1,27
 492 433 492 433 478 447 c 128,-1,28
 464 461 464 461 464 481 c 0,29,30
 464 637 464 637 517 728 c 0,31,32
 533 754 533 754 551.5 775.5 c 128,-1,33
 570 797 570 797 594.5 814.5 c 128,-1,34
 619 832 619 832 632 840 c 128,-1,35
 645 848 645 848 673 863 c 0,36,37
 689 872 689 872 727.5 889.5 c 128,-1,38
 766 907 766 907 783 917 c 0,39,40
 801 928 801 928 811 940 c 0,41,42
 832 964 832 964 832 1008 c 0,43,44
 832 1044 832 1044 796 1078 c 0,45,46
 753 1120 753 1120 676.5 1144 c 128,-1,47
 600 1168 600 1168 512 1168 c 128,-1,48
 424 1168 424 1168 347.5 1144 c 128,-1,49
 271 1120 271 1120 228 1078 c 0,50,51
 215 1067 215 1067 207 1055 c 1,52,53
 242 1049 242 1049 265 1022 c 128,-1,54
 288 995 288 995 288 960 c 0,55,56
 288 920 288 920 260 892 c 128,-1,57
 232 864 232 864 192 864 c 128,-1,58
 152 864 152 864 124 892 c 128,-1,59
 96 920 96 920 96 960 c 2,0,-1
320 128 m 128,-1,61
 320 172 320 172 352 208 c 0,62,63
 378 238 378 238 420 255 c 128,-1,64
 462 272 462 272 512 272 c 128,-1,65
 562 272 562 272 604 255 c 128,-1,66
 646 238 646 238 672 208 c 0,67,68
 704 172 704 172 704 128 c 128,-1,69
 704 84 704 84 672 48 c 0,70,71
 646 18 646 18 604 1 c 128,-1,72
 562 -16 562 -16 512 -16 c 128,-1,73
 462 -16 462 -16 420 1 c 128,-1,74
 378 18 378 18 352 48 c 0,75,60
 320 84 320 84 320 128 c 128,-1,61
EndSplineSet
EndChar

StartChar: at
Encoding: 64 64 35
Width: 1024
GlyphClass: 2
Flags: W
LayerCount: 2
Fore
SplineSet
752 384 m 2,0,1
 656 384 656 384 612 451 c 1,2,3
 600 439 600 439 587 428 c 0,4,5
 516 368 516 368 440 368 c 0,6,7
 385 368 385 368 344 401 c 0,8,9
 279 453 279 453 279 556 c 0,10,11
 279 595 279 595 290 636 c 0,12,13
 319 748 319 748 405 820 c 0,14,15
 476 880 476 880 552 880 c 0,16,17
 607 880 607 880 648 847 c 0,18,19
 656 841 656 841 663 833 c 1,20,21
 668 847 668 847 680 855.5 c 128,-1,22
 692 864 692 864 707 864 c 0,23,24
 727 864 727 864 741 850 c 128,-1,25
 755 836 755 836 755 816 c 0,26,27
 755 810 755 810 754 804 c 2,28,-1
 685 546 l 2,29,30
 683 540 683 540 683 533 c 0,31,32
 683 515 683 515 693 502 c 0,33,34
 710 480 710 480 752 480 c 0,35,36
 753 480 753 480 753 480 c 2,37,38
 792 480 792 480 820 492 c 0,39,40
 854 506 854 506 875 540 c 0,41,42
 912 600 912 600 912 720 c 0,43,44
 912 893 912 893 829 1012 c 0,45,46
 771 1094 771 1094 682 1134 c 0,47,48
 606 1168 606 1168 512 1168 c 0,49,50
 407 1168 407 1168 315.5 1097 c 128,-1,51
 224 1026 224 1026 168 900 c 128,-1,52
 112 774 112 774 112 624 c 128,-1,53
 112 474 112 474 168 348 c 128,-1,54
 224 222 224 222 315.5 151 c 128,-1,55
 407 80 407 80 512 80 c 0,56,57
 634 80 634 80 735 174 c 0,58,59
 749 186 749 186 768 186 c 0,60,61
 788 186 788 186 802 172 c 128,-1,62
 816 158 816 158 816 138 c 0,63,64
 816 117 816 117 801 103 c 0,65,66
 672 -16 672 -16 512 -16 c 0,67,68
 374 -16 374 -16 257 75 c 0,69,70
 145 161 145 161 80.5 307 c 128,-1,71
 16 453 16 453 16 624 c 128,-1,72
 16 795 16 795 80.5 941 c 128,-1,73
 145 1087 145 1087 257 1173 c 0,74,75
 374 1264 374 1264 512 1264 c 0,76,77
 626 1264 626 1264 721 1222 c 0,78,79
 834 1171 834 1171 907 1067 c 0,80,81
 1008 923 1008 923 1008 720 c 0,82,83
 1008 572 1008 572 957 489 c 0,84,85
 919 429 919 429 857 403 c 0,86,87
 811 384 811 384 753 384 c 0,88,89
 752 384 752 384 752 384 c 2,0,1
375 556 m 0,90,91
 375 499 375 499 404 476 c 0,92,93
 419 464 419 464 440 464 c 0,94,95
 481 464 481 464 525 502 c 0,96,97
 588 554 588 554 610 637 c 0,98,99
 612 643 612 643 613.5 653 c 128,-1,100
 615 663 615 663 615.5 671 c 128,-1,101
 616 679 616 679 616.5 685.5 c 128,-1,102
 617 692 617 692 617 692 c 1,103,104
 617 749 617 749 588 772 c 0,105,106
 573 784 573 784 552 784 c 0,107,108
 511 784 511 784 467 746 c 0,109,110
 404 694 404 694 382 612 c 0,111,112
 375 582 375 582 375 556 c 0,90,91
EndSplineSet
EndChar

StartChar: A
Encoding: 65 65 36
Width: 1024
GlyphClass: 2
Flags: W
LayerCount: 2
Fore
SplineSet
659 512 m 1,0,-1
 512 1127 l 1,1,-1
 365 512 l 1,2,-1
 659 512 l 1,0,-1
64 0 m 2,3,4
 44 0 44 0 30 14 c 128,-1,5
 16 28 16 28 16 48 c 128,-1,6
 16 68 16 68 30 82 c 128,-1,7
 44 96 44 96 64 96 c 2,8,-1
 166 96 l 1,9,-1
 433 1211 l 2,10,11
 437 1227 437 1227 450 1237.5 c 128,-1,12
 463 1248 463 1248 480 1248 c 2,13,-1
 544 1248 l 2,14,15
 561 1248 561 1248 574 1237.5 c 128,-1,16
 587 1227 587 1227 591 1211 c 2,17,-1
 858 96 l 1,18,-1
 960 96 l 2,19,20
 980 96 980 96 994 82 c 128,-1,21
 1008 68 1008 68 1008 48 c 128,-1,22
 1008 28 1008 28 994 14 c 128,-1,23
 980 0 980 0 960 0 c 2,24,-1
 640 0 l 2,25,26
 620 0 620 0 606 14 c 128,-1,27
 592 28 592 28 592 48 c 128,-1,28
 592 68 592 68 606 82 c 128,-1,29
 620 96 620 96 640 96 c 2,30,-1
 759 96 l 1,31,-1
 682 416 l 1,32,-1
 342 416 l 1,33,-1
 265 96 l 1,34,-1
 384 96 l 2,35,36
 404 96 404 96 418 82 c 128,-1,37
 432 68 432 68 432 48 c 128,-1,38
 432 28 432 28 418 14 c 128,-1,39
 404 0 404 0 384 0 c 2,40,-1
 64 0 l 2,3,4
EndSplineSet
EndChar

StartChar: B
Encoding: 66 66 37
Width: 1024
GlyphClass: 2
Flags: W
LayerCount: 2
Fore
SplineSet
256 1152 m 1,0,-1
 96 1152 l 2,1,2
 76 1152 76 1152 62 1166 c 128,-1,3
 48 1180 48 1180 48 1200 c 128,-1,4
 48 1220 48 1220 62 1234 c 128,-1,5
 76 1248 76 1248 96 1248 c 2,6,-1
 568 1248 l 2,7,8
 697 1248 697 1248 788.5 1156.5 c 128,-1,9
 880 1065 880 1065 880 936 c 0,10,11
 880 856 880 856 842.5 787.5 c 128,-1,12
 805 719 805 719 741 676 c 1,13,14
 826 629 826 629 877 545 c 128,-1,15
 928 461 928 461 928 360 c 0,16,17
 928 211 928 211 822.5 105.5 c 128,-1,18
 717 0 717 0 568 0 c 2,19,-1
 96 0 l 2,20,21
 76 0 76 0 62 14 c 128,-1,22
 48 28 48 28 48 48 c 128,-1,23
 48 68 48 68 62 82 c 128,-1,24
 76 96 76 96 96 96 c 2,25,-1
 256 96 l 1,26,-1
 256 1152 l 1,0,-1
352 624 m 1,27,-1
 352 96 l 1,28,-1
 568 96 l 2,29,30
 677 96 677 96 754.5 173.5 c 128,-1,31
 832 251 832 251 832 360 c 128,-1,32
 832 469 832 469 754.5 546.5 c 128,-1,33
 677 624 677 624 568 624 c 2,34,-1
 352 624 l 1,27,-1
568 720 m 2,35,36
 658 720 658 720 721 783 c 128,-1,37
 784 846 784 846 784 936 c 128,-1,38
 784 1026 784 1026 721 1089 c 128,-1,39
 658 1152 658 1152 568 1152 c 2,40,-1
 352 1152 l 1,41,-1
 352 720 l 1,42,-1
 568 720 l 2,35,36
EndSplineSet
EndChar

StartChar: C
Encoding: 67 67 38
Width: 1024
GlyphClass: 2
Flags: W
LayerCount: 2
Fore
SplineSet
896 816 m 2,0,1
 896 796 896 796 882 782 c 128,-1,2
 868 768 868 768 848 768 c 128,-1,3
 828 768 828 768 814 782 c 128,-1,4
 800 796 800 796 800 816 c 2,5,-1
 800 859 l 1,6,7
 773 953 773 953 727 1023.5 c 128,-1,8
 681 1094 681 1094 626 1131 c 128,-1,9
 571 1168 571 1168 512 1168 c 0,10,11
 492 1168 492 1168 478 1182 c 128,-1,12
 464 1196 464 1196 464 1216 c 128,-1,13
 464 1236 464 1236 478 1250 c 128,-1,14
 492 1264 492 1264 512 1264 c 0,15,16
 600 1264 600 1264 679 1211 c 0,17,18
 747 1166 747 1166 800 1088 c 1,19,-1
 800 1200 l 2,20,21
 800 1220 800 1220 814 1234 c 128,-1,22
 828 1248 828 1248 848 1248 c 128,-1,23
 868 1248 868 1248 882 1234 c 128,-1,24
 896 1220 896 1220 896 1200 c 2,25,-1
 896 866 l 1,26,27
 896 866 896 866 896 865 c 2,28,-1
 896 816 l 2,0,1
832 432 m 0,29,30
 832 452 832 452 846 466 c 128,-1,31
 860 480 860 480 880 480 c 128,-1,32
 900 480 900 480 914 466 c 128,-1,33
 928 452 928 452 928 432 c 0,34,35
 928 312 928 312 873 209 c 128,-1,36
 818 106 818 106 722 45 c 128,-1,37
 626 -16 626 -16 512 -16 c 0,38,39
 492 -16 492 -16 478 -2 c 128,-1,40
 464 12 464 12 464 32 c 128,-1,41
 464 52 464 52 478 66 c 128,-1,42
 492 80 492 80 512 80 c 0,43,44
 643 80 643 80 737.5 182.5 c 128,-1,45
 832 285 832 285 832 432 c 0,29,30
512 80 m 0,46,47
 532 80 532 80 546 66 c 128,-1,48
 560 52 560 52 560 32 c 128,-1,49
 560 12 560 12 546 -2 c 128,-1,50
 532 -16 532 -16 512 -16 c 0,51,52
 437 -16 437 -16 375 8 c 0,53,54
 199 74 199 74 133 312 c 0,55,56
 96 445 96 445 96 624 c 0,57,58
 96 988 96 988 243 1149 c 0,59,60
 299 1212 299 1212 375 1240 c 0,61,62
 437 1264 437 1264 512 1264 c 0,63,64
 532 1264 532 1264 546 1250 c 128,-1,65
 560 1236 560 1236 560 1216 c 128,-1,66
 560 1196 560 1196 546 1182 c 128,-1,67
 532 1168 532 1168 512 1168 c 0,68,69
 455 1168 455 1168 409 1150 c 0,70,71
 354 1130 354 1130 314 1085 c 0,72,73
 192 951 192 951 192 624 c 128,-1,74
 192 297 192 297 314 163 c 0,75,76
 354 118 354 118 409 98 c 0,77,78
 455 80 455 80 512 80 c 0,46,47
EndSplineSet
EndChar

StartChar: D
Encoding: 68 68 39
Width: 1024
GlyphClass: 2
Flags: W
LayerCount: 2
Fore
SplineSet
96 1152 m 2,0,1
 76 1152 76 1152 62 1166 c 128,-1,2
 48 1180 48 1180 48 1200 c 128,-1,3
 48 1220 48 1220 62 1234 c 128,-1,4
 76 1248 76 1248 96 1248 c 2,5,-1
 512 1248 l 2,6,7
 601 1248 601 1248 677 1206 c 0,8,9
 786 1145 786 1145 851 1007 c 0,10,11
 928 846 928 846 928 624 c 128,-1,12
 928 402 928 402 851 241 c 0,13,14
 786 103 786 103 677 42 c 0,15,16
 601 0 601 0 512 0 c 2,17,-1
 96 0 l 2,18,19
 76 0 76 0 62 14 c 128,-1,20
 48 28 48 28 48 48 c 128,-1,21
 48 68 48 68 62 82 c 128,-1,22
 76 96 76 96 96 96 c 2,23,-1
 256 96 l 1,24,-1
 256 1152 l 1,25,-1
 96 1152 l 2,0,1
352 1152 m 1,26,-1
 352 96 l 1,27,-1
 512 96 l 2,28,29
 576 96 576 96 630 126 c 0,30,31
 712 172 712 172 765 282 c 0,32,33
 832 423 832 423 832 624 c 128,-1,34
 832 825 832 825 765 966 c 0,35,36
 712 1076 712 1076 630 1122 c 0,37,38
 576 1152 576 1152 512 1152 c 2,39,-1
 352 1152 l 1,26,-1
EndSplineSet
EndChar

StartChar: E
Encoding: 69 69 40
Width: 1024
GlyphClass: 2
Flags: W
LayerCount: 2
Fore
SplineSet
928 48 m 2,0,1
 928 28 928 28 914 14 c 128,-1,2
 900 0 900 0 880 0 c 2,3,-1
 96 0 l 2,4,5
 76 0 76 0 62 14 c 128,-1,6
 48 28 48 28 48 48 c 128,-1,7
 48 68 48 68 62 82 c 128,-1,8
 76 96 76 96 96 96 c 2,9,-1
 256 96 l 1,10,-1
 256 1152 l 1,11,-1
 96 1152 l 2,12,13
 76 1152 76 1152 62 1166 c 128,-1,14
 48 1180 48 1180 48 1200 c 128,-1,15
 48 1220 48 1220 62 1234 c 128,-1,16
 76 1248 76 1248 96 1248 c 2,17,-1
 864 1248 l 2,18,19
 884 1248 884 1248 898 1234 c 128,-1,20
 912 1220 912 1220 912 1200 c 2,21,-1
 912 864 l 2,22,23
 912 844 912 844 898 830 c 128,-1,24
 884 816 884 816 864 816 c 128,-1,25
 844 816 844 816 830 830 c 128,-1,26
 816 844 816 844 816 864 c 2,27,-1
 816 1152 l 1,28,-1
 352 1152 l 1,29,-1
 352 720 l 1,30,-1
 560 720 l 1,31,-1
 560 864 l 2,32,33
 560 884 560 884 574 898 c 128,-1,34
 588 912 588 912 608 912 c 128,-1,35
 628 912 628 912 642 898 c 128,-1,36
 656 884 656 884 656 864 c 2,37,-1
 656 480 l 2,38,39
 656 460 656 460 642 446 c 128,-1,40
 628 432 628 432 608 432 c 128,-1,41
 588 432 588 432 574 446 c 128,-1,42
 560 460 560 460 560 480 c 2,43,-1
 560 624 l 1,44,-1
 352 624 l 1,45,-1
 352 96 l 1,46,-1
 832 96 l 1,47,-1
 832 384 l 2,48,49
 832 404 832 404 846 418 c 128,-1,50
 860 432 860 432 880 432 c 128,-1,51
 900 432 900 432 914 418 c 128,-1,52
 928 404 928 404 928 384 c 2,53,-1
 928 48 l 2,0,1
EndSplineSet
EndChar

StartChar: F
Encoding: 70 70 41
Width: 1024
GlyphClass: 2
Flags: W
LayerCount: 2
Fore
SplineSet
656 480 m 2,0,1
 656 460 656 460 642 446 c 128,-1,2
 628 432 628 432 608 432 c 128,-1,3
 588 432 588 432 574 446 c 128,-1,4
 560 460 560 460 560 480 c 2,5,-1
 560 624 l 1,6,-1
 352 624 l 1,7,-1
 352 96 l 1,8,-1
 512 96 l 2,9,10
 532 96 532 96 546 82 c 128,-1,11
 560 68 560 68 560 48 c 128,-1,12
 560 28 560 28 546 14 c 128,-1,13
 532 0 532 0 512 0 c 2,14,-1
 96 0 l 2,15,16
 76 0 76 0 62 14 c 128,-1,17
 48 28 48 28 48 48 c 128,-1,18
 48 68 48 68 62 82 c 128,-1,19
 76 96 76 96 96 96 c 2,20,-1
 256 96 l 1,21,-1
 256 1152 l 1,22,-1
 96 1152 l 2,23,24
 76 1152 76 1152 62 1166 c 128,-1,25
 48 1180 48 1180 48 1200 c 128,-1,26
 48 1220 48 1220 62 1234 c 128,-1,27
 76 1248 76 1248 96 1248 c 2,28,-1
 880 1248 l 2,29,30
 900 1248 900 1248 914 1234 c 128,-1,31
 928 1220 928 1220 928 1200 c 2,32,-1
 928 864 l 2,33,34
 928 844 928 844 914 830 c 128,-1,35
 900 816 900 816 880 816 c 128,-1,36
 860 816 860 816 846 830 c 128,-1,37
 832 844 832 844 832 864 c 2,38,-1
 832 1152 l 1,39,-1
 352 1152 l 1,40,-1
 352 720 l 1,41,-1
 560 720 l 1,42,-1
 560 864 l 2,43,44
 560 884 560 884 574 898 c 128,-1,45
 588 912 588 912 608 912 c 128,-1,46
 628 912 628 912 642 898 c 128,-1,47
 656 884 656 884 656 864 c 2,48,-1
 656 480 l 2,0,1
EndSplineSet
EndChar

StartChar: G
Encoding: 71 71 42
Width: 1024
GlyphClass: 2
Flags: W
LayerCount: 2
Fore
SplineSet
656 528 m 2,0,1
 636 528 636 528 622 542 c 128,-1,2
 608 556 608 556 608 576 c 128,-1,3
 608 596 608 596 622 610 c 128,-1,4
 636 624 636 624 656 624 c 2,5,-1
 976 624 l 2,6,7
 996 624 996 624 1010 610 c 128,-1,8
 1024 596 1024 596 1024 576 c 128,-1,9
 1024 556 1024 556 1010 542 c 128,-1,10
 996 528 996 528 976 528 c 2,11,-1
 896 528 l 1,12,-1
 896 383 l 1,13,14
 896 383 896 383 896 382 c 1,15,16
 896 382 896 382 896 382 c 1,17,-1
 896 48 l 2,18,19
 896 28 896 28 882 14 c 128,-1,20
 868 0 868 0 848 0 c 128,-1,21
 828 0 828 0 814 14 c 128,-1,22
 800 28 800 28 800 48 c 2,23,-1
 800 146 l 1,24,25
 750 70 750 70 683 30 c 0,26,27
 608 -16 608 -16 512 -16 c 0,28,29
 492 -16 492 -16 478 -2 c 128,-1,30
 464 12 464 12 464 32 c 128,-1,31
 464 52 464 52 478 66 c 128,-1,32
 492 80 492 80 512 80 c 0,33,34
 581 80 581 80 634 112 c 0,35,36
 673 136 673 136 706 180 c 0,37,38
 762 254 762 254 800 389 c 1,39,-1
 800 528 l 1,40,-1
 656 528 l 2,0,1
800 1200 m 2,41,42
 800 1220 800 1220 814 1234 c 128,-1,43
 828 1248 828 1248 848 1248 c 128,-1,44
 868 1248 868 1248 882 1234 c 128,-1,45
 896 1220 896 1220 896 1200 c 2,46,-1
 896 866 l 1,47,48
 896 866 896 866 896 865 c 2,49,-1
 896 816 l 2,50,51
 896 796 896 796 882 782 c 128,-1,52
 868 768 868 768 848 768 c 128,-1,53
 828 768 828 768 814 782 c 128,-1,54
 800 796 800 796 800 816 c 2,55,-1
 800 859 l 1,56,57
 762 994 762 994 706 1068 c 0,58,59
 673 1112 673 1112 634 1136 c 0,60,61
 581 1168 581 1168 512 1168 c 0,62,63
 492 1168 492 1168 478 1182 c 128,-1,64
 464 1196 464 1196 464 1216 c 128,-1,65
 464 1236 464 1236 478 1250 c 128,-1,66
 492 1264 492 1264 512 1264 c 0,67,68
 608 1264 608 1264 683 1218 c 0,69,70
 750 1178 750 1178 800 1102 c 1,71,-1
 800 1200 l 2,41,42
512 80 m 0,72,73
 532 80 532 80 546 66 c 128,-1,74
 560 52 560 52 560 32 c 128,-1,75
 560 12 560 12 546 -2 c 128,-1,76
 532 -16 532 -16 512 -16 c 0,77,78
 437 -16 437 -16 375 8 c 0,79,80
 199 74 199 74 133 312 c 0,81,82
 96 445 96 445 96 624 c 0,83,84
 96 988 96 988 243 1149 c 0,85,86
 299 1212 299 1212 375 1240 c 0,87,88
 437 1264 437 1264 512 1264 c 0,89,90
 532 1264 532 1264 546 1250 c 128,-1,91
 560 1236 560 1236 560 1216 c 128,-1,92
 560 1196 560 1196 546 1182 c 128,-1,93
 532 1168 532 1168 512 1168 c 0,94,95
 455 1168 455 1168 409 1150 c 0,96,97
 354 1130 354 1130 314 1085 c 0,98,99
 192 951 192 951 192 624 c 128,-1,100
 192 297 192 297 314 163 c 0,101,102
 354 118 354 118 409 98 c 0,103,104
 455 80 455 80 512 80 c 0,72,73
EndSplineSet
EndChar

StartChar: H
Encoding: 72 72 43
Width: 1024
GlyphClass: 2
Flags: W
LayerCount: 2
Fore
SplineSet
608 1152 m 2,0,1
 588 1152 588 1152 574 1166 c 128,-1,2
 560 1180 560 1180 560 1200 c 128,-1,3
 560 1220 560 1220 574 1234 c 128,-1,4
 588 1248 588 1248 608 1248 c 2,5,-1
 928 1248 l 2,6,7
 948 1248 948 1248 962 1234 c 128,-1,8
 976 1220 976 1220 976 1200 c 128,-1,9
 976 1180 976 1180 962 1166 c 128,-1,10
 948 1152 948 1152 928 1152 c 2,11,-1
 816 1152 l 1,12,-1
 816 96 l 1,13,-1
 928 96 l 2,14,15
 948 96 948 96 962 82 c 128,-1,16
 976 68 976 68 976 48 c 128,-1,17
 976 28 976 28 962 14 c 128,-1,18
 948 0 948 0 928 0 c 2,19,-1
 608 0 l 2,20,21
 588 0 588 0 574 14 c 128,-1,22
 560 28 560 28 560 48 c 128,-1,23
 560 68 560 68 574 82 c 128,-1,24
 588 96 588 96 608 96 c 2,25,-1
 720 96 l 1,26,-1
 720 624 l 1,27,-1
 304 624 l 1,28,-1
 304 96 l 1,29,-1
 416 96 l 2,30,31
 436 96 436 96 450 82 c 128,-1,32
 464 68 464 68 464 48 c 128,-1,33
 464 28 464 28 450 14 c 128,-1,34
 436 0 436 0 416 0 c 2,35,-1
 96 0 l 2,36,37
 76 0 76 0 62 14 c 128,-1,38
 48 28 48 28 48 48 c 128,-1,39
 48 68 48 68 62 82 c 128,-1,40
 76 96 76 96 96 96 c 2,41,-1
 208 96 l 1,42,-1
 208 1152 l 1,43,-1
 96 1152 l 2,44,45
 76 1152 76 1152 62 1166 c 128,-1,46
 48 1180 48 1180 48 1200 c 128,-1,47
 48 1220 48 1220 62 1234 c 128,-1,48
 76 1248 76 1248 96 1248 c 2,49,-1
 416 1248 l 2,50,51
 436 1248 436 1248 450 1234 c 128,-1,52
 464 1220 464 1220 464 1200 c 128,-1,53
 464 1180 464 1180 450 1166 c 128,-1,54
 436 1152 436 1152 416 1152 c 2,55,-1
 304 1152 l 1,56,-1
 304 720 l 1,57,-1
 720 720 l 1,58,-1
 720 1152 l 1,59,-1
 608 1152 l 2,0,1
EndSplineSet
EndChar

StartChar: I
Encoding: 73 73 44
Width: 1024
GlyphClass: 2
Flags: W
LayerCount: 2
Fore
SplineSet
208 0 m 2,0,1
 188 0 188 0 174 14 c 128,-1,2
 160 28 160 28 160 48 c 128,-1,3
 160 68 160 68 174 82 c 128,-1,4
 188 96 188 96 208 96 c 2,5,-1
 464 96 l 1,6,-1
 464 1152 l 1,7,-1
 208 1152 l 2,8,9
 188 1152 188 1152 174 1166 c 128,-1,10
 160 1180 160 1180 160 1200 c 128,-1,11
 160 1220 160 1220 174 1234 c 128,-1,12
 188 1248 188 1248 208 1248 c 2,13,-1
 816 1248 l 2,14,15
 836 1248 836 1248 850 1234 c 128,-1,16
 864 1220 864 1220 864 1200 c 128,-1,17
 864 1180 864 1180 850 1166 c 128,-1,18
 836 1152 836 1152 816 1152 c 2,19,-1
 560 1152 l 1,20,-1
 560 96 l 1,21,-1
 816 96 l 2,22,23
 836 96 836 96 850 82 c 128,-1,24
 864 68 864 68 864 48 c 128,-1,25
 864 28 864 28 850 14 c 128,-1,26
 836 0 836 0 816 0 c 2,27,-1
 208 0 l 2,0,1
EndSplineSet
EndChar

StartChar: J
Encoding: 74 74 45
Width: 1024
GlyphClass: 2
Flags: W
LayerCount: 2
Fore
SplineSet
384 1152 m 2,0,1
 364 1152 364 1152 350 1166 c 128,-1,2
 336 1180 336 1180 336 1200 c 128,-1,3
 336 1220 336 1220 350 1234 c 128,-1,4
 364 1248 364 1248 384 1248 c 2,5,-1
 928 1248 l 2,6,7
 948 1248 948 1248 962 1234 c 128,-1,8
 976 1220 976 1220 976 1200 c 128,-1,9
 976 1180 976 1180 962 1166 c 128,-1,10
 948 1152 948 1152 928 1152 c 2,11,-1
 704 1152 l 1,12,-1
 704 288 l 2,13,14
 704 162 704 162 615 73 c 128,-1,15
 526 -16 526 -16 400 -16 c 128,-1,16
 274 -16 274 -16 185 73 c 128,-1,17
 96 162 96 162 96 288 c 2,18,-1
 96 336 l 2,19,20
 96 376 96 376 124 404 c 128,-1,21
 152 432 152 432 192 432 c 128,-1,22
 232 432 232 432 260 404 c 128,-1,23
 288 376 288 376 288 336 c 0,24,25
 288 298 288 298 261.5 270 c 128,-1,26
 235 242 235 242 198 240 c 1,27,28
 214 171 214 171 270.5 125.5 c 128,-1,29
 327 80 327 80 400 80 c 0,30,31
 486 80 486 80 547 141 c 128,-1,32
 608 202 608 202 608 288 c 2,33,-1
 608 1152 l 1,34,-1
 384 1152 l 2,0,1
EndSplineSet
EndChar

StartChar: K
Encoding: 75 75 46
Width: 1024
GlyphClass: 2
Flags: W
LayerCount: 2
Fore
SplineSet
416 96 m 2,0,1
 436 96 436 96 450 82 c 128,-1,2
 464 68 464 68 464 48 c 128,-1,3
 464 28 464 28 450 14 c 128,-1,4
 436 0 436 0 416 0 c 2,5,-1
 96 0 l 2,6,7
 76 0 76 0 62 14 c 128,-1,8
 48 28 48 28 48 48 c 128,-1,9
 48 68 48 68 62 82 c 128,-1,10
 76 96 76 96 96 96 c 2,11,-1
 208 96 l 1,12,-1
 208 1152 l 1,13,-1
 96 1152 l 2,14,15
 76 1152 76 1152 62 1166 c 128,-1,16
 48 1180 48 1180 48 1200 c 128,-1,17
 48 1220 48 1220 62 1234 c 128,-1,18
 76 1248 76 1248 96 1248 c 2,19,-1
 416 1248 l 2,20,21
 436 1248 436 1248 450 1234 c 128,-1,22
 464 1220 464 1220 464 1200 c 128,-1,23
 464 1180 464 1180 450 1166 c 128,-1,24
 436 1152 436 1152 416 1152 c 2,25,-1
 304 1152 l 1,26,-1
 304 650 l 1,27,-1
 698 1152 l 1,28,-1
 592 1152 l 2,29,30
 572 1152 572 1152 558 1166 c 128,-1,31
 544 1180 544 1180 544 1200 c 128,-1,32
 544 1220 544 1220 558 1234 c 128,-1,33
 572 1248 572 1248 592 1248 c 2,34,-1
 912 1248 l 2,35,36
 932 1248 932 1248 946 1234 c 128,-1,37
 960 1220 960 1220 960 1200 c 128,-1,38
 960 1180 960 1180 946 1166 c 128,-1,39
 932 1152 932 1152 912 1152 c 2,40,-1
 820 1152 l 1,41,-1
 489 730 l 1,42,-1
 845 96 l 1,43,-1
 944 96 l 2,44,45
 964 96 964 96 978 82 c 128,-1,46
 992 68 992 68 992 48 c 128,-1,47
 992 28 992 28 978 14 c 128,-1,48
 964 0 964 0 944 0 c 2,49,-1
 624 0 l 2,50,51
 604 0 604 0 590 14 c 128,-1,52
 576 28 576 28 576 48 c 128,-1,53
 576 68 576 68 590 82 c 128,-1,54
 604 96 604 96 624 96 c 2,55,-1
 735 96 l 1,56,-1
 425 648 l 1,57,-1
 304 494 l 1,58,-1
 304 96 l 1,59,-1
 416 96 l 2,0,1
EndSplineSet
EndChar

StartChar: L
Encoding: 76 76 47
Width: 1024
GlyphClass: 2
Flags: W
LayerCount: 2
Fore
SplineSet
928 48 m 2,0,1
 928 28 928 28 914 14 c 128,-1,2
 900 0 900 0 880 0 c 2,3,-1
 96 0 l 2,4,5
 76 0 76 0 62 14 c 128,-1,6
 48 28 48 28 48 48 c 128,-1,7
 48 68 48 68 62 82 c 128,-1,8
 76 96 76 96 96 96 c 2,9,-1
 256 96 l 1,10,-1
 256 1152 l 1,11,-1
 96 1152 l 2,12,13
 76 1152 76 1152 62 1166 c 128,-1,14
 48 1180 48 1180 48 1200 c 128,-1,15
 48 1220 48 1220 62 1234 c 128,-1,16
 76 1248 76 1248 96 1248 c 2,17,-1
 544 1248 l 2,18,19
 564 1248 564 1248 578 1234 c 128,-1,20
 592 1220 592 1220 592 1200 c 128,-1,21
 592 1180 592 1180 578 1166 c 128,-1,22
 564 1152 564 1152 544 1152 c 2,23,-1
 352 1152 l 1,24,-1
 352 96 l 1,25,-1
 832 96 l 1,26,-1
 832 432 l 2,27,28
 832 452 832 452 846 466 c 128,-1,29
 860 480 860 480 880 480 c 128,-1,30
 900 480 900 480 914 466 c 128,-1,31
 928 452 928 452 928 432 c 2,32,-1
 928 48 l 2,0,1
EndSplineSet
EndChar

StartChar: M
Encoding: 77 77 48
Width: 1024
GlyphClass: 2
Flags: W
LayerCount: 2
Fore
SplineSet
944 1248 m 2,0,1
 964 1248 964 1248 978 1234 c 128,-1,2
 992 1220 992 1220 992 1200 c 128,-1,3
 992 1180 992 1180 978 1166 c 128,-1,4
 964 1152 964 1152 944 1152 c 2,5,-1
 864 1152 l 1,6,-1
 864 96 l 1,7,-1
 944 96 l 2,8,9
 964 96 964 96 978 82 c 128,-1,10
 992 68 992 68 992 48 c 128,-1,11
 992 28 992 28 978 14 c 128,-1,12
 964 0 964 0 944 0 c 2,13,-1
 656 0 l 2,14,15
 636 0 636 0 622 14 c 128,-1,16
 608 28 608 28 608 48 c 128,-1,17
 608 68 608 68 622 82 c 128,-1,18
 636 96 636 96 656 96 c 2,19,-1
 768 96 l 1,20,-1
 768 1090 l 1,21,-1
 558 418 l 2,22,23
 553 403 553 403 540.5 393.5 c 128,-1,24
 528 384 528 384 512 384 c 128,-1,25
 496 384 496 384 483.5 393.5 c 128,-1,26
 471 403 471 403 466 418 c 2,27,-1
 256 1090 l 1,28,-1
 256 96 l 1,29,-1
 368 96 l 2,30,31
 388 96 388 96 402 82 c 128,-1,32
 416 68 416 68 416 48 c 128,-1,33
 416 28 416 28 402 14 c 128,-1,34
 388 0 388 0 368 0 c 2,35,-1
 80 0 l 2,36,37
 60 0 60 0 46 14 c 128,-1,38
 32 28 32 28 32 48 c 128,-1,39
 32 68 32 68 46 82 c 128,-1,40
 60 96 60 96 80 96 c 2,41,-1
 160 96 l 1,42,-1
 160 1152 l 1,43,-1
 80 1152 l 2,44,45
 60 1152 60 1152 46 1166 c 128,-1,46
 32 1180 32 1180 32 1200 c 128,-1,47
 32 1220 32 1220 46 1234 c 128,-1,48
 60 1248 60 1248 80 1248 c 2,49,-1
 272 1248 l 2,50,51
 288 1248 288 1248 300.5 1238.5 c 128,-1,52
 313 1229 313 1229 318 1214 c 2,53,-1
 512 593 l 1,54,-1
 706 1214 l 2,55,56
 711 1229 711 1229 723.5 1238.5 c 128,-1,57
 736 1248 736 1248 752 1248 c 2,58,-1
 944 1248 l 2,0,1
EndSplineSet
EndChar

StartChar: N
Encoding: 78 78 49
Width: 1024
GlyphClass: 2
Flags: W
LayerCount: 2
Fore
SplineSet
608 1152 m 2,0,1
 588 1152 588 1152 574 1166 c 128,-1,2
 560 1180 560 1180 560 1200 c 128,-1,3
 560 1220 560 1220 574 1234 c 128,-1,4
 588 1248 588 1248 608 1248 c 2,5,-1
 928 1248 l 2,6,7
 948 1248 948 1248 962 1234 c 128,-1,8
 976 1220 976 1220 976 1200 c 128,-1,9
 976 1180 976 1180 962 1166 c 128,-1,10
 948 1152 948 1152 928 1152 c 2,11,-1
 816 1152 l 1,12,-1
 816 48 l 2,13,14
 816 33 816 33 808 21 c 0,15,16
 793 0 793 0 768 0 c 0,17,18
 753 0 753 0 741 8.5 c 128,-1,19
 729 17 729 17 723 30 c 2,20,-1
 304 1072 l 1,21,-1
 304 96 l 1,22,-1
 416 96 l 2,23,24
 436 96 436 96 450 82 c 128,-1,25
 464 68 464 68 464 48 c 128,-1,26
 464 28 464 28 450 14 c 128,-1,27
 436 0 436 0 416 0 c 2,28,-1
 96 0 l 2,29,30
 76 0 76 0 62 14 c 128,-1,31
 48 28 48 28 48 48 c 128,-1,32
 48 68 48 68 62 82 c 128,-1,33
 76 96 76 96 96 96 c 2,34,-1
 208 96 l 1,35,-1
 208 1152 l 1,36,-1
 96 1152 l 2,37,38
 76 1152 76 1152 62 1166 c 128,-1,39
 48 1180 48 1180 48 1200 c 128,-1,40
 48 1220 48 1220 62 1234 c 128,-1,41
 76 1248 76 1248 96 1248 c 2,42,-1
 304 1248 l 2,43,44
 319 1248 319 1248 331 1240 c 128,-1,45
 343 1232 343 1232 348 1218 c 2,46,-1
 720 296 l 1,47,-1
 720 1152 l 1,48,-1
 608 1152 l 2,0,1
EndSplineSet
EndChar

StartChar: P
Encoding: 80 80 51
Width: 1024
GlyphClass: 2
Flags: W
LayerCount: 2
Fore
SplineSet
352 1152 m 1,0,-1
 352 672 l 1,1,-1
 592 672 l 2,2,3
 691 672 691 672 761.5 742.5 c 128,-1,4
 832 813 832 813 832 912 c 128,-1,5
 832 1011 832 1011 761.5 1081.5 c 128,-1,6
 691 1152 691 1152 592 1152 c 2,7,-1
 352 1152 l 1,0,-1
96 0 m 2,8,9
 76 0 76 0 62 14 c 128,-1,10
 48 28 48 28 48 48 c 128,-1,11
 48 68 48 68 62 82 c 128,-1,12
 76 96 76 96 96 96 c 2,13,-1
 256 96 l 1,14,-1
 256 1152 l 1,15,-1
 96 1152 l 2,16,17
 76 1152 76 1152 62 1166 c 128,-1,18
 48 1180 48 1180 48 1200 c 128,-1,19
 48 1220 48 1220 62 1234 c 128,-1,20
 76 1248 76 1248 96 1248 c 2,21,-1
 592 1248 l 2,22,23
 731 1248 731 1248 829.5 1149.5 c 128,-1,24
 928 1051 928 1051 928 912 c 128,-1,25
 928 773 928 773 829.5 674.5 c 128,-1,26
 731 576 731 576 592 576 c 2,27,-1
 352 576 l 1,28,-1
 352 96 l 1,29,-1
 576 96 l 2,30,31
 596 96 596 96 610 82 c 128,-1,32
 624 68 624 68 624 48 c 128,-1,33
 624 28 624 28 610 14 c 128,-1,34
 596 0 596 0 576 0 c 2,35,-1
 96 0 l 2,8,9
EndSplineSet
EndChar

StartChar: Q
Encoding: 81 81 52
Width: 1024
GlyphClass: 2
Flags: W
LayerCount: 2
Fore
SplineSet
321 80 m 0,0,1
 301 80 301 80 287 94 c 128,-1,2
 273 108 273 108 273 128 c 0,3,4
 273 130 273 130 273 133 c 0,5,6
 281 212 281 212 340.5 266 c 128,-1,7
 400 320 400 320 480 320 c 0,8,9
 566 320 566 320 627 259 c 128,-1,10
 688 198 688 198 688 112 c 2,11,-1
 688 -112 l 2,12,13
 688 -145 688 -145 711.5 -168.5 c 128,-1,14
 735 -192 735 -192 768 -192 c 128,-1,15
 801 -192 801 -192 824.5 -168.5 c 128,-1,16
 848 -145 848 -145 848 -112 c 0,17,18
 848 -92 848 -92 862 -78 c 128,-1,19
 876 -64 876 -64 896 -64 c 128,-1,20
 916 -64 916 -64 930 -78 c 128,-1,21
 944 -92 944 -92 944 -112 c 0,22,23
 944 -185 944 -185 892.5 -236.5 c 128,-1,24
 841 -288 841 -288 768 -288 c 128,-1,25
 695 -288 695 -288 643.5 -236.5 c 128,-1,26
 592 -185 592 -185 592 -112 c 2,27,-1
 592 112 l 2,28,29
 592 158 592 158 559 191 c 128,-1,30
 526 224 526 224 480 224 c 0,31,32
 437 224 437 224 405 195 c 128,-1,33
 373 166 373 166 369 123 c 0,34,35
 367 105 367 105 353 92.5 c 128,-1,36
 339 80 339 80 321 80 c 0,0,1
512 1168 m 0,37,38
 492 1168 492 1168 478 1182 c 128,-1,39
 464 1196 464 1196 464 1216 c 128,-1,40
 464 1236 464 1236 478 1250 c 128,-1,41
 492 1264 492 1264 512 1264 c 0,42,43
 587 1264 587 1264 649 1240 c 0,44,45
 825 1174 825 1174 891 936 c 0,46,47
 928 803 928 803 928 624 c 0,48,49
 928 260 928 260 781 99 c 0,50,51
 725 36 725 36 649 8 c 0,52,53
 587 -16 587 -16 512 -16 c 0,54,55
 492 -16 492 -16 478 -2 c 128,-1,56
 464 12 464 12 464 32 c 128,-1,57
 464 52 464 52 478 66 c 128,-1,58
 492 80 492 80 512 80 c 0,59,60
 569 80 569 80 615 98 c 0,61,62
 670 118 670 118 710 163 c 0,63,64
 832 297 832 297 832 624 c 128,-1,65
 832 951 832 951 710 1085 c 0,66,67
 670 1130 670 1130 615 1150 c 0,68,69
 569 1168 569 1168 512 1168 c 0,37,38
512 80 m 0,70,71
 532 80 532 80 546 66 c 128,-1,72
 560 52 560 52 560 32 c 128,-1,73
 560 12 560 12 546 -2 c 128,-1,74
 532 -16 532 -16 512 -16 c 0,75,76
 437 -16 437 -16 375 8 c 0,77,78
 199 74 199 74 133 312 c 0,79,80
 96 445 96 445 96 624 c 0,81,82
 96 988 96 988 243 1149 c 0,83,84
 299 1212 299 1212 375 1240 c 0,85,86
 437 1264 437 1264 512 1264 c 0,87,88
 532 1264 532 1264 546 1250 c 128,-1,89
 560 1236 560 1236 560 1216 c 128,-1,90
 560 1196 560 1196 546 1182 c 128,-1,91
 532 1168 532 1168 512 1168 c 0,92,93
 455 1168 455 1168 409 1150 c 0,94,95
 354 1130 354 1130 314 1085 c 0,96,97
 192 951 192 951 192 624 c 128,-1,98
 192 297 192 297 314 163 c 0,99,100
 354 118 354 118 409 98 c 0,101,102
 455 80 455 80 512 80 c 0,70,71
EndSplineSet
EndChar

StartChar: R
Encoding: 82 82 53
Width: 1024
GlyphClass: 2
Flags: W
LayerCount: 2
Fore
SplineSet
544 672 m 2,0,1
 643 672 643 672 713.5 742.5 c 128,-1,2
 784 813 784 813 784 912 c 128,-1,3
 784 1011 784 1011 713.5 1081.5 c 128,-1,4
 643 1152 643 1152 544 1152 c 2,5,-1
 304 1152 l 1,6,-1
 304 672 l 1,7,-1
 544 672 l 2,0,1
800 0 m 2,8,9
 780 0 780 0 766 14 c 128,-1,10
 752 28 752 28 752 48 c 2,11,-1
 752 208 l 2,12,13
 752 309 752 309 721.5 396 c 128,-1,14
 691 483 691 483 640 532 c 0,15,16
 594 576 594 576 544 576 c 2,17,-1
 304 576 l 1,18,-1
 304 96 l 1,19,-1
 448 96 l 2,20,21
 468 96 468 96 482 82 c 128,-1,22
 496 68 496 68 496 48 c 128,-1,23
 496 28 496 28 482 14 c 128,-1,24
 468 0 468 0 448 0 c 2,25,-1
 80 0 l 2,26,27
 60 0 60 0 46 14 c 128,-1,28
 32 28 32 28 32 48 c 128,-1,29
 32 68 32 68 46 82 c 128,-1,30
 60 96 60 96 80 96 c 2,31,-1
 208 96 l 1,32,-1
 208 1152 l 1,33,-1
 80 1152 l 2,34,35
 60 1152 60 1152 46 1166 c 128,-1,36
 32 1180 32 1180 32 1200 c 128,-1,37
 32 1220 32 1220 46 1234 c 128,-1,38
 60 1248 60 1248 80 1248 c 2,39,-1
 544 1248 l 2,40,41
 683 1248 683 1248 781.5 1149.5 c 128,-1,42
 880 1051 880 1051 880 912 c 0,43,44
 880 815 880 815 829.5 734.5 c 128,-1,45
 779 654 779 654 695 612 c 1,46,47
 761 555 761 555 802 456 c 0,48,49
 848 343 848 343 848 208 c 2,50,-1
 848 96 l 1,51,-1
 944 96 l 2,52,53
 964 96 964 96 978 82 c 128,-1,54
 992 68 992 68 992 48 c 128,-1,55
 992 28 992 28 978 14 c 128,-1,56
 964 0 964 0 944 0 c 2,57,-1
 800 0 l 2,8,9
EndSplineSet
EndChar

StartChar: S
Encoding: 83 83 54
Width: 1024
GlyphClass: 2
Flags: W
LayerCount: 2
Fore
SplineSet
224 400 m 2,0,1
 224 264 224 264 307 172 c 128,-1,2
 390 80 390 80 512 80 c 0,3,4
 627 80 627 80 703 135 c 0,5,6
 800 204 800 204 800 336 c 0,7,8
 800 420 800 420 754 486 c 0,9,10
 680 594 680 594 504 625 c 0,11,12
 347 652 347 652 257 737 c 0,13,14
 160 829 160 829 160 960 c 0,15,16
 160 1029 160 1029 187 1086 c 0,17,18
 219 1157 219 1157 286 1202 c 0,19,20
 379 1264 379 1264 512 1264 c 0,21,22
 657 1264 657 1264 752 1161 c 1,23,-1
 752 1200 l 2,24,25
 752 1220 752 1220 766 1234 c 128,-1,26
 780 1248 780 1248 800 1248 c 128,-1,27
 820 1248 820 1248 834 1234 c 128,-1,28
 848 1220 848 1220 848 1200 c 2,29,-1
 848 864 l 2,30,31
 848 844 848 844 834 830 c 128,-1,32
 820 816 820 816 800 816 c 128,-1,33
 780 816 780 816 766 830 c 128,-1,34
 752 844 752 844 752 864 c 2,35,-1
 752 896 l 2,36,37
 752 1001 752 1001 699 1075 c 0,38,39
 632 1168 632 1168 512 1168 c 0,40,41
 408 1168 408 1168 340 1122 c 0,42,43
 295 1092 295 1092 274 1046 c 0,44,45
 256 1008 256 1008 256 960 c 0,46,47
 256 870 256 870 323 807 c 0,48,49
 392 742 392 742 520 719 c 0,50,51
 737 681 737 681 833 541 c 0,52,53
 896 450 896 450 896 336 c 0,54,55
 896 247 896 247 860 175 c 128,-1,56
 824 103 824 103 759 56 c 0,57,58
 658 -16 658 -16 512 -16 c 0,59,60
 426 -16 426 -16 351.5 20.5 c 128,-1,61
 277 57 277 57 224 121 c 1,62,-1
 224 48 l 2,63,64
 224 28 224 28 210 14 c 128,-1,65
 196 0 196 0 176 0 c 128,-1,66
 156 0 156 0 142 14 c 128,-1,67
 128 28 128 28 128 48 c 2,68,-1
 128 432 l 2,69,70
 128 452 128 452 142 466 c 128,-1,71
 156 480 156 480 176 480 c 128,-1,72
 196 480 196 480 210 466 c 128,-1,73
 224 452 224 452 224 432 c 2,74,-1
 224 400 l 2,0,1
EndSplineSet
EndChar

StartChar: T
Encoding: 84 84 55
Width: 1024
GlyphClass: 2
Flags: W
LayerCount: 2
Fore
SplineSet
272 0 m 2,0,1
 252 0 252 0 238 14 c 128,-1,2
 224 28 224 28 224 48 c 128,-1,3
 224 68 224 68 238 82 c 128,-1,4
 252 96 252 96 272 96 c 2,5,-1
 464 96 l 1,6,-1
 464 1152 l 1,7,-1
 192 1152 l 1,8,-1
 192 816 l 2,9,10
 192 796 192 796 178 782 c 128,-1,11
 164 768 164 768 144 768 c 128,-1,12
 124 768 124 768 110 782 c 128,-1,13
 96 796 96 796 96 816 c 2,14,-1
 96 1200 l 2,15,16
 96 1220 96 1220 110 1234 c 128,-1,17
 124 1248 124 1248 144 1248 c 2,18,-1
 880 1248 l 2,19,20
 900 1248 900 1248 914 1234 c 128,-1,21
 928 1220 928 1220 928 1200 c 2,22,-1
 928 816 l 2,23,24
 928 796 928 796 914 782 c 128,-1,25
 900 768 900 768 880 768 c 128,-1,26
 860 768 860 768 846 782 c 128,-1,27
 832 796 832 796 832 816 c 2,28,-1
 832 1152 l 1,29,-1
 560 1152 l 1,30,-1
 560 96 l 1,31,-1
 752 96 l 2,32,33
 772 96 772 96 786 82 c 128,-1,34
 800 68 800 68 800 48 c 128,-1,35
 800 28 800 28 786 14 c 128,-1,36
 772 0 772 0 752 0 c 2,37,-1
 272 0 l 2,0,1
EndSplineSet
EndChar

StartChar: U
Encoding: 85 85 56
Width: 1024
GlyphClass: 2
Flags: W
LayerCount: 2
Fore
SplineSet
608 1152 m 2,0,1
 588 1152 588 1152 574 1166 c 128,-1,2
 560 1180 560 1180 560 1200 c 128,-1,3
 560 1220 560 1220 574 1234 c 128,-1,4
 588 1248 588 1248 608 1248 c 2,5,-1
 928 1248 l 2,6,7
 948 1248 948 1248 962 1234 c 128,-1,8
 976 1220 976 1220 976 1200 c 128,-1,9
 976 1180 976 1180 962 1166 c 128,-1,10
 948 1152 948 1152 928 1152 c 2,11,-1
 816 1152 l 1,12,-1
 816 288 l 2,13,14
 816 162 816 162 727 73 c 128,-1,15
 638 -16 638 -16 512 -16 c 128,-1,16
 386 -16 386 -16 297 73 c 128,-1,17
 208 162 208 162 208 288 c 2,18,-1
 208 1152 l 1,19,-1
 96 1152 l 2,20,21
 76 1152 76 1152 62 1166 c 128,-1,22
 48 1180 48 1180 48 1200 c 128,-1,23
 48 1220 48 1220 62 1234 c 128,-1,24
 76 1248 76 1248 96 1248 c 2,25,-1
 416 1248 l 2,26,27
 436 1248 436 1248 450 1234 c 128,-1,28
 464 1220 464 1220 464 1200 c 128,-1,29
 464 1180 464 1180 450 1166 c 128,-1,30
 436 1152 436 1152 416 1152 c 2,31,-1
 304 1152 l 1,32,-1
 304 288 l 2,33,34
 304 202 304 202 365 141 c 128,-1,35
 426 80 426 80 512 80 c 128,-1,36
 598 80 598 80 659 141 c 128,-1,37
 720 202 720 202 720 288 c 2,38,-1
 720 1152 l 1,39,-1
 608 1152 l 2,0,1
EndSplineSet
EndChar

StartChar: V
Encoding: 86 86 57
Width: 1024
GlyphClass: 2
Flags: W
LayerCount: 2
Fore
SplineSet
640 1152 m 2,0,1
 620 1152 620 1152 606 1166 c 128,-1,2
 592 1180 592 1180 592 1200 c 128,-1,3
 592 1220 592 1220 606 1234 c 128,-1,4
 620 1248 620 1248 640 1248 c 2,5,-1
 960 1248 l 2,6,7
 980 1248 980 1248 994 1234 c 128,-1,8
 1008 1220 1008 1220 1008 1200 c 128,-1,9
 1008 1180 1008 1180 994 1166 c 128,-1,10
 980 1152 980 1152 960 1152 c 2,11,-1
 858 1152 l 1,12,-1
 591 37 l 2,13,14
 587 21 587 21 574 10.5 c 128,-1,15
 561 0 561 0 544 0 c 2,16,-1
 480 0 l 2,17,18
 463 0 463 0 450 10.5 c 128,-1,19
 437 21 437 21 433 37 c 2,20,-1
 166 1152 l 1,21,-1
 64 1152 l 2,22,23
 44 1152 44 1152 30 1166 c 128,-1,24
 16 1180 16 1180 16 1200 c 128,-1,25
 16 1220 16 1220 30 1234 c 128,-1,26
 44 1248 44 1248 64 1248 c 2,27,-1
 384 1248 l 2,28,29
 404 1248 404 1248 418 1234 c 128,-1,30
 432 1220 432 1220 432 1200 c 128,-1,31
 432 1180 432 1180 418 1166 c 128,-1,32
 404 1152 404 1152 384 1152 c 2,33,-1
 265 1152 l 1,34,-1
 512 121 l 1,35,-1
 759 1152 l 1,36,-1
 640 1152 l 2,0,1
EndSplineSet
EndChar

StartChar: W
Encoding: 87 87 58
Width: 1024
GlyphClass: 2
Flags: W
LayerCount: 2
Fore
SplineSet
656 1152 m 2,0,1
 636 1152 636 1152 622 1166 c 128,-1,2
 608 1180 608 1180 608 1200 c 128,-1,3
 608 1220 608 1220 622 1234 c 128,-1,4
 636 1248 636 1248 656 1248 c 2,5,-1
 944 1248 l 2,6,7
 964 1248 964 1248 978 1234 c 128,-1,8
 992 1220 992 1220 992 1200 c 128,-1,9
 992 1180 992 1180 978 1166 c 128,-1,10
 964 1152 964 1152 944 1152 c 2,11,-1
 878 1152 l 1,12,-1
 816 45 l 2,13,14
 815 26 815 26 801 13 c 128,-1,15
 787 0 787 0 768 0 c 2,16,-1
 704 0 l 2,17,18
 687 0 687 0 674 10 c 128,-1,19
 661 20 661 20 657 36 c 2,20,-1
 512 618 l 1,21,-1
 367 36 l 2,22,23
 363 20 363 20 349.5 10 c 128,-1,24
 336 0 336 0 320 0 c 2,25,-1
 256 0 l 2,26,27
 237 0 237 0 223 13 c 128,-1,28
 209 26 209 26 208 45 c 2,29,-1
 146 1152 l 1,30,-1
 80 1152 l 2,31,32
 60 1152 60 1152 46 1166 c 128,-1,33
 32 1180 32 1180 32 1200 c 128,-1,34
 32 1220 32 1220 46 1234 c 128,-1,35
 60 1248 60 1248 80 1248 c 2,36,-1
 368 1248 l 2,37,38
 388 1248 388 1248 402 1234 c 128,-1,39
 416 1220 416 1220 416 1200 c 128,-1,40
 416 1180 416 1180 402 1166 c 128,-1,41
 388 1152 388 1152 368 1152 c 2,42,-1
 242 1152 l 1,43,-1
 298 158 l 1,44,-1
 465 828 l 2,45,46
 469 843 469 843 482 853.5 c 128,-1,47
 495 864 495 864 512 864 c 128,-1,48
 529 864 529 864 542 853.5 c 128,-1,49
 555 843 555 843 559 828 c 2,50,-1
 726 158 l 1,51,-1
 782 1152 l 1,52,-1
 656 1152 l 2,0,1
EndSplineSet
EndChar

StartChar: X
Encoding: 88 88 59
Width: 1024
GlyphClass: 2
Flags: W
LayerCount: 2
Fore
SplineSet
624 0 m 2,0,1
 604 0 604 0 590 14 c 128,-1,2
 576 28 576 28 576 48 c 128,-1,3
 576 68 576 68 590 82 c 128,-1,4
 604 96 604 96 624 96 c 2,5,-1
 734 96 l 1,6,-1
 512 534 l 1,7,-1
 290 96 l 1,8,-1
 400 96 l 2,9,10
 420 96 420 96 434 82 c 128,-1,11
 448 68 448 68 448 48 c 128,-1,12
 448 28 448 28 434 14 c 128,-1,13
 420 0 420 0 400 0 c 2,14,-1
 80 0 l 2,15,16
 60 0 60 0 46 14 c 128,-1,17
 32 28 32 28 32 48 c 128,-1,18
 32 68 32 68 46 82 c 128,-1,19
 60 96 60 96 80 96 c 2,20,-1
 182 96 l 1,21,-1
 458 640 l 1,22,-1
 198 1152 l 1,23,-1
 96 1152 l 2,24,25
 76 1152 76 1152 62 1166 c 128,-1,26
 48 1180 48 1180 48 1200 c 128,-1,27
 48 1220 48 1220 62 1234 c 128,-1,28
 76 1248 76 1248 96 1248 c 2,29,-1
 416 1248 l 2,30,31
 436 1248 436 1248 450 1234 c 128,-1,32
 464 1220 464 1220 464 1200 c 128,-1,33
 464 1180 464 1180 450 1166 c 128,-1,34
 436 1152 436 1152 416 1152 c 2,35,-1
 306 1152 l 1,36,-1
 512 746 l 1,37,-1
 718 1152 l 1,38,-1
 608 1152 l 2,39,40
 588 1152 588 1152 574 1166 c 128,-1,41
 560 1180 560 1180 560 1200 c 128,-1,42
 560 1220 560 1220 574 1234 c 128,-1,43
 588 1248 588 1248 608 1248 c 2,44,-1
 928 1248 l 2,45,46
 948 1248 948 1248 962 1234 c 128,-1,47
 976 1220 976 1220 976 1200 c 128,-1,48
 976 1180 976 1180 962 1166 c 128,-1,49
 948 1152 948 1152 928 1152 c 2,50,-1
 826 1152 l 1,51,-1
 566 640 l 1,52,-1
 842 96 l 1,53,-1
 944 96 l 2,54,55
 964 96 964 96 978 82 c 128,-1,56
 992 68 992 68 992 48 c 128,-1,57
 992 28 992 28 978 14 c 128,-1,58
 964 0 964 0 944 0 c 2,59,-1
 624 0 l 2,0,1
EndSplineSet
EndChar

StartChar: Y
Encoding: 89 89 60
Width: 1024
GlyphClass: 2
Flags: W
LayerCount: 2
Fore
SplineSet
272 0 m 2,0,1
 252 0 252 0 238 14 c 128,-1,2
 224 28 224 28 224 48 c 128,-1,3
 224 68 224 68 238 82 c 128,-1,4
 252 96 252 96 272 96 c 2,5,-1
 464 96 l 1,6,-1
 464 611 l 1,7,-1
 155 1152 l 1,8,-1
 64 1152 l 2,9,10
 44 1152 44 1152 30 1166 c 128,-1,11
 16 1180 16 1180 16 1200 c 128,-1,12
 16 1220 16 1220 30 1234 c 128,-1,13
 44 1248 44 1248 64 1248 c 2,14,-1
 384 1248 l 2,15,16
 404 1248 404 1248 418 1234 c 128,-1,17
 432 1220 432 1220 432 1200 c 128,-1,18
 432 1180 432 1180 418 1166 c 128,-1,19
 404 1152 404 1152 384 1152 c 2,20,-1
 266 1152 l 1,21,-1
 511 723 l 1,22,-1
 744 1152 l 1,23,-1
 640 1152 l 2,24,25
 620 1152 620 1152 606 1166 c 128,-1,26
 592 1180 592 1180 592 1200 c 128,-1,27
 592 1220 592 1220 606 1234 c 128,-1,28
 620 1248 620 1248 640 1248 c 2,29,-1
 960 1248 l 2,30,31
 980 1248 980 1248 994 1234 c 128,-1,32
 1008 1220 1008 1220 1008 1200 c 128,-1,33
 1008 1180 1008 1180 994 1166 c 128,-1,34
 980 1152 980 1152 960 1152 c 2,35,-1
 853 1152 l 1,36,-1
 560 612 l 1,37,-1
 560 96 l 1,38,-1
 752 96 l 2,39,40
 772 96 772 96 786 82 c 128,-1,41
 800 68 800 68 800 48 c 128,-1,42
 800 28 800 28 786 14 c 128,-1,43
 772 0 772 0 752 0 c 2,44,-1
 272 0 l 2,0,1
EndSplineSet
EndChar

StartChar: Z
Encoding: 90 90 61
Width: 1024
GlyphClass: 2
Flags: W
LayerCount: 2
Fore
SplineSet
864 1248 m 2,0,1
 885 1248 885 1248 898.5 1233.5 c 128,-1,2
 912 1219 912 1219 912 1200 c 0,3,4
 912 1186 912 1186 904 1174 c 2,5,-1
 216 96 l 1,6,-1
 848 96 l 1,7,-1
 848 432 l 2,8,9
 848 452 848 452 862 466 c 128,-1,10
 876 480 876 480 896 480 c 128,-1,11
 916 480 916 480 930 466 c 128,-1,12
 944 452 944 452 944 432 c 2,13,-1
 944 48 l 2,14,15
 944 28 944 28 930 14 c 128,-1,16
 916 0 916 0 896 0 c 2,17,-1
 128 0 l 2,18,19
 107 0 107 0 93.5 14.5 c 128,-1,20
 80 29 80 29 80 48 c 0,21,22
 80 62 80 62 88 74 c 2,23,-1
 776 1152 l 1,24,-1
 208 1152 l 1,25,-1
 208 864 l 2,26,27
 208 844 208 844 194 830 c 128,-1,28
 180 816 180 816 160 816 c 128,-1,29
 140 816 140 816 126 830 c 128,-1,30
 112 844 112 844 112 864 c 2,31,-1
 112 1200 l 2,32,33
 112 1220 112 1220 126 1234 c 128,-1,34
 140 1248 140 1248 160 1248 c 2,35,-1
 864 1248 l 2,0,1
EndSplineSet
EndChar

StartChar: bracketleft
Encoding: 91 91 62
Width: 1024
GlyphClass: 2
Flags: W
LayerCount: 2
Fore
SplineSet
288 1392 m 2,0,1
 288 1413 288 1413 302.5 1426.5 c 128,-1,2
 317 1440 317 1440 336 1440 c 2,3,-1
 720 1440 l 2,4,5
 740 1440 740 1440 754 1426 c 128,-1,6
 768 1412 768 1412 768 1392 c 128,-1,7
 768 1372 768 1372 754 1358 c 128,-1,8
 740 1344 740 1344 720 1344 c 2,9,-1
 384 1344 l 1,10,-1
 384 -96 l 1,11,-1
 720 -96 l 2,12,13
 740 -96 740 -96 754 -110 c 128,-1,14
 768 -124 768 -124 768 -144 c 128,-1,15
 768 -164 768 -164 754 -178 c 128,-1,16
 740 -192 740 -192 720 -192 c 2,17,-1
 336 -192 l 2,18,19
 316 -192 316 -192 302 -178 c 128,-1,20
 288 -164 288 -164 288 -144 c 2,21,-1
 288 1392 l 2,0,1
EndSplineSet
EndChar

StartChar: backslash
Encoding: 92 92 63
Width: 1024
GlyphClass: 2
Flags: W
LayerCount: 2
Fore
SplineSet
944 -144 m 0,0,1
 944 -164 944 -164 930 -178 c 128,-1,2
 916 -192 916 -192 896 -192 c 0,3,4
 866 -192 866 -192 853 -166 c 2,5,-1
 85 1371 l 2,6,7
 80 1381 80 1381 80 1392 c 0,8,9
 80 1412 80 1412 94 1426 c 128,-1,10
 108 1440 108 1440 128 1440 c 0,11,12
 158 1440 158 1440 171 1414 c 2,13,-1
 939 -123 l 2,14,15
 944 -133 944 -133 944 -144 c 0,0,1
EndSplineSet
EndChar

StartChar: bracketright
Encoding: 93 93 64
Width: 1024
GlyphClass: 2
Flags: W
LayerCount: 2
Fore
SplineSet
736 -144 m 2,0,1
 736 -165 736 -165 721.5 -178.5 c 128,-1,2
 707 -192 707 -192 688 -192 c 2,3,-1
 304 -192 l 2,4,5
 284 -192 284 -192 270 -178 c 128,-1,6
 256 -164 256 -164 256 -144 c 128,-1,7
 256 -124 256 -124 270 -110 c 128,-1,8
 284 -96 284 -96 304 -96 c 2,9,-1
 640 -96 l 1,10,-1
 640 1344 l 1,11,-1
 304 1344 l 2,12,13
 284 1344 284 1344 270 1358 c 128,-1,14
 256 1372 256 1372 256 1392 c 128,-1,15
 256 1412 256 1412 270 1426 c 128,-1,16
 284 1440 284 1440 304 1440 c 2,17,-1
 688 1440 l 2,18,19
 703 1440 703 1440 716 1431 c 0,20,21
 736 1417 736 1417 736 1392 c 2,22,-1
 736 -144 l 2,0,1
EndSplineSet
EndChar

StartChar: asciicircum
Encoding: 94 94 65
Width: 1024
GlyphClass: 2
Flags: W
LayerCount: 2
Fore
SplineSet
176 816 m 128,-1,1
 156 816 156 816 142 830 c 128,-1,2
 128 844 128 844 128 864 c 128,-1,3
 128 884 128 884 142 898 c 2,4,-1
 478 1234 l 2,5,6
 492 1248 492 1248 512 1248 c 128,-1,7
 532 1248 532 1248 546 1234 c 2,8,-1
 882 898 l 2,9,10
 896 884 896 884 896 864 c 128,-1,11
 896 844 896 844 882 830 c 128,-1,12
 868 816 868 816 848 816 c 128,-1,13
 828 816 828 816 814 830 c 2,14,-1
 512 1132 l 1,15,-1
 210 830 l 2,16,0
 196 816 196 816 176 816 c 128,-1,1
EndSplineSet
EndChar

StartChar: underscore
Encoding: 95 95 66
Width: 1024
GlyphClass: 2
Flags: W
LayerCount: 2
Fore
SplineSet
144 0 m 2,0,1
 124 0 124 0 110 14 c 128,-1,2
 96 28 96 28 96 48 c 128,-1,3
 96 68 96 68 110 82 c 128,-1,4
 124 96 124 96 144 96 c 2,5,-1
 880 96 l 2,6,7
 900 96 900 96 914 82 c 128,-1,8
 928 68 928 68 928 48 c 128,-1,9
 928 28 928 28 914 14 c 128,-1,10
 900 0 900 0 880 0 c 2,11,-1
 144 0 l 2,0,1
EndSplineSet
EndChar

StartChar: grave
Encoding: 96 96 67
Width: 1024
GlyphClass: 2
Flags: W
LayerCount: 2
Fore
SplineSet
272 1200 m 128,-1,1
 272 1220 272 1220 286 1234 c 128,-1,2
 300 1248 300 1248 320 1248 c 128,-1,3
 340 1248 340 1248 354 1234 c 2,4,-1
 738 850 l 2,5,6
 752 836 752 836 752 816 c 128,-1,7
 752 796 752 796 738 782 c 128,-1,8
 724 768 724 768 704 768 c 128,-1,9
 684 768 684 768 670 782 c 2,10,-1
 286 1166 l 2,11,0
 272 1180 272 1180 272 1200 c 128,-1,1
EndSplineSet
EndChar

StartChar: a
Encoding: 97 97 68
Width: 1024
GlyphClass: 2
Flags: W
LayerCount: 2
Fore
SplineSet
720 490 m 1,0,1
 672 456 672 456 605.5 436 c 128,-1,2
 539 416 539 416 464 416 c 0,3,4
 387 416 387 416 323 389.5 c 128,-1,5
 259 363 259 363 224 322 c 0,6,7
 192 284 192 284 192 240 c 0,8,9
 192 203 192 203 205 174 c 0,10,11
 220 139 220 139 254 117 c 0,12,13
 309 80 309 80 400 80 c 0,14,15
 485 80 485 80 561.5 111.5 c 128,-1,16
 638 143 638 143 682 192 c 0,17,18
 720 234 720 234 720 272 c 2,19,-1
 720 490 l 1,0,1
723 99 m 1,20,21
 665 47 665 47 580 15.5 c 128,-1,22
 495 -16 495 -16 400 -16 c 0,23,24
 279 -16 279 -16 201 37 c 0,25,26
 144 75 144 75 117 135 c 0,27,28
 96 183 96 183 96 240 c 0,29,30
 96 318 96 318 151 384 c 0,31,32
 201 444 201 444 284 478 c 128,-1,33
 367 512 367 512 464 512 c 0,34,35
 535 512 535 512 596.5 533.5 c 128,-1,36
 658 555 658 555 691 592 c 0,37,38
 720 623 720 623 720 656 c 0,39,40
 720 684 720 684 694 712 c 0,41,42
 662 745 662 745 604 764.5 c 128,-1,43
 546 784 546 784 480 784 c 0,44,45
 368 784 368 784 294 735 c 1,46,47
 336 706 336 706 336 656 c 0,48,49
 336 616 336 616 308 588 c 128,-1,50
 280 560 280 560 240 560 c 128,-1,51
 200 560 200 560 172 588 c 128,-1,52
 144 616 144 616 144 656 c 0,53,54
 144 723 144 723 197 778 c 0,55,56
 238 821 238 821 303 847 c 0,57,58
 384 880 384 880 480 880 c 0,59,60
 569 880 569 880 643.5 853 c 128,-1,61
 718 826 718 826 763 778 c 0,62,63
 816 723 816 723 816 656 c 2,64,-1
 816 128 l 2,65,66
 816 115 816 115 825.5 105.5 c 128,-1,67
 835 96 835 96 848 96 c 0,68,69
 881 96 881 96 904.5 119.5 c 128,-1,70
 928 143 928 143 928 176 c 0,71,72
 928 196 928 196 942 210 c 128,-1,73
 956 224 956 224 976 224 c 128,-1,74
 996 224 996 224 1010 210 c 128,-1,75
 1024 196 1024 196 1024 176 c 0,76,77
 1024 103 1024 103 972.5 51.5 c 128,-1,78
 921 0 921 0 848 0 c 0,79,80
 803 0 803 0 768.5 28 c 128,-1,81
 734 56 734 56 723 99 c 1,20,21
EndSplineSet
EndChar

StartChar: b
Encoding: 98 98 69
Width: 1024
GlyphClass: 2
Flags: W
LayerCount: 2
Fore
SplineSet
592 80 m 0,0,1
 653 80 653 80 707 124 c 0,2,3
 762 169 762 169 797 251 c 128,-1,4
 832 333 832 333 832 432 c 128,-1,5
 832 531 832 531 797 613 c 128,-1,6
 762 695 762 695 707 740 c 0,7,8
 653 784 653 784 592 784 c 0,9,10
 528 784 528 784 470 754 c 0,11,12
 412 725 412 725 368.5 670 c 128,-1,13
 325 615 325 615 304 545 c 1,14,-1
 304 319 l 1,15,16
 325 249 325 249 368.5 194 c 128,-1,17
 412 139 412 139 470 110 c 0,18,19
 528 80 528 80 592 80 c 0,0,1
256 1248 m 2,20,21
 277 1248 277 1248 290.5 1233.5 c 128,-1,22
 304 1219 304 1219 304 1200 c 2,23,-1
 304 743 l 1,24,25
 357 804 357 804 426 840 c 0,26,27
 505 880 505 880 592 880 c 0,28,29
 687 880 687 880 768 815 c 0,30,31
 843 754 843 754 885.5 652.5 c 128,-1,32
 928 551 928 551 928 432 c 128,-1,33
 928 313 928 313 885.5 211.5 c 128,-1,34
 843 110 843 110 768 49 c 0,35,36
 687 -16 687 -16 592 -16 c 0,37,38
 505 -16 505 -16 426 24 c 0,39,40
 357 60 357 60 304 121 c 1,41,-1
 304 48 l 2,42,43
 304 28 304 28 290 14 c 128,-1,44
 276 0 276 0 256 0 c 2,45,-1
 96 0 l 2,46,47
 76 0 76 0 62 14 c 128,-1,48
 48 28 48 28 48 48 c 128,-1,49
 48 68 48 68 62 82 c 128,-1,50
 76 96 76 96 96 96 c 2,51,-1
 208 96 l 1,52,-1
 208 312 l 1,53,54
 208 312 208 312 208 313 c 1,55,56
 208 313 208 313 208 313 c 1,57,-1
 208 551 l 2,58,59
 208 552 208 552 208 552 c 1,60,-1
 208 1152 l 1,61,-1
 96 1152 l 2,62,63
 76 1152 76 1152 62 1166 c 128,-1,64
 48 1180 48 1180 48 1200 c 128,-1,65
 48 1220 48 1220 62 1234 c 128,-1,66
 76 1248 76 1248 96 1248 c 2,67,-1
 256 1248 l 2,20,21
EndSplineSet
EndChar

StartChar: c
Encoding: 99 99 70
Width: 1024
GlyphClass: 2
Flags: W
LayerCount: 2
Fore
SplineSet
880 284 m 0,0,1
 900 284 900 284 914 270 c 128,-1,2
 928 256 928 256 928 236 c 0,3,4
 928 225 928 225 923 215 c 0,5,6
 870 110 870 110 758.5 47 c 128,-1,7
 647 -16 647 -16 512 -16 c 0,8,9
 398 -16 398 -16 302 45 c 128,-1,10
 206 106 206 106 151 209 c 128,-1,11
 96 312 96 312 96 432 c 128,-1,12
 96 552 96 552 151 655 c 128,-1,13
 206 758 206 758 302 819 c 128,-1,14
 398 880 398 880 512 880 c 0,15,16
 595 880 595 880 669 847 c 128,-1,17
 743 814 743 814 800 755 c 1,18,-1
 800 816 l 2,19,20
 800 836 800 836 814 850 c 128,-1,21
 828 864 828 864 848 864 c 128,-1,22
 868 864 868 864 882 850 c 128,-1,23
 896 836 896 836 896 816 c 2,24,-1
 896 576 l 2,25,26
 896 556 896 556 882 542 c 128,-1,27
 868 528 868 528 848 528 c 128,-1,28
 828 528 828 528 814 542 c 128,-1,29
 800 556 800 556 800 576 c 2,30,-1
 800 586 l 1,31,32
 760 676 760 676 682.5 730 c 128,-1,33
 605 784 605 784 512 784 c 0,34,35
 381 784 381 784 286.5 681.5 c 128,-1,36
 192 579 192 579 192 432 c 128,-1,37
 192 285 192 285 286.5 182.5 c 128,-1,38
 381 80 381 80 512 80 c 0,39,40
 621 80 621 80 709 130 c 128,-1,41
 797 180 797 180 837 258 c 0,42,43
 851 284 851 284 880 284 c 0,0,1
EndSplineSet
EndChar

StartChar: d
Encoding: 100 100 71
Width: 1024
GlyphClass: 2
Flags: W
LayerCount: 2
Fore
SplineSet
432 80 m 0,0,1
 496 80 496 80 554 110 c 0,2,3
 612 139 612 139 655.5 194 c 128,-1,4
 699 249 699 249 720 319 c 1,5,-1
 720 545 l 1,6,7
 699 615 699 615 655.5 670 c 128,-1,8
 612 725 612 725 554 754 c 0,9,10
 496 784 496 784 432 784 c 0,11,12
 371 784 371 784 317 740 c 0,13,14
 262 695 262 695 227 613 c 128,-1,15
 192 531 192 531 192 432 c 128,-1,16
 192 333 192 333 227 251 c 128,-1,17
 262 169 262 169 317 124 c 0,18,19
 371 80 371 80 432 80 c 0,0,1
768 1248 m 2,20,21
 787 1248 787 1248 801.5 1234.5 c 128,-1,22
 816 1221 816 1221 816 1200 c 2,23,-1
 816 553 l 2,24,25
 816 552 816 552 816 551.5 c 128,-1,26
 816 551 816 551 816 550 c 2,27,-1
 816 314 l 2,28,29
 816 313 816 313 816 312.5 c 128,-1,30
 816 312 816 312 816 311 c 2,31,-1
 816 96 l 1,32,-1
 928 96 l 2,33,34
 948 96 948 96 962 82 c 128,-1,35
 976 68 976 68 976 48 c 128,-1,36
 976 28 976 28 962 14 c 128,-1,37
 948 0 948 0 928 0 c 2,38,-1
 768 0 l 2,39,40
 748 0 748 0 734 14 c 128,-1,41
 720 28 720 28 720 48 c 2,42,-1
 720 121 l 1,43,44
 667 60 667 60 598 24 c 0,45,46
 519 -16 519 -16 432 -16 c 0,47,48
 337 -16 337 -16 256 49 c 0,49,50
 181 110 181 110 138.5 211.5 c 128,-1,51
 96 313 96 313 96 432 c 128,-1,52
 96 551 96 551 138.5 652.5 c 128,-1,53
 181 754 181 754 256 815 c 0,54,55
 337 880 337 880 432 880 c 0,56,57
 519 880 519 880 598 840 c 0,58,59
 667 804 667 804 720 743 c 1,60,-1
 720 1152 l 1,61,-1
 608 1152 l 2,62,63
 588 1152 588 1152 574 1166 c 128,-1,64
 560 1180 560 1180 560 1200 c 128,-1,65
 560 1220 560 1220 574 1234 c 128,-1,66
 588 1248 588 1248 608 1248 c 2,67,-1
 768 1248 l 2,20,21
EndSplineSet
EndChar

StartChar: e
Encoding: 101 101 72
Width: 1024
GlyphClass: 2
Flags: W
LayerCount: 2
Fore
SplineSet
512 784 m 0,0,1
 404 784 404 784 318.5 712.5 c 128,-1,2
 233 641 233 641 204 528 c 1,3,-1
 828 528 l 1,4,5
 810 637 810 637 720.5 710.5 c 128,-1,6
 631 784 631 784 512 784 c 0,0,1
880 284 m 0,7,8
 900 284 900 284 914 270 c 128,-1,9
 928 256 928 256 928 236 c 0,10,11
 928 225 928 225 923 215 c 0,12,13
 870 110 870 110 758.5 47 c 128,-1,14
 647 -16 647 -16 512 -16 c 0,15,16
 398 -16 398 -16 302 45 c 128,-1,17
 206 106 206 106 151 209 c 128,-1,18
 96 312 96 312 96 432 c 128,-1,19
 96 552 96 552 151 655 c 128,-1,20
 206 758 206 758 302 819 c 128,-1,21
 398 880 398 880 512 880 c 0,22,23
 683 880 683 880 805.5 763 c 128,-1,24
 928 646 928 646 928 480 c 0,25,26
 928 460 928 460 914 446 c 128,-1,27
 900 432 900 432 880 432 c 2,28,-1
 192 432 l 1,29,30
 192 285 192 285 286.5 182.5 c 128,-1,31
 381 80 381 80 512 80 c 0,32,33
 621 80 621 80 709 130 c 128,-1,34
 797 180 797 180 837 258 c 0,35,36
 851 284 851 284 880 284 c 0,7,8
EndSplineSet
EndChar

StartChar: f
Encoding: 102 102 73
Width: 1024
GlyphClass: 2
Flags: W
LayerCount: 2
Fore
SplineSet
854 1100 m 1,0,1
 826 1131 826 1131 777.5 1149.5 c 128,-1,2
 729 1168 729 1168 672 1168 c 0,3,4
 586 1168 586 1168 525 1107 c 128,-1,5
 464 1046 464 1046 464 960 c 2,6,-1
 464 864 l 1,7,-1
 688 864 l 2,8,9
 708 864 708 864 722 850 c 128,-1,10
 736 836 736 836 736 816 c 128,-1,11
 736 796 736 796 722 782 c 128,-1,12
 708 768 708 768 688 768 c 2,13,-1
 464 768 l 1,14,-1
 464 96 l 1,15,-1
 688 96 l 2,16,17
 708 96 708 96 722 82 c 128,-1,18
 736 68 736 68 736 48 c 128,-1,19
 736 28 736 28 722 14 c 128,-1,20
 708 0 708 0 688 0 c 2,21,-1
 144 0 l 2,22,23
 124 0 124 0 110 14 c 128,-1,24
 96 28 96 28 96 48 c 128,-1,25
 96 68 96 68 110 82 c 128,-1,26
 124 96 124 96 144 96 c 2,27,-1
 368 96 l 1,28,-1
 368 768 l 1,29,-1
 144 768 l 2,30,31
 124 768 124 768 110 782 c 128,-1,32
 96 796 96 796 96 816 c 128,-1,33
 96 836 96 836 110 850 c 128,-1,34
 124 864 124 864 144 864 c 2,35,-1
 368 864 l 1,36,-1
 368 960 l 2,37,38
 368 1086 368 1086 457 1175 c 128,-1,39
 546 1264 546 1264 672 1264 c 0,40,41
 753 1264 753 1264 821 1236 c 128,-1,42
 889 1208 889 1208 929 1160 c 0,43,44
 976 1105 976 1105 976 1040 c 2,45,-1
 976 1008 l 2,46,47
 976 968 976 968 948 940 c 128,-1,48
 920 912 920 912 880 912 c 128,-1,49
 840 912 840 912 812 940 c 128,-1,50
 784 968 784 968 784 1008 c 0,51,52
 784 1041 784 1041 803.5 1066.5 c 128,-1,53
 823 1092 823 1092 854 1100 c 1,0,1
EndSplineSet
EndChar

StartChar: g
Encoding: 103 103 74
Width: 1024
GlyphClass: 2
Flags: W
LayerCount: 2
Fore
SplineSet
640 560 m 128,-1,1
 640 653 640 653 574.5 718.5 c 128,-1,2
 509 784 509 784 416 784 c 128,-1,3
 323 784 323 784 257.5 718.5 c 128,-1,4
 192 653 192 653 192 560 c 128,-1,5
 192 467 192 467 257.5 401.5 c 128,-1,6
 323 336 323 336 416 336 c 128,-1,7
 509 336 509 336 574.5 401.5 c 128,-1,0
 640 467 640 467 640 560 c 128,-1,1
160 176 m 0,8,9
 160 215 160 215 180.5 246.5 c 128,-1,10
 201 278 201 278 232 298 c 1,11,12
 169 342 169 342 132.5 411 c 128,-1,13
 96 480 96 480 96 560 c 0,14,15
 96 692 96 692 190 786 c 128,-1,16
 284 880 284 880 416 880 c 0,17,18
 483 880 483 880 543 854 c 128,-1,19
 603 828 603 828 647 781 c 1,20,21
 662 825 662 825 699.5 852.5 c 128,-1,22
 737 880 737 880 784 880 c 0,23,24
 844 880 844 880 886 838 c 128,-1,25
 928 796 928 796 928 736 c 0,26,27
 928 716 928 716 914 702 c 128,-1,28
 900 688 900 688 880 688 c 128,-1,29
 860 688 860 688 846 702 c 128,-1,30
 832 716 832 716 832 736 c 128,-1,31
 832 756 832 756 818 770 c 128,-1,32
 804 784 804 784 784 784 c 128,-1,33
 764 784 764 784 750 770 c 128,-1,34
 736 756 736 756 736 736 c 2,35,-1
 736 560 l 2,36,37
 736 428 736 428 642 334 c 128,-1,38
 548 240 548 240 416 240 c 2,39,-1
 368 240 l 2,40,41
 336 240 336 240 308.5 229.5 c 128,-1,42
 281 219 281 219 267 202 c 0,43,44
 256 189 256 189 256 176 c 128,-1,45
 256 163 256 163 267 150 c 0,46,47
 281 133 281 133 308.5 122.5 c 128,-1,48
 336 112 336 112 368 112 c 2,49,-1
 512 112 l 2,50,51
 641 112 641 112 749 75 c 0,52,53
 835 45 835 45 889 -3 c 0,54,55
 960 -66 960 -66 960 -144 c 128,-1,56
 960 -222 960 -222 889 -285 c 0,57,58
 835 -333 835 -333 749 -363 c 0,59,60
 641 -400 641 -400 512 -400 c 128,-1,61
 383 -400 383 -400 275 -363 c 0,62,63
 189 -333 189 -333 135 -285 c 0,64,65
 64 -222 64 -222 64 -144 c 128,-1,66
 64 -66 64 -66 135 -3 c 0,67,68
 173 31 173 31 229 56 c 1,69,70
 208 71 208 71 193 89 c 0,71,72
 160 128 160 128 160 176 c 0,8,9
160 -144 m 128,-1,74
 160 -179 160 -179 198 -213 c 0,75,76
 238 -248 238 -248 306 -272 c 0,77,78
 399 -304 399 -304 512 -304 c 128,-1,79
 625 -304 625 -304 718 -272 c 0,80,81
 786 -248 786 -248 826 -213 c 0,82,83
 864 -179 864 -179 864 -144 c 128,-1,84
 864 -109 864 -109 826 -75 c 0,85,86
 786 -40 786 -40 718 -16 c 0,87,88
 625 16 625 16 512 16 c 128,-1,89
 399 16 399 16 306 -16 c 0,90,91
 238 -40 238 -40 198 -75 c 0,92,73
 160 -109 160 -109 160 -144 c 128,-1,74
EndSplineSet
EndChar

StartChar: h
Encoding: 104 104 75
Width: 1024
GlyphClass: 2
Flags: W
LayerCount: 2
Fore
SplineSet
256 1248 m 2,0,1
 277 1248 277 1248 290.5 1233.5 c 128,-1,2
 304 1219 304 1219 304 1200 c 2,3,-1
 304 760 l 1,4,5
 355 816 355 816 426 848 c 128,-1,6
 497 880 497 880 576 880 c 0,7,8
 675 880 675 880 745.5 809.5 c 128,-1,9
 816 739 816 739 816 640 c 2,10,-1
 816 96 l 1,11,-1
 928 96 l 2,12,13
 948 96 948 96 962 82 c 128,-1,14
 976 68 976 68 976 48 c 128,-1,15
 976 28 976 28 962 14 c 128,-1,16
 948 0 948 0 928 0 c 2,17,-1
 608 0 l 2,18,19
 588 0 588 0 574 14 c 128,-1,20
 560 28 560 28 560 48 c 128,-1,21
 560 68 560 68 574 82 c 128,-1,22
 588 96 588 96 608 96 c 2,23,-1
 720 96 l 1,24,-1
 720 640 l 2,25,26
 720 700 720 700 678 742 c 128,-1,27
 636 784 636 784 576 784 c 0,28,29
 463 784 463 784 383.5 704.5 c 128,-1,30
 304 625 304 625 304 512 c 2,31,-1
 304 96 l 1,32,-1
 416 96 l 2,33,34
 436 96 436 96 450 82 c 128,-1,35
 464 68 464 68 464 48 c 128,-1,36
 464 28 464 28 450 14 c 128,-1,37
 436 0 436 0 416 0 c 2,38,-1
 96 0 l 2,39,40
 76 0 76 0 62 14 c 128,-1,41
 48 28 48 28 48 48 c 128,-1,42
 48 68 48 68 62 82 c 128,-1,43
 76 96 76 96 96 96 c 2,44,-1
 208 96 l 1,45,-1
 208 1152 l 1,46,-1
 96 1152 l 2,47,48
 76 1152 76 1152 62 1166 c 128,-1,49
 48 1180 48 1180 48 1200 c 128,-1,50
 48 1220 48 1220 62 1234 c 128,-1,51
 76 1248 76 1248 96 1248 c 2,52,-1
 256 1248 l 2,0,1
EndSplineSet
EndChar

StartChar: k
Encoding: 107 107 78
Width: 1024
GlyphClass: 2
Flags: W
LayerCount: 2
Fore
SplineSet
256 1248 m 2,0,1
 277 1248 277 1248 290.5 1233.5 c 128,-1,2
 304 1219 304 1219 304 1200 c 2,3,-1
 304 456 l 1,4,-1
 685 768 l 1,5,-1
 592 768 l 2,6,7
 572 768 572 768 558 782 c 128,-1,8
 544 796 544 796 544 816 c 128,-1,9
 544 836 544 836 558 850 c 128,-1,10
 572 864 572 864 592 864 c 2,11,-1
 912 864 l 2,12,13
 932 864 932 864 946 850 c 128,-1,14
 960 836 960 836 960 816 c 128,-1,15
 960 796 960 796 946 782 c 128,-1,16
 932 768 932 768 912 768 c 2,17,-1
 836 768 l 1,18,-1
 499 492 l 1,19,-1
 851 96 l 1,20,-1
 944 96 l 2,21,22
 964 96 964 96 978 82 c 128,-1,23
 992 68 992 68 992 48 c 128,-1,24
 992 28 992 28 978 14 c 128,-1,25
 964 0 964 0 944 0 c 2,26,-1
 624 0 l 2,27,28
 604 0 604 0 590 14 c 128,-1,29
 576 28 576 28 576 48 c 128,-1,30
 576 68 576 68 590 82 c 128,-1,31
 604 96 604 96 624 96 c 2,32,-1
 723 96 l 1,33,-1
 425 432 l 1,34,-1
 304 332 l 1,35,36
 304 293 304 293 304 214 c 128,-1,37
 304 135 304 135 304 96 c 1,38,-1
 416 96 l 2,39,40
 436 96 436 96 450 82 c 128,-1,41
 464 68 464 68 464 48 c 128,-1,42
 464 28 464 28 450 14 c 128,-1,43
 436 0 436 0 416 0 c 2,44,-1
 96 0 l 2,45,46
 76 0 76 0 62 14 c 128,-1,47
 48 28 48 28 48 48 c 128,-1,48
 48 68 48 68 62 82 c 128,-1,49
 76 96 76 96 96 96 c 2,50,-1
 208 96 l 1,51,-1
 208 1152 l 1,52,-1
 96 1152 l 2,53,54
 76 1152 76 1152 62 1166 c 128,-1,55
 48 1180 48 1180 48 1200 c 128,-1,56
 48 1220 48 1220 62 1234 c 128,-1,57
 76 1248 76 1248 96 1248 c 2,58,-1
 256 1248 l 2,0,1
EndSplineSet
EndChar

StartChar: l
Encoding: 108 108 79
Width: 1024
GlyphClass: 2
Flags: W
LayerCount: 2
Fore
SplineSet
208 0 m 2,0,1
 188 0 188 0 174 14 c 128,-1,2
 160 28 160 28 160 48 c 128,-1,3
 160 68 160 68 174 82 c 128,-1,4
 188 96 188 96 208 96 c 2,5,-1
 464 96 l 1,6,-1
 464 1152 l 1,7,-1
 208 1152 l 2,8,9
 188 1152 188 1152 174 1166 c 128,-1,10
 160 1180 160 1180 160 1200 c 128,-1,11
 160 1220 160 1220 174 1234 c 128,-1,12
 188 1248 188 1248 208 1248 c 2,13,-1
 512 1248 l 2,14,15
 532 1248 532 1248 546 1234 c 128,-1,16
 560 1220 560 1220 560 1200 c 0,17,18
 560 1016 560 1016 560 648 c 128,-1,19
 560 280 560 280 560 96 c 1,20,-1
 816 96 l 2,21,22
 836 96 836 96 850 82 c 128,-1,23
 864 68 864 68 864 48 c 128,-1,24
 864 28 864 28 850 14 c 128,-1,25
 836 0 836 0 816 0 c 2,26,-1
 208 0 l 2,0,1
EndSplineSet
Substitution2: "'ss05' Style Set 5 lookup 0 subtable" l.ss05
EndChar

StartChar: m
Encoding: 109 109 80
Width: 1024
GlyphClass: 2
Flags: W
LayerCount: 2
Fore
SplineSet
176 864 m 2,0,1
 197 864 197 864 210.5 849.5 c 128,-1,2
 224 835 224 835 224 816 c 1,3,4
 300 880 300 880 400 880 c 0,5,6
 445 880 445 880 482.5 857.5 c 128,-1,7
 520 835 520 835 540 797 c 1,8,9
 620 880 620 880 736 880 c 0,10,11
 802 880 802 880 849 833 c 128,-1,12
 896 786 896 786 896 720 c 0,13,14
 896 712 896 712 893 704 c 1,15,16
 896 696 896 696 896 688 c 2,17,-1
 896 96 l 1,18,-1
 944 96 l 2,19,20
 964 96 964 96 978 82 c 128,-1,21
 992 68 992 68 992 48 c 128,-1,22
 992 28 992 28 978 14 c 128,-1,23
 964 0 964 0 944 0 c 2,24,-1
 752 0 l 2,25,26
 732 0 732 0 718 14 c 128,-1,27
 704 28 704 28 704 48 c 128,-1,28
 704 68 704 68 718 82 c 128,-1,29
 732 96 732 96 752 96 c 2,30,-1
 800 96 l 1,31,-1
 800 688 l 2,32,33
 800 696 800 696 803 704 c 1,34,35
 800 712 800 712 800 720 c 0,36,37
 800 747 800 747 781.5 765.5 c 128,-1,38
 763 784 763 784 736 784 c 0,39,40
 663 784 663 784 611.5 732.5 c 128,-1,41
 560 681 560 681 560 608 c 2,42,-1
 560 96 l 1,43,-1
 608 96 l 2,44,45
 628 96 628 96 642 82 c 128,-1,46
 656 68 656 68 656 48 c 128,-1,47
 656 28 656 28 642 14 c 128,-1,48
 628 0 628 0 608 0 c 2,49,-1
 416 0 l 2,50,51
 396 0 396 0 382 14 c 128,-1,52
 368 28 368 28 368 48 c 128,-1,53
 368 68 368 68 382 82 c 128,-1,54
 396 96 396 96 416 96 c 2,55,-1
 464 96 l 1,56,-1
 464 720 l 2,57,58
 464 747 464 747 445.5 765.5 c 128,-1,59
 427 784 427 784 400 784 c 0,60,61
 328 784 328 784 277 734 c 128,-1,62
 226 684 226 684 224 612 c 2,63,-1
 224 96 l 1,64,-1
 272 96 l 2,65,66
 292 96 292 96 306 82 c 128,-1,67
 320 68 320 68 320 48 c 128,-1,68
 320 28 320 28 306 14 c 128,-1,69
 292 0 292 0 272 0 c 2,70,-1
 80 0 l 2,71,72
 60 0 60 0 46 14 c 128,-1,73
 32 28 32 28 32 48 c 128,-1,74
 32 68 32 68 46 82 c 128,-1,75
 60 96 60 96 80 96 c 2,76,-1
 128 96 l 1,77,-1
 128 768 l 1,78,-1
 80 768 l 2,79,80
 60 768 60 768 46 782 c 128,-1,81
 32 796 32 796 32 816 c 128,-1,82
 32 836 32 836 46 850 c 128,-1,83
 60 864 60 864 80 864 c 2,84,-1
 176 864 l 2,0,1
EndSplineSet
EndChar

StartChar: n
Encoding: 110 110 81
Width: 1024
GlyphClass: 2
Flags: W
LayerCount: 2
Fore
SplineSet
256 864 m 2,0,1
 277 864 277 864 290.5 849.5 c 128,-1,2
 304 835 304 835 304 816 c 2,3,-1
 304 760 l 1,4,5
 355 816 355 816 426 848 c 128,-1,6
 497 880 497 880 576 880 c 0,7,8
 675 880 675 880 745.5 809.5 c 128,-1,9
 816 739 816 739 816 640 c 2,10,-1
 816 96 l 1,11,-1
 928 96 l 2,12,13
 948 96 948 96 962 82 c 128,-1,14
 976 68 976 68 976 48 c 128,-1,15
 976 28 976 28 962 14 c 128,-1,16
 948 0 948 0 928 0 c 2,17,-1
 608 0 l 2,18,19
 588 0 588 0 574 14 c 128,-1,20
 560 28 560 28 560 48 c 128,-1,21
 560 68 560 68 574 82 c 128,-1,22
 588 96 588 96 608 96 c 2,23,-1
 720 96 l 1,24,-1
 720 640 l 2,25,26
 720 700 720 700 678 742 c 128,-1,27
 636 784 636 784 576 784 c 0,28,29
 463 784 463 784 383.5 704.5 c 128,-1,30
 304 625 304 625 304 512 c 2,31,-1
 304 96 l 1,32,-1
 416 96 l 2,33,34
 436 96 436 96 450 82 c 128,-1,35
 464 68 464 68 464 48 c 128,-1,36
 464 28 464 28 450 14 c 128,-1,37
 436 0 436 0 416 0 c 2,38,-1
 96 0 l 2,39,40
 76 0 76 0 62 14 c 128,-1,41
 48 28 48 28 48 48 c 128,-1,42
 48 68 48 68 62 82 c 128,-1,43
 76 96 76 96 96 96 c 2,44,-1
 208 96 l 1,45,-1
 208 768 l 1,46,-1
 96 768 l 2,47,48
 76 768 76 768 62 782 c 128,-1,49
 48 796 48 796 48 816 c 128,-1,50
 48 836 48 836 62 850 c 128,-1,51
 76 864 76 864 96 864 c 2,52,-1
 256 864 l 2,0,1
EndSplineSet
EndChar

StartChar: o
Encoding: 111 111 82
Width: 1024
GlyphClass: 2
Flags: W
LayerCount: 2
Fore
SplineSet
96 432 m 128,-1,1
 96 552 96 552 151 655 c 128,-1,2
 206 758 206 758 302 819 c 128,-1,3
 398 880 398 880 512 880 c 128,-1,4
 626 880 626 880 722 819 c 128,-1,5
 818 758 818 758 873 655 c 128,-1,6
 928 552 928 552 928 432 c 128,-1,7
 928 312 928 312 873 209 c 128,-1,8
 818 106 818 106 722 45 c 128,-1,9
 626 -16 626 -16 512 -16 c 128,-1,10
 398 -16 398 -16 302 45 c 128,-1,11
 206 106 206 106 151 209 c 128,-1,0
 96 312 96 312 96 432 c 128,-1,1
192 432 m 128,-1,13
 192 285 192 285 286.5 182.5 c 128,-1,14
 381 80 381 80 512 80 c 128,-1,15
 643 80 643 80 737.5 182.5 c 128,-1,16
 832 285 832 285 832 432 c 128,-1,17
 832 579 832 579 737.5 681.5 c 128,-1,18
 643 784 643 784 512 784 c 128,-1,19
 381 784 381 784 286.5 681.5 c 128,-1,12
 192 579 192 579 192 432 c 128,-1,13
EndSplineSet
EndChar

StartChar: p
Encoding: 112 112 83
Width: 1024
GlyphClass: 2
Flags: W
LayerCount: 2
Fore
SplineSet
592 80 m 0,0,1
 653 80 653 80 707 124 c 0,2,3
 762 169 762 169 797 251 c 128,-1,4
 832 333 832 333 832 432 c 128,-1,5
 832 531 832 531 797 613 c 128,-1,6
 762 695 762 695 707 740 c 0,7,8
 653 784 653 784 592 784 c 0,9,10
 528 784 528 784 470 754 c 0,11,12
 412 725 412 725 368.5 670 c 128,-1,13
 325 615 325 615 304 545 c 1,14,-1
 304 319 l 1,15,16
 325 249 325 249 368.5 194 c 128,-1,17
 412 139 412 139 470 110 c 0,18,19
 528 80 528 80 592 80 c 0,0,1
256 864 m 2,20,21
 277 864 277 864 290.5 849.5 c 128,-1,22
 304 835 304 835 304 816 c 0,23,24
 304 804 304 804 304 779.5 c 128,-1,25
 304 755 304 755 304 743 c 1,26,27
 357 804 357 804 426 840 c 0,28,29
 505 880 505 880 592 880 c 0,30,31
 687 880 687 880 768 815 c 0,32,33
 843 754 843 754 885.5 652.5 c 128,-1,34
 928 551 928 551 928 432 c 128,-1,35
 928 313 928 313 885.5 211.5 c 128,-1,36
 843 110 843 110 768 49 c 0,37,38
 687 -16 687 -16 592 -16 c 0,39,40
 505 -16 505 -16 426 24 c 0,41,42
 357 60 357 60 304 121 c 1,43,-1
 304 -288 l 1,44,-1
 416 -288 l 2,45,46
 436 -288 436 -288 450 -302 c 128,-1,47
 464 -316 464 -316 464 -336 c 128,-1,48
 464 -356 464 -356 450 -370 c 128,-1,49
 436 -384 436 -384 416 -384 c 2,50,-1
 96 -384 l 2,51,52
 76 -384 76 -384 62 -370 c 128,-1,53
 48 -356 48 -356 48 -336 c 128,-1,54
 48 -316 48 -316 62 -302 c 128,-1,55
 76 -288 76 -288 96 -288 c 2,56,-1
 208 -288 l 1,57,-1
 208 312 l 1,58,59
 208 312 208 312 208 313 c 1,60,61
 208 313 208 313 208 313 c 1,62,-1
 208 551 l 2,63,64
 208 552 208 552 208 552 c 1,65,-1
 208 768 l 1,66,-1
 96 768 l 2,67,68
 76 768 76 768 62 782 c 128,-1,69
 48 796 48 796 48 816 c 128,-1,70
 48 836 48 836 62 850 c 128,-1,71
 76 864 76 864 96 864 c 2,72,-1
 256 864 l 2,20,21
EndSplineSet
EndChar

StartChar: q
Encoding: 113 113 84
Width: 1024
GlyphClass: 2
Flags: W
LayerCount: 2
Fore
SplineSet
432 80 m 0,0,1
 496 80 496 80 554 110 c 0,2,3
 612 139 612 139 655.5 194 c 128,-1,4
 699 249 699 249 720 319 c 1,5,-1
 720 545 l 1,6,7
 699 615 699 615 655.5 670 c 128,-1,8
 612 725 612 725 554 754 c 0,9,10
 496 784 496 784 432 784 c 0,11,12
 371 784 371 784 317 740 c 0,13,14
 262 695 262 695 227 613 c 128,-1,15
 192 531 192 531 192 432 c 128,-1,16
 192 333 192 333 227 251 c 128,-1,17
 262 169 262 169 317 124 c 0,18,19
 371 80 371 80 432 80 c 0,0,1
928 -288 m 2,20,21
 948 -288 948 -288 962 -302 c 128,-1,22
 976 -316 976 -316 976 -336 c 128,-1,23
 976 -356 976 -356 962 -370 c 128,-1,24
 948 -384 948 -384 928 -384 c 2,25,-1
 608 -384 l 2,26,27
 588 -384 588 -384 574 -370 c 128,-1,28
 560 -356 560 -356 560 -336 c 128,-1,29
 560 -316 560 -316 574 -302 c 128,-1,30
 588 -288 588 -288 608 -288 c 2,31,-1
 720 -288 l 1,32,-1
 720 121 l 1,33,34
 667 60 667 60 598 24 c 0,35,36
 519 -16 519 -16 432 -16 c 0,37,38
 337 -16 337 -16 256 49 c 0,39,40
 181 110 181 110 138.5 211.5 c 128,-1,41
 96 313 96 313 96 432 c 128,-1,42
 96 551 96 551 138.5 652.5 c 128,-1,43
 181 754 181 754 256 815 c 0,44,45
 337 880 337 880 432 880 c 0,46,47
 519 880 519 880 598 840 c 0,48,49
 667 804 667 804 720 743 c 1,50,-1
 720 816 l 2,51,52
 720 836 720 836 734 850 c 128,-1,53
 748 864 748 864 768 864 c 128,-1,54
 788 864 788 864 802 850 c 128,-1,55
 816 836 816 836 816 816 c 2,56,-1
 816 553 l 2,57,58
 816 552 816 552 816 551.5 c 128,-1,59
 816 551 816 551 816 550 c 2,60,-1
 816 314 l 2,61,62
 816 313 816 313 816 312.5 c 128,-1,63
 816 312 816 312 816 311 c 2,64,-1
 816 -288 l 1,65,-1
 928 -288 l 2,20,21
EndSplineSet
EndChar

StartChar: r
Encoding: 114 114 85
Width: 1024
GlyphClass: 2
Flags: W
LayerCount: 2
Fore
SplineSet
860 718 m 1,0,1
 833 748 833 748 782 766 c 128,-1,2
 731 784 731 784 672 784 c 0,3,4
 586 784 586 784 525 723 c 128,-1,5
 464 662 464 662 464 576 c 0,6,7
 464 575 464 575 464 575 c 1,8,-1
 464 96 l 1,9,-1
 688 96 l 2,10,11
 708 96 708 96 722 82 c 128,-1,12
 736 68 736 68 736 48 c 128,-1,13
 736 28 736 28 722 14 c 128,-1,14
 708 0 708 0 688 0 c 2,15,-1
 144 0 l 2,16,17
 124 0 124 0 110 14 c 128,-1,18
 96 28 96 28 96 48 c 128,-1,19
 96 68 96 68 110 82 c 128,-1,20
 124 96 124 96 144 96 c 2,21,-1
 368 96 l 1,22,-1
 368 768 l 1,23,-1
 144 768 l 2,24,25
 124 768 124 768 110 782 c 128,-1,26
 96 796 96 796 96 816 c 128,-1,27
 96 836 96 836 110 850 c 128,-1,28
 124 864 124 864 144 864 c 2,29,-1
 416 864 l 2,30,31
 437 864 437 864 450.5 849.5 c 128,-1,32
 464 835 464 835 464 816 c 0,33,34
 464 813 464 813 464 807 c 128,-1,35
 464 801 464 801 464 797 c 1,36,37
 552 880 552 880 672 880 c 0,38,39
 752 880 752 880 819.5 854.5 c 128,-1,40
 887 829 887 829 928 785 c 0,41,42
 976 734 976 734 976 672 c 2,43,-1
 976 624 l 2,44,45
 976 584 976 584 948 556 c 128,-1,46
 920 528 920 528 880 528 c 128,-1,47
 840 528 840 528 812 556 c 128,-1,48
 784 584 784 584 784 624 c 0,49,50
 784 658 784 658 805.5 684.5 c 128,-1,51
 827 711 827 711 860 718 c 1,0,1
EndSplineSet
EndChar

StartChar: s
Encoding: 115 115 86
Width: 1024
GlyphClass: 2
Flags: W
LayerCount: 2
Fore
SplineSet
752 816 m 2,0,1
 752 836 752 836 766 850 c 128,-1,2
 780 864 780 864 800 864 c 128,-1,3
 820 864 820 864 834 850 c 128,-1,4
 848 836 848 836 848 816 c 2,5,-1
 848 592 l 2,6,7
 848 572 848 572 834 558 c 128,-1,8
 820 544 820 544 800 544 c 128,-1,9
 780 544 780 544 766 558 c 128,-1,10
 752 572 752 572 752 592 c 0,11,12
 752 644 752 644 724 687 c 128,-1,13
 696 730 696 730 644 756 c 0,14,15
 587 784 587 784 512 784 c 0,16,17
 390 784 390 784 330 761 c 0,18,19
 296 749 296 749 279 729 c 0,20,21
 256 703 256 703 256 656 c 0,22,23
 256 626 256 626 286 597 c 0,24,25
 322 563 322 563 385 540.5 c 128,-1,26
 448 518 448 518 516 512 c 0,27,28
 612 503 612 503 696 469.5 c 128,-1,29
 780 436 780 436 832 384 c 0,30,31
 896 319 896 319 896 240 c 0,32,33
 896 150 896 150 847 90 c 0,34,35
 811 46 811 46 750 21 c 0,36,37
 662 -16 662 -16 512 -16 c 0,38,39
 427 -16 427 -16 352 12 c 128,-1,40
 277 40 277 40 224 90 c 1,41,-1
 224 48 l 2,42,43
 224 28 224 28 210 14 c 128,-1,44
 196 0 196 0 176 0 c 128,-1,45
 156 0 156 0 142 14 c 128,-1,46
 128 28 128 28 128 48 c 2,47,-1
 128 304 l 2,48,49
 128 324 128 324 142 338 c 128,-1,50
 156 352 156 352 176 352 c 128,-1,51
 196 352 196 352 210 338 c 128,-1,52
 224 324 224 324 224 304 c 0,53,54
 224 265 224 265 240 229 c 0,55,56
 269 164 269 164 342 122 c 128,-1,57
 415 80 415 80 512 80 c 0,58,59
 642 80 642 80 713 109 c 0,60,61
 752 126 752 126 773 151 c 0,62,63
 800 184 800 184 800 240 c 0,64,65
 800 280 800 280 764 316 c 0,66,67
 725 356 725 356 654.5 383 c 128,-1,68
 584 410 584 410 508 416 c 0,69,70
 421 424 421 424 344.5 453 c 128,-1,71
 268 482 268 482 220 527 c 0,72,73
 160 585 160 585 160 656 c 0,74,75
 160 738 160 738 206 791 c 0,76,77
 249 842 249 842 325.5 861 c 128,-1,78
 402 880 402 880 512 880 c 0,79,80
 609 880 609 880 686 842 c 0,81,82
 722 824 722 824 752 799 c 1,83,-1
 752 816 l 2,0,1
EndSplineSet
EndChar

StartChar: t
Encoding: 116 116 87
Width: 1024
GlyphClass: 2
Flags: W
LayerCount: 2
Fore
SplineSet
112 768 m 2,0,1
 92 768 92 768 78 782 c 128,-1,2
 64 796 64 796 64 816 c 128,-1,3
 64 836 64 836 78 850 c 128,-1,4
 92 864 92 864 112 864 c 2,5,-1
 336 864 l 1,6,-1
 336 1184 l 2,7,8
 336 1204 336 1204 350 1218 c 128,-1,9
 364 1232 364 1232 384 1232 c 128,-1,10
 404 1232 404 1232 418 1218 c 128,-1,11
 432 1204 432 1204 432 1184 c 2,12,-1
 432 864 l 1,13,-1
 656 864 l 2,14,15
 676 864 676 864 690 850 c 128,-1,16
 704 836 704 836 704 816 c 128,-1,17
 704 796 704 796 690 782 c 128,-1,18
 676 768 676 768 656 768 c 2,19,-1
 432 768 l 1,20,-1
 432 224 l 2,21,22
 432 164 432 164 474 122 c 128,-1,23
 516 80 516 80 576 80 c 0,24,25
 689 80 689 80 768.5 159.5 c 128,-1,26
 848 239 848 239 848 352 c 0,27,28
 848 372 848 372 862 386 c 128,-1,29
 876 400 876 400 896 400 c 128,-1,30
 916 400 916 400 930 386 c 128,-1,31
 944 372 944 372 944 352 c 0,32,33
 944 199 944 199 836.5 91.5 c 128,-1,34
 729 -16 729 -16 576 -16 c 0,35,36
 477 -16 477 -16 406.5 54.5 c 128,-1,37
 336 125 336 125 336 224 c 2,38,-1
 336 768 l 1,39,-1
 112 768 l 2,0,1
EndSplineSet
EndChar

StartChar: u
Encoding: 117 117 88
Width: 1024
GlyphClass: 2
Flags: W
LayerCount: 2
Fore
SplineSet
256 864 m 2,0,1
 277 864 277 864 290.5 849.5 c 128,-1,2
 304 835 304 835 304 816 c 2,3,-1
 304 224 l 2,4,5
 304 164 304 164 346 122 c 128,-1,6
 388 80 388 80 448 80 c 0,7,8
 561 80 561 80 640.5 159.5 c 128,-1,9
 720 239 720 239 720 352 c 2,10,-1
 720 768 l 1,11,-1
 608 768 l 2,12,13
 588 768 588 768 574 782 c 128,-1,14
 560 796 560 796 560 816 c 128,-1,15
 560 836 560 836 574 850 c 128,-1,16
 588 864 588 864 608 864 c 2,17,-1
 768 864 l 2,18,19
 786 864 786 864 799 853 c 0,20,21
 816 838 816 838 816 816 c 2,22,-1
 816 352 l 2,23,24
 816 350 816 350 816 349 c 2,25,-1
 816 96 l 1,26,-1
 928 96 l 2,27,28
 948 96 948 96 962 82 c 128,-1,29
 976 68 976 68 976 48 c 128,-1,30
 976 28 976 28 962 14 c 128,-1,31
 948 0 948 0 928 0 c 2,32,-1
 768 0 l 2,33,34
 748 0 748 0 734 14 c 128,-1,35
 720 28 720 28 720 48 c 2,36,-1
 720 104 l 1,37,38
 669 48 669 48 598 16 c 128,-1,39
 527 -16 527 -16 448 -16 c 0,40,41
 349 -16 349 -16 278.5 54.5 c 128,-1,42
 208 125 208 125 208 224 c 2,43,-1
 208 768 l 1,44,-1
 96 768 l 2,45,46
 76 768 76 768 62 782 c 128,-1,47
 48 796 48 796 48 816 c 128,-1,48
 48 836 48 836 62 850 c 128,-1,49
 76 864 76 864 96 864 c 2,50,-1
 256 864 l 2,0,1
EndSplineSet
EndChar

StartChar: v
Encoding: 118 118 89
Width: 1024
GlyphClass: 2
Flags: W
LayerCount: 2
Fore
SplineSet
640 768 m 2,0,1
 620 768 620 768 606 782 c 128,-1,2
 592 796 592 796 592 816 c 128,-1,3
 592 836 592 836 606 850 c 128,-1,4
 620 864 620 864 640 864 c 2,5,-1
 960 864 l 2,6,7
 980 864 980 864 994 850 c 128,-1,8
 1008 836 1008 836 1008 816 c 128,-1,9
 1008 796 1008 796 994 782 c 128,-1,10
 980 768 980 768 960 768 c 2,11,-1
 855 768 l 1,12,-1
 589 32 l 2,13,14
 584 17 584 17 571.5 8.5 c 128,-1,15
 559 0 559 0 544 0 c 2,16,-1
 480 0 l 2,17,18
 465 0 465 0 452.5 8.5 c 128,-1,19
 440 17 440 17 435 32 c 2,20,-1
 169 768 l 1,21,-1
 64 768 l 2,22,23
 44 768 44 768 30 782 c 128,-1,24
 16 796 16 796 16 816 c 128,-1,25
 16 836 16 836 30 850 c 128,-1,26
 44 864 44 864 64 864 c 2,27,-1
 384 864 l 2,28,29
 404 864 404 864 418 850 c 128,-1,30
 432 836 432 836 432 816 c 128,-1,31
 432 796 432 796 418 782 c 128,-1,32
 404 768 404 768 384 768 c 2,33,-1
 271 768 l 1,34,-1
 512 101 l 1,35,-1
 753 768 l 1,36,-1
 640 768 l 2,0,1
EndSplineSet
EndChar

StartChar: w
Encoding: 119 119 90
Width: 1024
GlyphClass: 2
Flags: W
LayerCount: 2
Fore
SplineSet
656 768 m 2,0,1
 636 768 636 768 622 782 c 128,-1,2
 608 796 608 796 608 816 c 128,-1,3
 608 836 608 836 622 850 c 128,-1,4
 636 864 636 864 656 864 c 2,5,-1
 944 864 l 2,6,7
 964 864 964 864 978 850 c 128,-1,8
 992 836 992 836 992 816 c 128,-1,9
 992 796 992 796 978 782 c 128,-1,10
 964 768 964 768 944 768 c 2,11,-1
 877 768 l 1,12,-1
 816 44 l 2,13,14
 814 25 814 25 800.5 12.5 c 128,-1,15
 787 0 787 0 768 0 c 2,16,-1
 704 0 l 2,17,18
 689 0 689 0 676.5 8.5 c 128,-1,19
 664 17 664 17 659 31 c 2,20,-1
 512 423 l 1,21,-1
 365 31 l 2,22,23
 360 17 360 17 347.5 8.5 c 128,-1,24
 335 0 335 0 320 0 c 2,25,-1
 256 0 l 2,26,27
 237 0 237 0 223.5 12.5 c 128,-1,28
 210 25 210 25 208 44 c 2,29,-1
 147 768 l 1,30,-1
 80 768 l 2,31,32
 60 768 60 768 46 782 c 128,-1,33
 32 796 32 796 32 816 c 128,-1,34
 32 836 32 836 46 850 c 128,-1,35
 60 864 60 864 80 864 c 2,36,-1
 368 864 l 2,37,38
 388 864 388 864 402 850 c 128,-1,39
 416 836 416 836 416 816 c 128,-1,40
 416 796 416 796 402 782 c 128,-1,41
 388 768 388 768 368 768 c 2,42,-1
 243 768 l 1,43,-1
 298 125 l 1,44,-1
 467 577 l 2,45,46
 472 591 472 591 484.5 599.5 c 128,-1,47
 497 608 497 608 512 608 c 128,-1,48
 527 608 527 608 539.5 599.5 c 128,-1,49
 552 591 552 591 557 577 c 2,50,-1
 726 125 l 1,51,-1
 781 768 l 1,52,-1
 656 768 l 2,0,1
EndSplineSet
EndChar

StartChar: x
Encoding: 120 120 91
Width: 1024
GlyphClass: 2
Flags: W
LayerCount: 2
Fore
SplineSet
400 96 m 2,0,1
 420 96 420 96 434 82 c 128,-1,2
 448 68 448 68 448 48 c 128,-1,3
 448 28 448 28 434 14 c 128,-1,4
 420 0 420 0 400 0 c 2,5,-1
 80 0 l 2,6,7
 60 0 60 0 46 14 c 128,-1,8
 32 28 32 28 32 48 c 128,-1,9
 32 68 32 68 46 82 c 128,-1,10
 60 96 60 96 80 96 c 2,11,-1
 172 96 l 1,12,-1
 450 442 l 1,13,-1
 188 768 l 1,14,-1
 96 768 l 2,15,16
 76 768 76 768 62 782 c 128,-1,17
 48 796 48 796 48 816 c 128,-1,18
 48 836 48 836 62 850 c 128,-1,19
 76 864 76 864 96 864 c 2,20,-1
 416 864 l 2,21,22
 436 864 436 864 450 850 c 128,-1,23
 464 836 464 836 464 816 c 128,-1,24
 464 796 464 796 450 782 c 128,-1,25
 436 768 436 768 416 768 c 2,26,-1
 311 768 l 1,27,-1
 512 519 l 1,28,-1
 713 768 l 1,29,-1
 608 768 l 2,30,31
 588 768 588 768 574 782 c 128,-1,32
 560 796 560 796 560 816 c 128,-1,33
 560 836 560 836 574 850 c 128,-1,34
 588 864 588 864 608 864 c 2,35,-1
 928 864 l 2,36,37
 948 864 948 864 962 850 c 128,-1,38
 976 836 976 836 976 816 c 128,-1,39
 976 796 976 796 962 782 c 128,-1,40
 948 768 948 768 928 768 c 2,41,-1
 836 768 l 1,42,-1
 574 442 l 1,43,-1
 852 96 l 1,44,-1
 944 96 l 2,45,46
 964 96 964 96 978 82 c 128,-1,47
 992 68 992 68 992 48 c 128,-1,48
 992 28 992 28 978 14 c 128,-1,49
 964 0 964 0 944 0 c 2,50,-1
 624 0 l 2,51,52
 604 0 604 0 590 14 c 128,-1,53
 576 28 576 28 576 48 c 128,-1,54
 576 68 576 68 590 82 c 128,-1,55
 604 96 604 96 624 96 c 2,56,-1
 729 96 l 1,57,-1
 512 365 l 1,58,-1
 295 96 l 1,59,-1
 400 96 l 2,0,1
EndSplineSet
EndChar

StartChar: y
Encoding: 121 121 92
Width: 1024
GlyphClass: 2
Flags: W
LayerCount: 2
Fore
SplineSet
592 816 m 128,-1,1
 592 836 592 836 606 850 c 128,-1,2
 620 864 620 864 640 864 c 2,3,-1
 820 864 l 2,4,5
 821 864 821 864 822 864 c 128,-1,6
 823 864 823 864 824 864 c 2,7,-1
 960 864 l 2,8,9
 980 864 980 864 994 850 c 128,-1,10
 1008 836 1008 836 1008 816 c 128,-1,11
 1008 796 1008 796 994 782 c 128,-1,12
 980 768 980 768 960 768 c 2,13,-1
 856 768 l 1,14,-1
 493 -224 l 2,15,16
 476 -275 476 -275 442 -321 c 0,17,18
 383 -400 383 -400 304 -400 c 2,19,-1
 288 -400 l 2,20,21
 199 -400 199 -400 139 -352 c 0,22,23
 102 -323 102 -323 83 -281 c 128,-1,24
 64 -239 64 -239 64 -192 c 2,25,-1
 64 -144 l 2,26,27
 64 -104 64 -104 92 -76 c 128,-1,28
 120 -48 120 -48 160 -48 c 128,-1,29
 200 -48 200 -48 228 -76 c 128,-1,30
 256 -104 256 -104 256 -144 c 0,31,32
 256 -181 256 -181 231 -208.5 c 128,-1,33
 206 -236 206 -236 170 -240 c 1,34,35
 179 -262 179 -262 198 -277 c 0,36,37
 233 -304 233 -304 288 -304 c 2,38,-1
 304 -304 l 2,39,40
 335 -304 335 -304 365 -263 c 0,41,42
 388 -233 388 -233 403 -192 c 2,43,-1
 461 -33 l 1,44,-1
 169 768 l 1,45,-1
 64 768 l 2,46,47
 44 768 44 768 30 782 c 128,-1,48
 16 796 16 796 16 816 c 128,-1,49
 16 836 16 836 30 850 c 128,-1,50
 44 864 44 864 64 864 c 2,51,-1
 384 864 l 2,52,53
 404 864 404 864 418 850 c 128,-1,54
 432 836 432 836 432 816 c 128,-1,55
 432 796 432 796 418 782 c 128,-1,56
 404 768 404 768 384 768 c 2,57,-1
 271 768 l 1,58,-1
 512 107 l 1,59,-1
 753 768 l 1,60,-1
 640 768 l 2,61,62
 620 768 620 768 606 782 c 128,-1,0
 592 796 592 796 592 816 c 128,-1,1
EndSplineSet
EndChar

StartChar: z
Encoding: 122 122 93
Width: 1024
GlyphClass: 2
Flags: W
LayerCount: 2
Fore
SplineSet
864 864 m 2,0,1
 885 864 885 864 898.5 849.5 c 128,-1,2
 912 835 912 835 912 816 c 256,3,4
 912 797 912 797 899 783 c 2,5,-1
 240 96 l 1,6,-1
 848 96 l 1,7,-1
 848 304 l 2,8,9
 848 324 848 324 862 338 c 128,-1,10
 876 352 876 352 896 352 c 128,-1,11
 916 352 916 352 930 338 c 128,-1,12
 944 324 944 324 944 304 c 2,13,-1
 944 48 l 2,14,15
 944 28 944 28 930 14 c 128,-1,16
 916 0 916 0 896 0 c 2,17,-1
 128 0 l 2,18,19
 107 0 107 0 93.5 14.5 c 128,-1,20
 80 29 80 29 80 48 c 256,21,22
 80 67 80 67 93 81 c 2,23,-1
 752 768 l 1,24,-1
 208 768 l 1,25,-1
 208 592 l 2,26,27
 208 572 208 572 194 558 c 128,-1,28
 180 544 180 544 160 544 c 128,-1,29
 140 544 140 544 126 558 c 128,-1,30
 112 572 112 572 112 592 c 2,31,-1
 112 816 l 2,32,33
 112 836 112 836 126 850 c 128,-1,34
 140 864 140 864 160 864 c 2,35,-1
 864 864 l 2,0,1
EndSplineSet
EndChar

StartChar: braceleft
Encoding: 123 123 94
Width: 1024
GlyphClass: 2
Flags: W
LayerCount: 2
Fore
SplineSet
464 368 m 2,0,1
 464 454 464 454 403 515 c 128,-1,2
 342 576 342 576 256 576 c 0,3,4
 236 576 236 576 222 590 c 128,-1,5
 208 604 208 604 208 624 c 128,-1,6
 208 644 208 644 222 658 c 128,-1,7
 236 672 236 672 256 672 c 0,8,9
 342 672 342 672 403 733 c 128,-1,10
 464 794 464 794 464 880 c 2,11,-1
 464 1136 l 2,12,13
 464 1262 464 1262 553 1351 c 128,-1,14
 642 1440 642 1440 768 1440 c 0,15,16
 788 1440 788 1440 802 1426 c 128,-1,17
 816 1412 816 1412 816 1392 c 128,-1,18
 816 1372 816 1372 802 1358 c 128,-1,19
 788 1344 788 1344 768 1344 c 0,20,21
 682 1344 682 1344 621 1283 c 128,-1,22
 560 1222 560 1222 560 1136 c 2,23,-1
 560 880 l 2,24,25
 560 801 560 801 522 733 c 128,-1,26
 484 665 484 665 420 624 c 1,27,28
 484 583 484 583 522 515 c 128,-1,29
 560 447 560 447 560 368 c 2,30,-1
 560 112 l 2,31,32
 560 26 560 26 621 -35 c 128,-1,33
 682 -96 682 -96 768 -96 c 0,34,35
 788 -96 788 -96 802 -110 c 128,-1,36
 816 -124 816 -124 816 -144 c 128,-1,37
 816 -164 816 -164 802 -178 c 128,-1,38
 788 -192 788 -192 768 -192 c 0,39,40
 642 -192 642 -192 553 -103 c 128,-1,41
 464 -14 464 -14 464 112 c 2,42,-1
 464 368 l 2,0,1
EndSplineSet
EndChar

StartChar: bar
Encoding: 124 124 95
Width: 1024
GlyphClass: 2
Flags: W
LayerCount: 2
Fore
SplineSet
464 1392 m 2,0,1
 464 1412 464 1412 478 1426 c 128,-1,2
 492 1440 492 1440 512 1440 c 128,-1,3
 532 1440 532 1440 546 1426 c 128,-1,4
 560 1412 560 1412 560 1392 c 2,5,-1
 560 -144 l 2,6,7
 560 -164 560 -164 546 -178 c 128,-1,8
 532 -192 532 -192 512 -192 c 128,-1,9
 492 -192 492 -192 478 -178 c 128,-1,10
 464 -164 464 -164 464 -144 c 2,11,-1
 464 1392 l 2,0,1
EndSplineSet
EndChar

StartChar: braceright
Encoding: 125 125 96
Width: 1024
GlyphClass: 2
Flags: W
LayerCount: 2
Fore
SplineSet
464 880 m 2,0,-1
 464 1136 l 2,1,2
 464 1222 464 1222 403 1283 c 128,-1,3
 342 1344 342 1344 256 1344 c 0,4,5
 236 1344 236 1344 222 1358 c 128,-1,6
 208 1372 208 1372 208 1392 c 128,-1,7
 208 1412 208 1412 222 1426 c 128,-1,8
 236 1440 236 1440 256 1440 c 0,9,10
 382 1440 382 1440 471 1351 c 128,-1,11
 560 1262 560 1262 560 1136 c 2,12,-1
 560 880 l 2,13,14
 560 794 560 794 621 733 c 128,-1,15
 682 672 682 672 768 672 c 0,16,17
 788 672 788 672 802 658 c 128,-1,18
 816 644 816 644 816 624 c 128,-1,19
 816 604 816 604 802 590 c 128,-1,20
 788 576 788 576 768 576 c 0,21,22
 682 576 682 576 621 515 c 128,-1,23
 560 454 560 454 560 368 c 2,24,-1
 560 112 l 2,25,26
 560 -14 560 -14 471 -103 c 128,-1,27
 382 -192 382 -192 256 -192 c 0,28,29
 236 -192 236 -192 222 -178 c 128,-1,30
 208 -164 208 -164 208 -144 c 128,-1,31
 208 -124 208 -124 222 -110 c 128,-1,32
 236 -96 236 -96 256 -96 c 0,33,34
 342 -96 342 -96 403 -35 c 128,-1,35
 464 26 464 26 464 112 c 2,36,-1
 464 368 l 2,37,38
 464 447 464 447 502 515 c 128,-1,39
 540 583 540 583 604 624 c 1,40,41
 540 665 540 665 502 733 c 128,-1,42
 464 801 464 801 464 880 c 2,0,-1
EndSplineSet
EndChar

StartChar: asciitilde
Encoding: 126 126 97
Width: 1024
GlyphClass: 2
Flags: W
LayerCount: 2
Fore
SplineSet
192 432 m 0,0,1
 192 412 192 412 178 398 c 128,-1,2
 164 384 164 384 144 384 c 128,-1,3
 124 384 124 384 110 398 c 128,-1,4
 96 412 96 412 96 432 c 0,5,6
 96 533 96 533 118 606 c 0,7,8
 139 673 139 673 177 714 c 0,9,10
 229 768 229 768 304 768 c 0,11,12
 378 768 378 768 437 739 c 0,13,14
 482 717 482 717 545 659 c 0,15,16
 597 611 597 611 629 595 c 0,17,18
 668 576 668 576 720 576 c 0,19,20
 754 576 754 576 777 601 c 0,21,22
 800 625 800 625 814 670 c 0,23,24
 832 729 832 729 832 816 c 0,25,26
 832 836 832 836 846 850 c 128,-1,27
 860 864 860 864 880 864 c 128,-1,28
 900 864 900 864 914 850 c 128,-1,29
 928 836 928 836 928 816 c 0,30,31
 928 715 928 715 906 642 c 0,32,33
 885 575 885 575 847 534 c 0,34,35
 795 480 795 480 720 480 c 0,36,37
 646 480 646 480 587 509 c 0,38,39
 542 531 542 531 479 589 c 0,40,41
 427 637 427 637 395 653 c 0,42,43
 356 672 356 672 304 672 c 0,44,45
 270 672 270 672 247 647 c 0,46,47
 224 623 224 623 210 578 c 0,48,49
 192 519 192 519 192 432 c 0,0,1
EndSplineSet
EndChar

StartChar: sterling
Encoding: 163 163 101
Width: 1024
GlyphClass: 2
Flags: W
LayerCount: 2
Fore
SplineSet
192 160 m 128,-1,1
 192 127 192 127 215.5 103.5 c 128,-1,2
 239 80 239 80 272 80 c 128,-1,3
 305 80 305 80 328.5 103.5 c 128,-1,4
 352 127 352 127 352 160 c 0,5,6
 352 190 352 190 349 224 c 1,7,8
 312 240 312 240 272 240 c 0,9,10
 239 240 239 240 215.5 216.5 c 128,-1,0
 192 193 192 193 192 160 c 128,-1,1
334 329 m 1,11,12
 320 407 320 407 276 576 c 1,13,-1
 144 576 l 2,14,15
 124 576 124 576 110 590 c 128,-1,16
 96 604 96 604 96 624 c 128,-1,17
 96 644 96 644 110 658 c 128,-1,18
 124 672 124 672 144 672 c 2,19,-1
 251 672 l 1,20,21
 208 849 208 849 208 960 c 0,22,23
 208 1086 208 1086 297 1175 c 128,-1,24
 386 1264 386 1264 512 1264 c 128,-1,25
 638 1264 638 1264 727 1175 c 128,-1,26
 816 1086 816 1086 816 960 c 2,27,-1
 816 912 l 2,28,29
 816 872 816 872 788 844 c 128,-1,30
 760 816 760 816 720 816 c 128,-1,31
 680 816 680 816 652 844 c 128,-1,32
 624 872 624 872 624 912 c 0,33,34
 624 950 624 950 650.5 978 c 128,-1,35
 677 1006 677 1006 714 1008 c 1,36,37
 698 1077 698 1077 641.5 1122.5 c 128,-1,38
 585 1168 585 1168 512 1168 c 0,39,40
 426 1168 426 1168 365 1107 c 128,-1,41
 304 1046 304 1046 304 960 c 0,42,43
 304 858 304 858 350 672 c 1,44,-1
 512 672 l 2,45,46
 532 672 532 672 546 658 c 128,-1,47
 560 644 560 644 560 624 c 128,-1,48
 560 604 560 604 546 590 c 128,-1,49
 532 576 532 576 512 576 c 2,50,-1
 375 576 l 1,51,52
 426 381 426 381 439 284 c 1,53,54
 476 260 476 260 544 197 c 0,55,56
 578 167 578 167 598 150.5 c 128,-1,57
 618 134 618 134 647 115 c 128,-1,58
 676 96 676 96 705.5 88 c 128,-1,59
 735 80 735 80 768 80 c 0,60,61
 793 80 793 80 817 101 c 0,62,63
 845 126 845 126 862.5 172.5 c 128,-1,64
 880 219 880 219 880 272 c 0,65,66
 880 292 880 292 894 306 c 128,-1,67
 908 320 908 320 928 320 c 128,-1,68
 948 320 948 320 962 306 c 128,-1,69
 976 292 976 292 976 272 c 0,70,71
 976 196 976 196 950 132 c 128,-1,72
 924 68 924 68 880 29 c 0,73,74
 829 -16 829 -16 768 -16 c 0,75,76
 729 -16 729 -16 691.5 -6 c 128,-1,77
 654 4 654 4 628.5 15.5 c 128,-1,78
 603 27 603 27 570.5 50.5 c 128,-1,79
 538 74 538 74 523 87.5 c 128,-1,80
 508 101 508 101 478 128 c 0,81,82
 459 145 459 145 448 155 c 1,83,84
 446 84 446 84 395 34 c 128,-1,85
 344 -16 344 -16 272 -16 c 0,86,87
 199 -16 199 -16 147.5 35.5 c 128,-1,88
 96 87 96 87 96 160 c 128,-1,89
 96 233 96 233 147.5 284.5 c 128,-1,90
 199 336 199 336 272 336 c 0,91,92
 304 336 304 336 334 329 c 1,11,12
EndSplineSet
EndChar

StartChar: currency
Encoding: 164 164 102
Width: 1024
GlyphClass: 2
Flags: W
LayerCount: 2
Fore
SplineSet
368 624 m 128,-1,1
 368 564 368 564 410 522 c 128,-1,2
 452 480 452 480 512 480 c 128,-1,3
 572 480 572 480 614 522 c 128,-1,4
 656 564 656 564 656 624 c 128,-1,5
 656 684 656 684 614 726 c 128,-1,6
 572 768 572 768 512 768 c 128,-1,7
 452 768 452 768 410 726 c 128,-1,0
 368 684 368 684 368 624 c 128,-1,1
832 352 m 128,-1,9
 832 332 832 332 818 318 c 128,-1,10
 804 304 804 304 784 304 c 128,-1,11
 764 304 764 304 750 318 c 2,12,-1
 644 424 l 1,13,14
 584 384 584 384 512 384 c 128,-1,15
 440 384 440 384 380 424 c 1,16,-1
 274 318 l 2,17,18
 260 304 260 304 240 304 c 128,-1,19
 220 304 220 304 206 318 c 128,-1,20
 192 332 192 332 192 352 c 128,-1,21
 192 372 192 372 206 386 c 2,22,-1
 312 492 l 1,23,24
 272 552 272 552 272 624 c 128,-1,25
 272 696 272 696 312 756 c 1,26,-1
 206 862 l 2,27,28
 192 876 192 876 192 896 c 128,-1,29
 192 916 192 916 206 930 c 128,-1,30
 220 944 220 944 240 944 c 128,-1,31
 260 944 260 944 274 930 c 2,32,-1
 380 824 l 1,33,34
 440 864 440 864 512 864 c 128,-1,35
 584 864 584 864 644 824 c 1,36,-1
 750 930 l 2,37,38
 764 944 764 944 784 944 c 128,-1,39
 804 944 804 944 818 930 c 128,-1,40
 832 916 832 916 832 896 c 128,-1,41
 832 876 832 876 818 862 c 2,42,-1
 712 756 l 1,43,44
 752 696 752 696 752 624 c 128,-1,45
 752 552 752 552 712 492 c 1,46,-1
 818 386 l 2,47,8
 832 372 832 372 832 352 c 128,-1,9
EndSplineSet
EndChar

StartChar: brokenbar
Encoding: 166 166 104
Width: 1024
GlyphClass: 2
Flags: W
LayerCount: 2
Fore
SplineSet
464 1392 m 2,0,1
 464 1412 464 1412 478 1426 c 128,-1,2
 492 1440 492 1440 512 1440 c 128,-1,3
 532 1440 532 1440 546 1426 c 128,-1,4
 560 1412 560 1412 560 1392 c 2,5,-1
 560 816 l 2,6,7
 560 796 560 796 546 782 c 128,-1,8
 532 768 532 768 512 768 c 128,-1,9
 492 768 492 768 478 782 c 128,-1,10
 464 796 464 796 464 816 c 2,11,-1
 464 1392 l 2,0,1
464 432 m 2,12,13
 464 452 464 452 478 466 c 128,-1,14
 492 480 492 480 512 480 c 128,-1,15
 532 480 532 480 546 466 c 128,-1,16
 560 452 560 452 560 432 c 2,17,-1
 560 -144 l 2,18,19
 560 -164 560 -164 546 -178 c 128,-1,20
 532 -192 532 -192 512 -192 c 128,-1,21
 492 -192 492 -192 478 -178 c 128,-1,22
 464 -164 464 -164 464 -144 c 2,23,-1
 464 432 l 2,12,13
EndSplineSet
EndChar

StartChar: section
Encoding: 167 167 105
Width: 1024
GlyphClass: 2
Flags: W
LayerCount: 2
Fore
SplineSet
192 464 m 0,0,1
 192 389 192 389 239 338 c 0,2,3
 276 298 276 298 343 270 c 0,4,5
 414 240 414 240 520 223 c 0,6,7
 524 224 524 224 528 224 c 0,8,9
 632 224 632 224 704 248 c 0,10,11
 762 267 762 267 794 300 c 0,12,13
 832 340 832 340 832 400 c 0,14,15
 832 475 832 475 785 526 c 0,16,17
 748 566 748 566 681 594 c 0,18,19
 610 624 610 624 504 641 c 0,20,21
 500 640 500 640 496 640 c 0,22,23
 392 640 392 640 320 616 c 0,24,25
 262 597 262 597 230 564 c 0,26,27
 192 524 192 524 192 464 c 0,0,1
928 400 m 0,28,29
 928 305 928 305 872 243.5 c 128,-1,30
 816 182 816 182 727 154 c 1,31,32
 794 116 794 116 836 62 c 0,33,34
 896 -16 896 -16 896 -112 c 0,35,36
 896 -194 896 -194 839 -263 c 0,37,38
 786 -327 786 -327 699.5 -363.5 c 128,-1,39
 613 -400 613 -400 512 -400 c 128,-1,40
 411 -400 411 -400 324.5 -363.5 c 128,-1,41
 238 -327 238 -327 185 -263 c 0,42,43
 128 -194 128 -194 128 -112 c 2,44,-1
 128 -64 l 2,45,46
 128 -24 128 -24 156 4 c 128,-1,47
 184 32 184 32 224 32 c 128,-1,48
 264 32 264 32 292 4 c 128,-1,49
 320 -24 320 -24 320 -64 c 0,50,51
 320 -101 320 -101 295 -128.5 c 128,-1,52
 270 -156 270 -156 233 -160 c 1,53,54
 242 -182 242 -182 259 -202 c 0,55,56
 296 -247 296 -247 363.5 -275.5 c 128,-1,57
 431 -304 431 -304 512 -304 c 128,-1,58
 593 -304 593 -304 660.5 -275.5 c 128,-1,59
 728 -247 728 -247 765 -202 c 0,60,61
 800 -160 800 -160 800 -112 c 0,62,63
 800 -49 800 -49 760 3 c 0,64,65
 727 46 727 46 669 77 c 0,66,67
 600 114 600 114 505 129 c 0,68,69
 388 146 388 146 305 182 c 0,70,71
 220 218 220 218 169 273 c 0,72,73
 96 352 96 352 96 464 c 0,74,75
 96 559 96 559 152 620.5 c 128,-1,76
 208 682 208 682 297 710 c 1,77,78
 230 748 230 748 188 802 c 0,79,80
 128 880 128 880 128 976 c 0,81,82
 128 1058 128 1058 185 1127 c 0,83,84
 238 1191 238 1191 324.5 1227.5 c 128,-1,85
 411 1264 411 1264 512 1264 c 128,-1,86
 613 1264 613 1264 699.5 1227.5 c 128,-1,87
 786 1191 786 1191 839 1127 c 0,88,89
 896 1058 896 1058 896 976 c 2,90,-1
 896 928 l 2,91,92
 896 888 896 888 868 860 c 128,-1,93
 840 832 840 832 800 832 c 128,-1,94
 760 832 760 832 732 860 c 128,-1,95
 704 888 704 888 704 928 c 0,96,97
 704 965 704 965 729 992.5 c 128,-1,98
 754 1020 754 1020 791 1024 c 1,99,100
 782 1046 782 1046 765 1066 c 0,101,102
 728 1111 728 1111 660.5 1139.5 c 128,-1,103
 593 1168 593 1168 512 1168 c 128,-1,104
 431 1168 431 1168 363.5 1139.5 c 128,-1,105
 296 1111 296 1111 259 1066 c 0,106,107
 224 1024 224 1024 224 976 c 0,108,109
 224 913 224 913 264 861 c 0,110,111
 297 818 297 818 355 787 c 0,112,113
 424 750 424 750 519 735 c 0,114,115
 636 718 636 718 719 682 c 0,116,117
 804 646 804 646 855 591 c 0,118,119
 928 512 928 512 928 400 c 0,28,29
EndSplineSet
EndChar

StartChar: dieresis
Encoding: 168 168 106
Width: 1024
GlyphClass: 2
Flags: W
LayerCount: 2
Fore
SplineSet
224 1168 m 128,-1,1
 224 1208 224 1208 252 1236 c 128,-1,2
 280 1264 280 1264 320 1264 c 128,-1,3
 360 1264 360 1264 388 1236 c 128,-1,4
 416 1208 416 1208 416 1168 c 128,-1,5
 416 1128 416 1128 388 1100 c 128,-1,6
 360 1072 360 1072 320 1072 c 128,-1,7
 280 1072 280 1072 252 1100 c 128,-1,0
 224 1128 224 1128 224 1168 c 128,-1,1
608 1168 m 128,-1,9
 608 1208 608 1208 636 1236 c 128,-1,10
 664 1264 664 1264 704 1264 c 128,-1,11
 744 1264 744 1264 772 1236 c 128,-1,12
 800 1208 800 1208 800 1168 c 128,-1,13
 800 1128 800 1128 772 1100 c 128,-1,14
 744 1072 744 1072 704 1072 c 128,-1,15
 664 1072 664 1072 636 1100 c 128,-1,8
 608 1128 608 1128 608 1168 c 128,-1,9
EndSplineSet
EndChar

StartChar: copyright
Encoding: 169 169 107
Width: 1024
GlyphClass: 2
Flags: W
LayerCount: 2
Fore
SplineSet
16 624 m 128,-1,1
 16 759 16 759 82.5 873 c 128,-1,2
 149 987 149 987 263 1053.5 c 128,-1,3
 377 1120 377 1120 512 1120 c 128,-1,4
 647 1120 647 1120 761 1053.5 c 128,-1,5
 875 987 875 987 941.5 873 c 128,-1,6
 1008 759 1008 759 1008 624 c 128,-1,7
 1008 489 1008 489 941.5 375 c 128,-1,8
 875 261 875 261 761 194.5 c 128,-1,9
 647 128 647 128 512 128 c 128,-1,10
 377 128 377 128 263 194.5 c 128,-1,11
 149 261 149 261 82.5 375 c 128,-1,0
 16 489 16 489 16 624 c 128,-1,1
112 624 m 128,-1,13
 112 459 112 459 229.5 341.5 c 128,-1,14
 347 224 347 224 512 224 c 128,-1,15
 677 224 677 224 794.5 341.5 c 128,-1,16
 912 459 912 459 912 624 c 128,-1,17
 912 789 912 789 794.5 906.5 c 128,-1,18
 677 1024 677 1024 512 1024 c 128,-1,19
 347 1024 347 1024 229.5 906.5 c 128,-1,12
 112 789 112 789 112 624 c 128,-1,13
728 688 m 2,20,21
 728 668 728 668 714 654 c 128,-1,22
 700 640 700 640 680 640 c 128,-1,23
 660 640 660 640 646 654 c 128,-1,24
 632 668 632 668 632 688 c 2,25,-1
 632 694 l 1,26,27
 614 731 614 731 582 752 c 128,-1,28
 550 773 550 773 512 773 c 0,29,30
 457 773 457 773 416.5 730 c 128,-1,31
 376 687 376 687 376 624 c 128,-1,32
 376 561 376 561 416.5 518 c 128,-1,33
 457 475 457 475 512 475 c 0,34,35
 552 475 552 475 584.5 488.5 c 128,-1,36
 617 502 617 502 634 523 c 0,37,38
 648 541 648 541 648 560 c 0,39,40
 648 580 648 580 662 594 c 128,-1,41
 676 608 676 608 696 608 c 128,-1,42
 716 608 716 608 730 594 c 128,-1,43
 744 580 744 580 744 560 c 0,44,45
 744 507 744 507 708 463 c 0,46,47
 676 423 676 423 624 401 c 128,-1,48
 572 379 572 379 512 379 c 0,49,50
 415 379 415 379 347.5 451.5 c 128,-1,51
 280 524 280 524 280 624 c 128,-1,52
 280 724 280 724 347.5 796.5 c 128,-1,53
 415 869 415 869 512 869 c 0,54,55
 579 869 579 869 635 832 c 1,56,57
 640 846 640 846 652.5 855 c 128,-1,58
 665 864 665 864 680 864 c 0,59,60
 700 864 700 864 714 850 c 128,-1,61
 728 836 728 836 728 816 c 2,62,-1
 728 688 l 2,20,21
EndSplineSet
EndChar

StartChar: ordfeminine
Encoding: 170 170 108
Width: 1024
GlyphClass: 2
Flags: W
LayerCount: 2
Fore
SplineSet
480 968 m 0,0,1
 479 968 479 968 478 968 c 128,-1,2
 477 968 477 968 477 968 c 2,3,4
 445 968 445 968 418 959 c 128,-1,5
 391 950 391 950 377 934 c 0,6,7
 368 924 368 924 368 912 c 0,8,9
 368 899 368 899 372 889 c 0,10,11
 377 878 377 878 388 870 c 0,12,13
 410 856 410 856 448 856 c 0,14,15
 469 856 469 856 494 866 c 0,16,17
 520 876 520 876 544 895 c 128,-1,18
 568 914 568 914 579 935 c 0,19,20
 584 945 584 945 584 952 c 2,21,-1
 584 991 l 1,22,23
 536 968 536 968 480 968 c 0,0,1
688 880 m 0,24,25
 688 900 688 900 702 914 c 128,-1,26
 716 928 716 928 736 928 c 128,-1,27
 756 928 756 928 770 914 c 128,-1,28
 784 900 784 900 784 880 c 0,29,30
 784 834 784 834 751 801 c 128,-1,31
 718 768 718 768 672 768 c 0,32,33
 648 768 648 768 627.5 780.5 c 128,-1,34
 607 793 607 793 595 813 c 1,35,36
 564 790 564 790 529 776 c 0,37,38
 488 760 488 760 448 760 c 0,39,40
 380 760 380 760 335 790 c 0,41,42
 272 833 272 833 272 912 c 0,43,44
 272 958 272 958 300.5 992 c 128,-1,45
 329 1026 329 1026 371 1044 c 0,46,47
 419 1064 419 1064 477 1064 c 0,48,49
 479 1064 479 1064 480 1064 c 0,50,51
 511 1064 511 1064 536.5 1075 c 128,-1,52
 562 1086 562 1086 575 1101 c 0,53,54
 584 1111 584 1111 584 1120 c 0,55,56
 584 1125 584 1125 578 1131 c 0,57,58
 565 1144 565 1144 540.5 1152 c 128,-1,59
 516 1160 516 1160 488 1160 c 0,60,61
 428 1160 428 1160 400 1134 c 0,62,63
 392 1126 392 1126 391 1119 c 0,64,65
 388 1102 388 1102 375 1091 c 128,-1,66
 362 1080 362 1080 344 1080 c 0,67,68
 324 1080 324 1080 310 1094 c 128,-1,69
 296 1108 296 1108 296 1128 c 0,70,71
 296 1132 296 1132 297 1137 c 0,72,73
 304 1174 304 1174 334 1203 c 0,74,75
 390 1256 390 1256 488 1256 c 0,76,77
 591 1256 591 1256 647 1198 c 0,78,79
 680 1163 680 1163 680 1120 c 2,80,-1
 680 866 l 1,81,82
 688 870 688 870 688 880 c 0,24,25
352 576 m 2,83,84
 332 576 332 576 318 590 c 128,-1,85
 304 604 304 604 304 624 c 128,-1,86
 304 644 304 644 318 658 c 128,-1,87
 332 672 332 672 352 672 c 2,88,-1
 672 672 l 2,89,90
 692 672 692 672 706 658 c 128,-1,91
 720 644 720 644 720 624 c 128,-1,92
 720 604 720 604 706 590 c 128,-1,93
 692 576 692 576 672 576 c 2,94,-1
 352 576 l 2,83,84
EndSplineSet
EndChar

StartChar: guillemotleft
Encoding: 171 171 109
Width: 1024
GlyphClass: 2
Flags: W
LayerCount: 2
Fore
SplineSet
464 816 m 0,0,1
 484 816 484 816 498 802 c 128,-1,2
 512 788 512 788 512 768 c 0,3,4
 512 750 512 750 500 737 c 2,5,-1
 239 432 l 1,6,-1
 500 127 l 2,7,8
 512 114 512 114 512 96 c 0,9,10
 512 76 512 76 498 62 c 128,-1,11
 484 48 484 48 464 48 c 0,12,13
 442 48 442 48 428 65 c 2,14,-1
 140 401 l 2,15,16
 128 414 128 414 128 432 c 128,-1,17
 128 450 128 450 140 463 c 2,18,19
 140 463 140 463 428 799 c 0,20,21
 442 816 442 816 464 816 c 0,0,1
848 816 m 0,22,23
 868 816 868 816 882 802 c 128,-1,24
 896 788 896 788 896 768 c 0,25,26
 896 750 896 750 884 737 c 2,27,-1
 623 432 l 1,28,-1
 884 127 l 2,29,30
 896 114 896 114 896 96 c 0,31,32
 896 76 896 76 882 62 c 128,-1,33
 868 48 868 48 848 48 c 0,34,35
 826 48 826 48 812 65 c 2,36,-1
 524 401 l 2,37,38
 512 414 512 414 512 432 c 128,-1,39
 512 450 512 450 524 463 c 2,40,41
 524 463 524 463 812 799 c 0,42,43
 826 816 826 816 848 816 c 0,22,23
EndSplineSet
EndChar

StartChar: logicalnot
Encoding: 172 172 110
Width: 1024
GlyphClass: 2
Flags: W
LayerCount: 2
Fore
SplineSet
832 720 m 1,0,-1
 144 720 l 2,1,2
 124 720 124 720 110 734 c 128,-1,3
 96 748 96 748 96 768 c 128,-1,4
 96 788 96 788 110 802 c 128,-1,5
 124 816 124 816 144 816 c 2,6,-1
 880 816 l 2,7,8
 897 816 897 816 911 805 c 0,9,10
 928 791 928 791 928 768 c 2,11,-1
 928 400 l 2,12,13
 928 380 928 380 914 366 c 128,-1,14
 900 352 900 352 880 352 c 128,-1,15
 860 352 860 352 846 366 c 128,-1,16
 832 380 832 380 832 400 c 2,17,-1
 832 720 l 1,0,-1
EndSplineSet
EndChar

StartChar: registered
Encoding: 174 174 112
Width: 1024
GlyphClass: 2
Flags: W
LayerCount: 2
Fore
SplineSet
528 672 m 2,0,1
 556 672 556 672 580 680.5 c 128,-1,2
 604 689 604 689 616 703 c 0,3,4
 624 712 624 712 624 720 c 128,-1,5
 624 728 624 728 616 737 c 0,6,7
 604 751 604 751 579.5 759.5 c 128,-1,8
 555 768 555 768 528 768 c 2,9,-1
 432 768 l 1,10,-1
 432 672 l 1,11,-1
 528 672 l 2,0,1
720 720 m 0,12,13
 720 686 720 686 702 658.5 c 128,-1,14
 684 631 684 631 657 612 c 1,15,16
 704 558 704 558 704 485 c 2,17,-1
 704 480 l 1,18,-1
 728 480 l 2,19,20
 748 480 748 480 762 466 c 128,-1,21
 776 452 776 452 776 432 c 128,-1,22
 776 412 776 412 762 398 c 128,-1,23
 748 384 748 384 728 384 c 2,24,-1
 656 384 l 2,25,26
 635 384 635 384 621.5 398.5 c 128,-1,27
 608 413 608 413 608 432 c 2,28,-1
 608 485 l 2,29,30
 608 524 608 524 584 550 c 128,-1,31
 560 576 560 576 528 576 c 2,32,-1
 432 576 l 1,33,-1
 432 480 l 1,34,-1
 480 480 l 2,35,36
 500 480 500 480 514 466 c 128,-1,37
 528 452 528 452 528 432 c 128,-1,38
 528 412 528 412 514 398 c 128,-1,39
 500 384 500 384 480 384 c 2,40,-1
 296 384 l 2,41,42
 276 384 276 384 262 398 c 128,-1,43
 248 412 248 412 248 432 c 128,-1,44
 248 452 248 452 262 466 c 128,-1,45
 276 480 276 480 296 480 c 2,46,-1
 336 480 l 1,47,-1
 336 768 l 1,48,-1
 296 768 l 2,49,50
 276 768 276 768 262 782 c 128,-1,51
 248 796 248 796 248 816 c 128,-1,52
 248 836 248 836 262 850 c 128,-1,53
 276 864 276 864 296 864 c 2,54,-1
 528 864 l 2,55,56
 578 864 578 864 620 847 c 128,-1,57
 662 830 662 830 688 800 c 0,58,59
 720 764 720 764 720 720 c 0,12,13
16 624 m 128,-1,61
 16 759 16 759 82.5 873 c 128,-1,62
 149 987 149 987 263 1053.5 c 128,-1,63
 377 1120 377 1120 512 1120 c 128,-1,64
 647 1120 647 1120 761 1053.5 c 128,-1,65
 875 987 875 987 941.5 873 c 128,-1,66
 1008 759 1008 759 1008 624 c 128,-1,67
 1008 489 1008 489 941.5 375 c 128,-1,68
 875 261 875 261 761 194.5 c 128,-1,69
 647 128 647 128 512 128 c 128,-1,70
 377 128 377 128 263 194.5 c 128,-1,71
 149 261 149 261 82.5 375 c 128,-1,60
 16 489 16 489 16 624 c 128,-1,61
112 624 m 128,-1,73
 112 459 112 459 229.5 341.5 c 128,-1,74
 347 224 347 224 512 224 c 128,-1,75
 677 224 677 224 794.5 341.5 c 128,-1,76
 912 459 912 459 912 624 c 128,-1,77
 912 789 912 789 794.5 906.5 c 128,-1,78
 677 1024 677 1024 512 1024 c 128,-1,79
 347 1024 347 1024 229.5 906.5 c 128,-1,72
 112 789 112 789 112 624 c 128,-1,73
EndSplineSet
EndChar

StartChar: macron
Encoding: 175 175 113
Width: 1024
GlyphClass: 2
Flags: W
LayerCount: 2
Fore
SplineSet
352 1152 m 2,0,1
 332 1152 332 1152 318 1166 c 128,-1,2
 304 1180 304 1180 304 1200 c 128,-1,3
 304 1220 304 1220 318 1234 c 128,-1,4
 332 1248 332 1248 352 1248 c 2,5,-1
 672 1248 l 2,6,7
 692 1248 692 1248 706 1234 c 128,-1,8
 720 1220 720 1220 720 1200 c 128,-1,9
 720 1180 720 1180 706 1166 c 128,-1,10
 692 1152 692 1152 672 1152 c 2,11,-1
 352 1152 l 2,0,1
EndSplineSet
EndChar

StartChar: degree
Encoding: 176 176 114
Width: 1024
GlyphClass: 2
Flags: W
LayerCount: 2
Fore
SplineSet
320 1072 m 128,-1,1
 320 1151 320 1151 376.5 1207.5 c 128,-1,2
 433 1264 433 1264 512 1264 c 128,-1,3
 591 1264 591 1264 647.5 1207.5 c 128,-1,4
 704 1151 704 1151 704 1072 c 128,-1,5
 704 993 704 993 647.5 936.5 c 128,-1,6
 591 880 591 880 512 880 c 128,-1,7
 433 880 433 880 376.5 936.5 c 128,-1,0
 320 993 320 993 320 1072 c 128,-1,1
416 1072 m 128,-1,9
 416 1033 416 1033 444.5 1004.5 c 128,-1,10
 473 976 473 976 512 976 c 128,-1,11
 551 976 551 976 579.5 1004.5 c 128,-1,12
 608 1033 608 1033 608 1072 c 128,-1,13
 608 1111 608 1111 579.5 1139.5 c 128,-1,14
 551 1168 551 1168 512 1168 c 128,-1,15
 473 1168 473 1168 444.5 1139.5 c 128,-1,8
 416 1111 416 1111 416 1072 c 128,-1,9
EndSplineSet
EndChar

StartChar: acute
Encoding: 180 180 118
Width: 1024
GlyphClass: 2
Flags: W
LayerCount: 2
Fore
SplineSet
320 768 m 128,-1,1
 300 768 300 768 286 782 c 128,-1,2
 272 796 272 796 272 816 c 128,-1,3
 272 836 272 836 286 850 c 2,4,-1
 670 1234 l 2,5,6
 684 1248 684 1248 704 1248 c 128,-1,7
 724 1248 724 1248 738 1234 c 128,-1,8
 752 1220 752 1220 752 1200 c 128,-1,9
 752 1180 752 1180 738 1166 c 2,10,-1
 354 782 l 2,11,0
 340 768 340 768 320 768 c 128,-1,1
EndSplineSet
EndChar

StartChar: mu
Encoding: 181 181 119
Width: 1024
GlyphClass: 2
Flags: W
LayerCount: 2
Fore
SplineSet
256 864 m 2,0,1
 277 864 277 864 290.5 849.5 c 128,-1,2
 304 835 304 835 304 816 c 2,3,-1
 304 224 l 2,4,5
 304 164 304 164 346 122 c 128,-1,6
 388 80 388 80 448 80 c 0,7,8
 561 80 561 80 640.5 159.5 c 128,-1,9
 720 239 720 239 720 352 c 2,10,-1
 720 768 l 1,11,-1
 608 768 l 2,12,13
 588 768 588 768 574 782 c 128,-1,14
 560 796 560 796 560 816 c 128,-1,15
 560 836 560 836 574 850 c 128,-1,16
 588 864 588 864 608 864 c 2,17,-1
 768 864 l 2,18,19
 786 864 786 864 799 853 c 0,20,21
 816 838 816 838 816 816 c 2,22,-1
 816 352 l 2,23,24
 816 350 816 350 816 349 c 2,25,-1
 816 96 l 1,26,-1
 928 96 l 2,27,28
 948 96 948 96 962 82 c 128,-1,29
 976 68 976 68 976 48 c 128,-1,30
 976 28 976 28 962 14 c 128,-1,31
 948 0 948 0 928 0 c 2,32,-1
 768 0 l 2,33,34
 748 0 748 0 734 14 c 128,-1,35
 720 28 720 28 720 48 c 2,36,-1
 720 104 l 1,37,38
 669 48 669 48 598 16 c 128,-1,39
 527 -16 527 -16 448 -16 c 0,40,41
 368 -16 368 -16 304 32 c 1,42,-1
 304 -336 l 2,43,44
 304 -356 304 -356 290 -370 c 128,-1,45
 276 -384 276 -384 256 -384 c 128,-1,46
 236 -384 236 -384 222 -370 c 128,-1,47
 208 -356 208 -356 208 -336 c 2,48,-1
 208 768 l 1,49,-1
 96 768 l 2,50,51
 76 768 76 768 62 782 c 128,-1,52
 48 796 48 796 48 816 c 128,-1,53
 48 836 48 836 62 850 c 128,-1,54
 76 864 76 864 96 864 c 2,55,-1
 256 864 l 2,0,1
EndSplineSet
EndChar

StartChar: paragraph
Encoding: 182 182 120
Width: 1024
GlyphClass: 2
Flags: W
LayerCount: 2
Fore
SplineSet
544 672 m 1,0,-1
 544 1152 l 1,1,-1
 432 1152 l 2,2,3
 333 1152 333 1152 262.5 1081.5 c 128,-1,4
 192 1011 192 1011 192 912 c 128,-1,5
 192 813 192 813 262.5 742.5 c 128,-1,6
 333 672 333 672 432 672 c 2,7,-1
 544 672 l 1,0,-1
832 96 m 1,8,-1
 928 96 l 2,9,10
 948 96 948 96 962 82 c 128,-1,11
 976 68 976 68 976 48 c 128,-1,12
 976 28 976 28 962 14 c 128,-1,13
 948 0 948 0 928 0 c 2,14,-1
 784 0 l 2,15,16
 764 0 764 0 750 14 c 128,-1,17
 736 28 736 28 736 48 c 2,18,-1
 736 1152 l 1,19,-1
 640 1152 l 1,20,-1
 640 48 l 2,21,22
 640 28 640 28 626 14 c 128,-1,23
 612 0 612 0 592 0 c 2,24,-1
 448 0 l 2,25,26
 428 0 428 0 414 14 c 128,-1,27
 400 28 400 28 400 48 c 128,-1,28
 400 68 400 68 414 82 c 128,-1,29
 428 96 428 96 448 96 c 2,30,-1
 544 96 l 1,31,-1
 544 576 l 1,32,-1
 432 576 l 2,33,34
 293 576 293 576 194.5 674.5 c 128,-1,35
 96 773 96 773 96 912 c 128,-1,36
 96 1051 96 1051 194.5 1149.5 c 128,-1,37
 293 1248 293 1248 432 1248 c 2,38,-1
 928 1248 l 2,39,40
 948 1248 948 1248 962 1234 c 128,-1,41
 976 1220 976 1220 976 1200 c 128,-1,42
 976 1180 976 1180 962 1166 c 128,-1,43
 948 1152 948 1152 928 1152 c 2,44,-1
 832 1152 l 1,45,-1
 832 96 l 1,8,-1
EndSplineSet
EndChar

StartChar: periodcentered
Encoding: 183 183 121
Width: 1024
GlyphClass: 2
Flags: W
LayerCount: 2
Fore
SplineSet
320 624 m 128,-1,1
 320 668 320 668 352 704 c 0,2,3
 378 734 378 734 420 751 c 128,-1,4
 462 768 462 768 512 768 c 128,-1,5
 562 768 562 768 604 751 c 128,-1,6
 646 734 646 734 672 704 c 0,7,8
 704 668 704 668 704 624 c 128,-1,9
 704 580 704 580 672 544 c 0,10,11
 646 514 646 514 604 497 c 128,-1,12
 562 480 562 480 512 480 c 128,-1,13
 462 480 462 480 420 497 c 128,-1,14
 378 514 378 514 352 544 c 0,15,0
 320 580 320 580 320 624 c 128,-1,1
EndSplineSet
EndChar

StartChar: cedilla
Encoding: 184 184 122
Width: 1024
GlyphClass: 4
Flags: W
LayerCount: 2
Fore
SplineSet
512 80 m 0,0,1
 532 80 532 80 546 66 c 128,-1,2
 560 52 560 52 560 32 c 0,3,4
 560 22 560 22 556 13 c 2,5,-1
 519 -71 l 1,6,7
 601 -87 601 -87 648 -133 c 0,8,9
 688 -174 688 -174 688 -224 c 128,-1,10
 688 -274 688 -274 648 -315 c 0,11,12
 618 -344 618 -344 572 -362 c 0,13,14
 515 -384 515 -384 448 -384 c 0,15,16
 410 -384 410 -384 374 -377 c 0,17,18
 358 -373 358 -373 347 -360 c 128,-1,19
 336 -347 336 -347 336 -330 c 0,20,21
 336 -310 336 -310 350 -296 c 128,-1,22
 364 -282 364 -282 384 -282 c 0,23,24
 389 -282 389 -282 394 -283 c 0,25,26
 420 -288 420 -288 448 -288 c 0,27,28
 489 -288 489 -288 525 -277 c 128,-1,29
 561 -266 561 -266 580 -247 c 0,30,31
 592 -235 592 -235 592 -224 c 128,-1,32
 592 -213 592 -213 580 -201 c 0,33,34
 561 -183 561 -183 526 -171.5 c 128,-1,35
 491 -160 491 -160 451 -160 c 0,36,37
 449 -160 449 -160 448 -160 c 0,38,39
 428 -160 428 -160 414 -146 c 128,-1,40
 400 -132 400 -132 400 -112 c 0,41,42
 400 -102 400 -102 404 -93 c 2,43,44
 404 -93 404 -93 468 52 c 0,45,46
 481 80 481 80 512 80 c 0,0,1
EndSplineSet
EndChar

StartChar: ordmasculine
Encoding: 186 186 124
Width: 1024
GlyphClass: 2
Flags: W
LayerCount: 2
Fore
SplineSet
352 576 m 2,0,1
 332 576 332 576 318 590 c 128,-1,2
 304 604 304 604 304 624 c 128,-1,3
 304 644 304 644 318 658 c 128,-1,4
 332 672 332 672 352 672 c 2,5,-1
 672 672 l 2,6,7
 692 672 692 672 706 658 c 128,-1,8
 720 644 720 644 720 624 c 128,-1,9
 720 604 720 604 706 590 c 128,-1,10
 692 576 692 576 672 576 c 2,11,-1
 352 576 l 2,0,1
280 1008 m 128,-1,13
 280 1109 280 1109 347 1182.5 c 128,-1,14
 414 1256 414 1256 512 1256 c 128,-1,15
 610 1256 610 1256 677 1182.5 c 128,-1,16
 744 1109 744 1109 744 1008 c 128,-1,17
 744 907 744 907 677 833.5 c 128,-1,18
 610 760 610 760 512 760 c 128,-1,19
 414 760 414 760 347 833.5 c 128,-1,12
 280 907 280 907 280 1008 c 128,-1,13
376 1008 m 128,-1,21
 376 944 376 944 416.5 900 c 128,-1,22
 457 856 457 856 512 856 c 128,-1,23
 567 856 567 856 607.5 900 c 128,-1,24
 648 944 648 944 648 1008 c 128,-1,25
 648 1072 648 1072 607.5 1116 c 128,-1,26
 567 1160 567 1160 512 1160 c 128,-1,27
 457 1160 457 1160 416.5 1116 c 128,-1,20
 376 1072 376 1072 376 1008 c 128,-1,21
EndSplineSet
EndChar

StartChar: guillemotright
Encoding: 187 187 125
Width: 1024
GlyphClass: 2
Flags: W
LayerCount: 2
Fore
SplineSet
512 768 m 0,0,1
 512 788 512 788 526 802 c 128,-1,2
 540 816 540 816 560 816 c 0,3,4
 582 816 582 816 596 799 c 2,5,-1
 884 463 l 2,6,7
 896 450 896 450 896 432 c 128,-1,8
 896 414 896 414 884 401 c 0,9,10
 596 65 596 65 596 65 c 2,11,12
 582 48 582 48 560 48 c 0,13,14
 540 48 540 48 526 62 c 128,-1,15
 512 76 512 76 512 96 c 0,16,17
 512 114 512 114 524 127 c 2,18,-1
 785 432 l 1,19,-1
 524 737 l 2,20,21
 512 750 512 750 512 768 c 0,0,1
128 768 m 0,22,23
 128 788 128 788 142 802 c 128,-1,24
 156 816 156 816 176 816 c 0,25,26
 198 816 198 816 212 799 c 2,27,-1
 500 463 l 2,28,29
 512 450 512 450 512 432 c 128,-1,30
 512 414 512 414 500 401 c 0,31,32
 212 65 212 65 212 65 c 2,33,34
 198 48 198 48 176 48 c 0,35,36
 156 48 156 48 142 62 c 128,-1,37
 128 76 128 76 128 96 c 0,38,39
 128 114 128 114 140 127 c 2,40,-1
 401 432 l 1,41,-1
 140 737 l 2,42,43
 128 750 128 750 128 768 c 0,22,23
EndSplineSet
EndChar

StartChar: AE
Encoding: 198 198 136
Width: 1024
GlyphClass: 2
Flags: W
LayerCount: 2
Fore
SplineSet
480 512 m 1,0,-1
 480 1078 l 1,1,-1
 320 512 l 1,2,-1
 480 512 l 1,0,-1
928 48 m 2,3,4
 928 28 928 28 914 14 c 128,-1,5
 900 0 900 0 880 0 c 2,6,-1
 384 0 l 2,7,8
 364 0 364 0 350 14 c 128,-1,9
 336 28 336 28 336 48 c 128,-1,10
 336 68 336 68 350 82 c 128,-1,11
 364 96 364 96 384 96 c 2,12,-1
 480 96 l 1,13,-1
 480 416 l 1,14,-1
 293 416 l 1,15,-1
 203 96 l 1,16,-1
 256 96 l 2,17,18
 276 96 276 96 290 82 c 128,-1,19
 304 68 304 68 304 48 c 128,-1,20
 304 28 304 28 290 14 c 128,-1,21
 276 0 276 0 256 0 c 2,22,-1
 64 0 l 2,23,24
 44 0 44 0 30 14 c 128,-1,25
 16 28 16 28 16 48 c 128,-1,26
 16 68 16 68 30 82 c 128,-1,27
 44 96 44 96 64 96 c 2,28,-1
 103 96 l 1,29,-1
 401 1152 l 1,30,-1
 336 1152 l 2,31,32
 316 1152 316 1152 302 1166 c 128,-1,33
 288 1180 288 1180 288 1200 c 128,-1,34
 288 1220 288 1220 302 1234 c 128,-1,35
 316 1248 316 1248 336 1248 c 2,36,-1
 880 1248 l 2,37,38
 900 1248 900 1248 914 1234 c 128,-1,39
 928 1220 928 1220 928 1200 c 2,40,-1
 928 864 l 2,41,42
 928 844 928 844 914 830 c 128,-1,43
 900 816 900 816 880 816 c 128,-1,44
 860 816 860 816 846 830 c 128,-1,45
 832 844 832 844 832 864 c 2,46,-1
 832 1152 l 1,47,-1
 576 1152 l 1,48,-1
 576 720 l 1,49,-1
 672 720 l 1,50,-1
 672 864 l 2,51,52
 672 884 672 884 686 898 c 128,-1,53
 700 912 700 912 720 912 c 128,-1,54
 740 912 740 912 754 898 c 128,-1,55
 768 884 768 884 768 864 c 2,56,-1
 768 480 l 2,57,58
 768 460 768 460 754 446 c 128,-1,59
 740 432 740 432 720 432 c 128,-1,60
 700 432 700 432 686 446 c 128,-1,61
 672 460 672 460 672 480 c 2,62,-1
 672 624 l 1,63,-1
 576 624 l 1,64,-1
 576 96 l 1,65,-1
 832 96 l 1,66,-1
 832 384 l 2,67,68
 832 404 832 404 846 418 c 128,-1,69
 860 432 860 432 880 432 c 128,-1,70
 900 432 900 432 914 418 c 128,-1,71
 928 404 928 404 928 384 c 2,72,-1
 928 48 l 2,3,4
EndSplineSet
EndChar

StartChar: Eth
Encoding: 208 208 146
Width: 1024
GlyphClass: 2
Flags: W
LayerCount: 2
Fore
SplineSet
352 672 m 1,0,-1
 512 672 l 2,1,2
 532 672 532 672 546 658 c 128,-1,3
 560 644 560 644 560 624 c 128,-1,4
 560 604 560 604 546 590 c 128,-1,5
 532 576 532 576 512 576 c 2,6,-1
 352 576 l 1,7,-1
 352 96 l 1,8,-1
 512 96 l 2,9,10
 593 96 593 96 665 162 c 0,11,12
 742 232 742 232 787 356 c 128,-1,13
 832 480 832 480 832 624 c 128,-1,14
 832 768 832 768 787 892 c 128,-1,15
 742 1016 742 1016 665 1086 c 0,16,17
 593 1152 593 1152 512 1152 c 2,18,-1
 352 1152 l 1,19,-1
 352 672 l 1,0,-1
96 576 m 2,20,21
 76 576 76 576 62 590 c 128,-1,22
 48 604 48 604 48 624 c 128,-1,23
 48 644 48 644 62 658 c 128,-1,24
 76 672 76 672 96 672 c 2,25,-1
 256 672 l 1,26,-1
 256 1152 l 1,27,-1
 96 1152 l 2,28,29
 76 1152 76 1152 62 1166 c 128,-1,30
 48 1180 48 1180 48 1200 c 128,-1,31
 48 1220 48 1220 62 1234 c 128,-1,32
 76 1248 76 1248 96 1248 c 2,33,-1
 512 1248 l 2,34,35
 631 1248 631 1248 730 1157 c 0,36,37
 822 1073 822 1073 875 932 c 128,-1,38
 928 791 928 791 928 624 c 128,-1,39
 928 457 928 457 875 316 c 128,-1,40
 822 175 822 175 730 91 c 0,41,42
 631 0 631 0 512 0 c 2,43,-1
 96 0 l 2,44,45
 76 0 76 0 62 14 c 128,-1,46
 48 28 48 28 48 48 c 128,-1,47
 48 68 48 68 62 82 c 128,-1,48
 76 96 76 96 96 96 c 2,49,-1
 256 96 l 1,50,-1
 256 576 l 1,51,-1
 96 576 l 2,20,21
EndSplineSet
EndChar

StartChar: multiply
Encoding: 215 215 153
Width: 1024
GlyphClass: 2
Flags: W
LayerCount: 2
Fore
SplineSet
772 932 m 128,-1,1
 792 932 792 932 806 918 c 128,-1,2
 820 904 820 904 820 884 c 128,-1,3
 820 864 820 864 806 850 c 2,4,-1
 580 624 l 1,5,-1
 806 398 l 2,6,7
 820 384 820 384 820 364 c 128,-1,8
 820 344 820 344 806 330 c 128,-1,9
 792 316 792 316 772 316 c 128,-1,10
 752 316 752 316 738 330 c 2,11,-1
 512 556 l 1,12,-1
 286 330 l 2,13,14
 272 316 272 316 252 316 c 128,-1,15
 232 316 232 316 218 330 c 128,-1,16
 204 344 204 344 204 364 c 128,-1,17
 204 384 204 384 218 398 c 2,18,-1
 444 624 l 1,19,-1
 218 850 l 2,20,21
 204 864 204 864 204 884 c 128,-1,22
 204 904 204 904 218 918 c 128,-1,23
 232 932 232 932 252 932 c 128,-1,24
 272 932 272 932 286 918 c 2,25,-1
 512 692 l 1,26,-1
 738 918 l 2,27,0
 752 932 752 932 772 932 c 128,-1,1
EndSplineSet
EndChar

StartChar: Oslash
Encoding: 216 216 154
Width: 1024
GlyphClass: 2
Flags: W
LayerCount: 2
Fore
SplineSet
512 80 m 128,-1,1
 602 80 602 80 674 148 c 0,2,3
 749 218 749 218 790.5 345.5 c 128,-1,4
 832 473 832 473 832 624 c 0,5,6
 832 843 832 843 751 995 c 1,7,-1
 335 163 l 1,8,9
 342 155 342 155 350 148 c 0,10,0
 422 80 422 80 512 80 c 128,-1,1
192 624 m 0,11,12
 192 405 192 405 273 253 c 1,13,-1
 689 1085 l 1,14,15
 682 1093 682 1093 674 1100 c 0,16,17
 602 1168 602 1168 512 1168 c 128,-1,18
 422 1168 422 1168 350 1100 c 0,19,20
 275 1030 275 1030 233.5 902.5 c 128,-1,21
 192 775 192 775 192 624 c 0,11,12
802 1097 m 1,22,23
 862 1010 862 1010 895 887 c 128,-1,24
 928 764 928 764 928 624 c 0,25,26
 928 432 928 432 869 279 c 0,27,28
 820 154 820 154 740 78 c 0,29,30
 640 -16 640 -16 512 -16 c 0,31,32
 388 -16 388 -16 290 73 c 1,33,-1
 171 -166 l 2,34,35
 158 -192 158 -192 128 -192 c 0,36,37
 108 -192 108 -192 94 -178 c 128,-1,38
 80 -164 80 -164 80 -144 c 0,39,40
 80 -133 80 -133 85 -123 c 2,41,-1
 222 151 l 1,42,43
 162 238 162 238 129 361 c 128,-1,44
 96 484 96 484 96 624 c 0,45,46
 96 816 96 816 155 969 c 0,47,48
 204 1094 204 1094 284 1170 c 0,49,50
 384 1264 384 1264 512 1264 c 0,51,52
 636 1264 636 1264 734 1175 c 1,53,-1
 853 1414 l 2,54,55
 866 1440 866 1440 896 1440 c 0,56,57
 916 1440 916 1440 930 1426 c 128,-1,58
 944 1412 944 1412 944 1392 c 0,59,60
 944 1381 944 1381 939 1371 c 2,61,-1
 802 1097 l 1,22,23
EndSplineSet
EndChar

StartChar: Thorn
Encoding: 222 222 160
Width: 1024
GlyphClass: 2
Flags: W
LayerCount: 2
Fore
SplineSet
688 480 m 2,0,1
 756 480 756 480 802 523 c 128,-1,2
 848 566 848 566 848 624 c 128,-1,3
 848 682 848 682 802 725 c 128,-1,4
 756 768 756 768 688 768 c 2,5,-1
 352 768 l 1,6,-1
 352 480 l 1,7,-1
 688 480 l 2,0,1
96 0 m 2,8,9
 76 0 76 0 62 14 c 128,-1,10
 48 28 48 28 48 48 c 128,-1,11
 48 68 48 68 62 82 c 128,-1,12
 76 96 76 96 96 96 c 2,13,-1
 256 96 l 1,14,-1
 256 1152 l 1,15,-1
 96 1152 l 2,16,17
 76 1152 76 1152 62 1166 c 128,-1,18
 48 1180 48 1180 48 1200 c 128,-1,19
 48 1220 48 1220 62 1234 c 128,-1,20
 76 1248 76 1248 96 1248 c 2,21,-1
 576 1248 l 2,22,23
 596 1248 596 1248 610 1234 c 128,-1,24
 624 1220 624 1220 624 1200 c 128,-1,25
 624 1180 624 1180 610 1166 c 128,-1,26
 596 1152 596 1152 576 1152 c 2,27,-1
 352 1152 l 1,28,-1
 352 864 l 1,29,-1
 688 864 l 2,30,31
 793 864 793 864 868.5 794.5 c 128,-1,32
 944 725 944 725 944 624 c 128,-1,33
 944 523 944 523 868.5 453.5 c 128,-1,34
 793 384 793 384 688 384 c 2,35,-1
 352 384 l 1,36,-1
 352 96 l 1,37,-1
 560 96 l 2,38,39
 580 96 580 96 594 82 c 128,-1,40
 608 68 608 68 608 48 c 128,-1,41
 608 28 608 28 594 14 c 128,-1,42
 580 0 580 0 560 0 c 2,43,-1
 96 0 l 2,8,9
EndSplineSet
EndChar

StartChar: germandbls
Encoding: 223 223 161
Width: 1024
GlyphClass: 2
Flags: W
LayerCount: 2
Fore
SplineSet
695 880 m 0,0,1
 738 880 738 880 769 912.5 c 128,-1,2
 800 945 800 945 800 992 c 0,3,4
 800 1038 800 1038 772 1077 c 0,5,6
 743 1118 743 1118 691 1143 c 128,-1,7
 639 1168 639 1168 576 1168 c 128,-1,8
 513 1168 513 1168 461 1143 c 128,-1,9
 409 1118 409 1118 380 1077 c 0,10,11
 352 1038 352 1038 352 992 c 2,12,-1
 352 48 l 2,13,14
 352 28 352 28 338.5 14.5 c 128,-1,15
 325 1 325 1 304 0 c 2,16,-1
 96 0 l 2,17,18
 76 0 76 0 62 14 c 128,-1,19
 48 28 48 28 48 48 c 128,-1,20
 48 68 48 68 62 82 c 128,-1,21
 76 96 76 96 96 96 c 2,22,-1
 256 96 l 1,23,-1
 256 768 l 1,24,-1
 96 768 l 2,25,26
 76 768 76 768 62 782 c 128,-1,27
 48 796 48 796 48 816 c 128,-1,28
 48 836 48 836 62 850 c 128,-1,29
 76 864 76 864 96 864 c 2,30,-1
 256 864 l 1,31,-1
 256 992 l 2,32,33
 256 1068 256 1068 302 1133 c 0,34,35
 346 1194 346 1194 418.5 1229 c 128,-1,36
 491 1264 491 1264 576 1264 c 128,-1,37
 661 1264 661 1264 733.5 1229 c 128,-1,38
 806 1194 806 1194 850 1133 c 0,39,40
 896 1068 896 1068 896 992 c 0,41,42
 896 907 896 907 838 845.5 c 128,-1,43
 780 784 780 784 696 784 c 0,44,45
 648 783 648 783 612 745.5 c 128,-1,46
 576 708 576 708 576 656 c 0,47,48
 576 595 576 595 612 558 c 0,49,50
 645 525 645 525 707 511 c 0,51,52
 830 482 830 482 887 385 c 0,53,54
 928 318 928 318 928 229 c 0,55,56
 928 131 928 131 860.5 60 c 128,-1,57
 793 -11 793 -11 696 -11 c 0,58,59
 628 -11 628 -11 572 37 c 0,60,61
 566 42 566 42 560 48 c 1,62,63
 560 28 560 28 546 14 c 128,-1,64
 532 0 532 0 512 0 c 128,-1,65
 492 0 492 0 478 14 c 128,-1,66
 464 28 464 28 464 48 c 2,67,-1
 464 304 l 2,68,69
 464 324 464 324 478 338 c 128,-1,70
 492 352 492 352 512 352 c 128,-1,71
 532 352 532 352 546 338 c 128,-1,72
 560 324 560 324 560 304 c 0,73,74
 560 243 560 243 580.5 191 c 128,-1,75
 601 139 601 139 634 110 c 0,76,77
 664 85 664 85 696 85 c 0,78,79
 752 85 752 85 792 127 c 128,-1,80
 832 169 832 169 832 229 c 0,81,82
 832 291 832 291 805 336 c 0,83,84
 768 398 768 398 685 417 c 0,85,86
 596 438 596 438 544 490 c 0,87,88
 480 555 480 555 480 656 c 0,89,90
 480 746 480 746 543 812.5 c 128,-1,91
 606 879 606 879 695 880 c 0,0,1
EndSplineSet
EndChar

StartChar: ae
Encoding: 230 230 168
Width: 1024
GlyphClass: 2
Flags: W
LayerCount: 2
Fore
SplineSet
333 416 m 0,0,1
 296 416 296 416 265 394 c 0,2,3
 232 372 232 372 212 331 c 128,-1,4
 192 290 192 290 192 240 c 0,5,6
 192 168 192 168 218 125 c 0,7,8
 233 100 233 100 255 89 c 0,9,10
 274 80 274 80 298 80 c 0,11,12
 345 80 345 80 395 129 c 0,13,14
 430 164 430 164 449 207 c 0,15,16
 464 241 464 241 464 272 c 2,17,-1
 464 460 l 1,18,19
 405 416 405 416 333 416 c 0,0,1
696 784 m 0,20,21
 669 784 669 784 641 748 c 0,22,23
 610 708 610 708 589 639 c 0,24,25
 573 588 573 588 566 528 c 1,26,-1
 830 528 l 1,27,28
 825 599 825 599 804 659 c 0,29,30
 783 718 783 718 753 752 c 0,31,32
 724 784 724 784 696 784 c 0,20,21
520 134 m 1,33,34
 484 73 484 73 424.5 28.5 c 128,-1,35
 365 -16 365 -16 298 -16 c 0,36,37
 191 -16 191 -16 135 76 c 0,38,39
 96 141 96 141 96 240 c 0,40,41
 96 312 96 312 126.5 374 c 128,-1,42
 157 436 157 436 210 473 c 0,43,44
 266 512 266 512 333 512 c 0,45,46
 386 512 386 512 425 553.5 c 128,-1,47
 464 595 464 595 464 656 c 0,48,49
 464 709 464 709 428 746.5 c 128,-1,50
 392 784 392 784 342 784 c 0,51,52
 291 784 291 784 255 745 c 1,53,54
 282 735 282 735 299 710.5 c 128,-1,55
 316 686 316 686 316 656 c 0,56,57
 316 616 316 616 288 588 c 128,-1,58
 260 560 260 560 220 560 c 128,-1,59
 180 560 180 560 152 588 c 128,-1,60
 124 616 124 616 124 656 c 0,61,62
 124 661 124 661 125 666 c 0,63,64
 128 755 128 755 191 817.5 c 128,-1,65
 254 880 254 880 342 880 c 0,66,67
 404 880 404 880 455.5 847 c 128,-1,68
 507 814 507 814 535 760 c 1,69,70
 549 786 549 786 565 807 c 0,71,72
 623 880 623 880 696 880 c 0,73,74
 767 880 767 880 825 816 c 0,75,76
 868 767 868 767 895 690 c 0,77,78
 928 594 928 594 928 480 c 0,79,80
 928 460 928 460 914 446 c 128,-1,81
 900 432 900 432 880 432 c 2,82,-1
 560 432 l 1,83,84
 560 318 560 318 589 225 c 0,85,86
 610 156 610 156 641 116 c 0,87,88
 669 80 669 80 696 80 c 0,89,90
 731 80 731 80 761 102 c 0,91,92
 792 124 792 124 812 165 c 128,-1,93
 832 206 832 206 832 256 c 0,94,95
 832 276 832 276 846 290 c 128,-1,96
 860 304 860 304 880 304 c 128,-1,97
 900 304 900 304 914 290 c 128,-1,98
 928 276 928 276 928 256 c 0,99,100
 928 184 928 184 898.5 122 c 128,-1,101
 869 60 869 60 817 23 c 0,102,103
 761 -16 761 -16 696 -16 c 0,104,105
 623 -16 623 -16 565 57 c 0,106,107
 540 90 540 90 520 134 c 1,33,34
EndSplineSet
EndChar

StartChar: eth
Encoding: 240 240 178
Width: 1024
GlyphClass: 2
Flags: W
LayerCount: 2
Fore
SplineSet
192 432 m 128,-1,1
 192 285 192 285 286.5 182.5 c 128,-1,2
 381 80 381 80 512 80 c 128,-1,3
 643 80 643 80 737.5 182.5 c 128,-1,4
 832 285 832 285 832 432 c 128,-1,5
 832 579 832 579 737.5 681.5 c 128,-1,6
 643 784 643 784 512 784 c 128,-1,7
 381 784 381 784 286.5 681.5 c 128,-1,0
 192 579 192 579 192 432 c 128,-1,1
714 1083 m 1,8,9
 813 970 813 970 870.5 799 c 128,-1,10
 928 628 928 628 928 432 c 0,11,12
 928 312 928 312 873 209 c 128,-1,13
 818 106 818 106 722 45 c 128,-1,14
 626 -16 626 -16 512 -16 c 128,-1,15
 398 -16 398 -16 302 45 c 128,-1,16
 206 106 206 106 151 209 c 128,-1,17
 96 312 96 312 96 432 c 128,-1,18
 96 552 96 552 151 655 c 128,-1,19
 206 758 206 758 302 819 c 128,-1,20
 398 880 398 880 512 880 c 0,21,22
 662 880 662 880 776 778 c 1,23,24
 766 809 766 809 753 838 c 0,25,26
 700 962 700 962 620 1042 c 1,27,-1
 403 948 l 2,28,29
 394 944 394 944 384 944 c 0,30,31
 364 944 364 944 350 958 c 128,-1,32
 336 972 336 972 336 992 c 0,33,34
 336 1023 336 1023 365 1036 c 2,35,-1
 535 1110 l 1,36,37
 513 1122 513 1122 480 1131.5 c 128,-1,38
 447 1141 447 1141 415.5 1146.5 c 128,-1,39
 384 1152 384 1152 384 1152 c 2,40,41
 364 1152 364 1152 350 1166 c 128,-1,42
 336 1180 336 1180 336 1200 c 128,-1,43
 336 1220 336 1220 350 1234 c 128,-1,44
 364 1248 364 1248 384 1248 c 0,45,46
 520 1248 520 1248 638 1155 c 1,47,-1
 845 1244 l 2,48,49
 854 1248 854 1248 864 1248 c 0,50,51
 884 1248 884 1248 898 1234 c 128,-1,52
 912 1220 912 1220 912 1200 c 0,53,54
 912 1168 912 1168 883 1156 c 2,55,-1
 714 1083 l 1,8,9
EndSplineSet
EndChar

StartChar: divide
Encoding: 247 247 185
Width: 1024
GlyphClass: 2
Flags: W
LayerCount: 2
Fore
SplineSet
144 576 m 2,0,1
 124 576 124 576 110 590 c 128,-1,2
 96 604 96 604 96 624 c 128,-1,3
 96 644 96 644 110 658 c 128,-1,4
 124 672 124 672 144 672 c 2,5,-1
 880 672 l 2,6,7
 900 672 900 672 914 658 c 128,-1,8
 928 644 928 644 928 624 c 128,-1,9
 928 604 928 604 914 590 c 128,-1,10
 900 576 900 576 880 576 c 2,11,-1
 144 576 l 2,0,1
416 912 m 128,-1,13
 416 952 416 952 444 980 c 128,-1,14
 472 1008 472 1008 512 1008 c 128,-1,15
 552 1008 552 1008 580 980 c 128,-1,16
 608 952 608 952 608 912 c 128,-1,17
 608 872 608 872 580 844 c 128,-1,18
 552 816 552 816 512 816 c 128,-1,19
 472 816 472 816 444 844 c 128,-1,12
 416 872 416 872 416 912 c 128,-1,13
416 336 m 128,-1,21
 416 376 416 376 444 404 c 128,-1,22
 472 432 472 432 512 432 c 128,-1,23
 552 432 552 432 580 404 c 128,-1,24
 608 376 608 376 608 336 c 128,-1,25
 608 296 608 296 580 268 c 128,-1,26
 552 240 552 240 512 240 c 128,-1,27
 472 240 472 240 444 268 c 128,-1,20
 416 296 416 296 416 336 c 128,-1,21
EndSplineSet
EndChar

StartChar: oslash
Encoding: 248 248 186
Width: 1024
GlyphClass: 2
Flags: W
LayerCount: 2
Fore
SplineSet
512 80 m 0,0,1
 643 80 643 80 737.5 182.5 c 128,-1,2
 832 285 832 285 832 432 c 256,3,4
 832 579 832 579 737 682 c 1,5,-1
 362 121 l 1,6,7
 433 80 433 80 512 80 c 0,0,1
512 784 m 0,8,9
 381 784 381 784 286.5 681.5 c 128,-1,10
 192 579 192 579 192 432 c 256,11,12
 192 285 192 285 287 182 c 1,13,-1
 662 743 l 1,14,15
 591 784 591 784 512 784 c 0,8,9
128 -192 m 0,16,17
 108 -192 108 -192 94 -178 c 128,-1,18
 80 -164 80 -164 80 -144 c 0,19,20
 80 -129 80 -129 88 -117 c 2,21,-1
 233 100 l 1,22,23
 168 163 168 163 132 249.5 c 128,-1,24
 96 336 96 336 96 432 c 0,25,26
 96 552 96 552 151 655 c 128,-1,27
 206 758 206 758 302 819 c 128,-1,28
 398 880 398 880 512 880 c 0,29,30
 621 880 621 880 715 823 c 1,31,-1
 856 1035 l 2,32,33
 870 1056 870 1056 896 1056 c 0,34,35
 916 1056 916 1056 930 1042 c 128,-1,36
 944 1028 944 1028 944 1008 c 0,37,38
 944 994 944 994 936 981 c 2,39,-1
 791 764 l 1,40,41
 856 701 856 701 892 614.5 c 128,-1,42
 928 528 928 528 928 432 c 0,43,44
 928 312 928 312 873 209 c 128,-1,45
 818 106 818 106 722 45 c 128,-1,46
 626 -16 626 -16 512 -16 c 0,47,48
 403 -16 403 -16 309 41 c 1,49,-1
 168 -171 l 2,50,51
 154 -192 154 -192 128 -192 c 0,16,17
EndSplineSet
EndChar

StartChar: thorn
Encoding: 254 254 192
Width: 1024
GlyphClass: 2
Flags: W
LayerCount: 2
Fore
SplineSet
592 80 m 0,0,1
 653 80 653 80 707 124 c 0,2,3
 762 169 762 169 797 251 c 128,-1,4
 832 333 832 333 832 432 c 128,-1,5
 832 531 832 531 797 613 c 128,-1,6
 762 695 762 695 707 740 c 0,7,8
 653 784 653 784 592 784 c 0,9,10
 528 784 528 784 470 754 c 0,11,12
 412 725 412 725 368.5 670 c 128,-1,13
 325 615 325 615 304 545 c 1,14,15
 304 507 304 507 304 432 c 128,-1,16
 304 357 304 357 304 319 c 1,17,18
 325 249 325 249 368.5 194 c 128,-1,19
 412 139 412 139 470 110 c 0,20,21
 528 80 528 80 592 80 c 0,0,1
256 1248 m 2,22,23
 277 1248 277 1248 290.5 1233.5 c 128,-1,24
 304 1219 304 1219 304 1200 c 0,25,26
 304 1124 304 1124 304 971.5 c 128,-1,27
 304 819 304 819 304 743 c 1,28,29
 357 804 357 804 426 840 c 0,30,31
 505 880 505 880 592 880 c 0,32,33
 687 880 687 880 768 815 c 0,34,35
 843 754 843 754 885.5 652.5 c 128,-1,36
 928 551 928 551 928 432 c 128,-1,37
 928 313 928 313 885.5 211.5 c 128,-1,38
 843 110 843 110 768 49 c 0,39,40
 687 -16 687 -16 592 -16 c 0,41,42
 505 -16 505 -16 426 24 c 0,43,44
 357 60 357 60 304 121 c 1,45,46
 304 53 304 53 304 -83.5 c 128,-1,47
 304 -220 304 -220 304 -288 c 1,48,-1
 416 -288 l 2,49,50
 436 -288 436 -288 450 -302 c 128,-1,51
 464 -316 464 -316 464 -336 c 128,-1,52
 464 -356 464 -356 450 -370 c 128,-1,53
 436 -384 436 -384 416 -384 c 2,54,-1
 96 -384 l 2,55,56
 76 -384 76 -384 62 -370 c 128,-1,57
 48 -356 48 -356 48 -336 c 128,-1,58
 48 -316 48 -316 62 -302 c 128,-1,59
 76 -288 76 -288 96 -288 c 2,60,-1
 208 -288 l 1,61,-1
 208 312 l 1,62,63
 208 312 208 312 208 313 c 1,64,65
 208 313 208 313 208 313 c 1,66,-1
 208 551 l 2,67,68
 208 552 208 552 208 552 c 1,69,-1
 208 1152 l 1,70,-1
 96 1152 l 2,71,72
 76 1152 76 1152 62 1166 c 128,-1,73
 48 1180 48 1180 48 1200 c 128,-1,74
 48 1220 48 1220 62 1234 c 128,-1,75
 76 1248 76 1248 96 1248 c 2,76,-1
 256 1248 l 2,22,23
EndSplineSet
EndChar

StartChar: dotlessi
Encoding: 305 305 237
Width: 1024
GlyphClass: 2
Flags: W
LayerCount: 2
Fore
SplineSet
512 864 m 2,0,1
 533 864 533 864 546.5 849.5 c 128,-1,2
 560 835 560 835 560 816 c 0,3,4
 560 696 560 696 560 456 c 128,-1,5
 560 216 560 216 560 96 c 1,6,-1
 816 96 l 2,7,8
 836 96 836 96 850 82 c 128,-1,9
 864 68 864 68 864 48 c 128,-1,10
 864 28 864 28 850 14 c 128,-1,11
 836 0 836 0 816 0 c 2,12,-1
 208 0 l 2,13,14
 188 0 188 0 174 14 c 128,-1,15
 160 28 160 28 160 48 c 128,-1,16
 160 68 160 68 174 82 c 128,-1,17
 188 96 188 96 208 96 c 2,18,-1
 464 96 l 1,19,-1
 464 768 l 1,20,-1
 208 768 l 2,21,22
 188 768 188 768 174 782 c 128,-1,23
 160 796 160 796 160 816 c 128,-1,24
 160 836 160 836 174 850 c 128,-1,25
 188 864 188 864 208 864 c 2,26,-1
 512 864 l 2,0,1
EndSplineSet
Substitution2: "'ss05' Style Set 5 lookup 0 subtable" dotlessi.ss05
EndChar

StartChar: Lslash
Encoding: 321 321 244
Width: 1024
GlyphClass: 2
Flags: W
LayerCount: 2
Fore
SplineSet
96 448 m 0,0,1
 76 448 76 448 62 462 c 128,-1,2
 48 476 48 476 48 496 c 0,3,4
 48 523 48 523 71 537 c 2,5,-1
 487 793 l 2,6,7
 498 800 498 800 512 800 c 0,8,9
 532 800 532 800 546 786 c 128,-1,10
 560 772 560 772 560 752 c 0,11,12
 560 725 560 725 537 711 c 2,13,-1
 121 455 l 2,14,15
 109 448 109 448 96 448 c 0,0,1
928 48 m 2,16,17
 928 28 928 28 914 14 c 128,-1,18
 900 0 900 0 880 0 c 2,19,-1
 96 0 l 2,20,21
 76 0 76 0 62 14 c 128,-1,22
 48 28 48 28 48 48 c 128,-1,23
 48 68 48 68 62 82 c 128,-1,24
 76 96 76 96 96 96 c 2,25,-1
 256 96 l 1,26,-1
 256 1152 l 1,27,-1
 96 1152 l 2,28,29
 76 1152 76 1152 62 1166 c 128,-1,30
 48 1180 48 1180 48 1200 c 128,-1,31
 48 1220 48 1220 62 1234 c 128,-1,32
 76 1248 76 1248 96 1248 c 2,33,-1
 544 1248 l 2,34,35
 564 1248 564 1248 578 1234 c 128,-1,36
 592 1220 592 1220 592 1200 c 128,-1,37
 592 1180 592 1180 578 1166 c 128,-1,38
 564 1152 564 1152 544 1152 c 2,39,-1
 352 1152 l 1,40,-1
 352 96 l 1,41,-1
 832 96 l 1,42,-1
 832 432 l 2,43,44
 832 452 832 452 846 466 c 128,-1,45
 860 480 860 480 880 480 c 128,-1,46
 900 480 900 480 914 466 c 128,-1,47
 928 452 928 452 928 432 c 2,48,-1
 928 48 l 2,16,17
EndSplineSet
EndChar

StartChar: lslash
Encoding: 322 322 245
Width: 1024
GlyphClass: 2
Flags: W
LayerCount: 2
Fore
SplineSet
304 448 m 0,0,1
 284 448 284 448 270 462 c 128,-1,2
 256 476 256 476 256 496 c 0,3,4
 256 523 256 523 279 537 c 2,5,-1
 695 793 l 2,6,7
 706 800 706 800 720 800 c 0,8,9
 740 800 740 800 754 786 c 128,-1,10
 768 772 768 772 768 752 c 0,11,12
 768 725 768 725 745 711 c 2,13,-1
 329 455 l 2,14,15
 317 448 317 448 304 448 c 0,0,1
208 0 m 2,16,17
 188 0 188 0 174 14 c 128,-1,18
 160 28 160 28 160 48 c 128,-1,19
 160 68 160 68 174 82 c 128,-1,20
 188 96 188 96 208 96 c 2,21,-1
 464 96 l 1,22,-1
 464 1152 l 1,23,-1
 208 1152 l 2,24,25
 188 1152 188 1152 174 1166 c 128,-1,26
 160 1180 160 1180 160 1200 c 128,-1,27
 160 1220 160 1220 174 1234 c 128,-1,28
 188 1248 188 1248 208 1248 c 2,29,-1
 512 1248 l 2,30,31
 532 1248 532 1248 546 1234 c 128,-1,32
 560 1220 560 1220 560 1200 c 0,33,34
 560 1016 560 1016 560 648 c 128,-1,35
 560 280 560 280 560 96 c 1,36,-1
 816 96 l 2,37,38
 836 96 836 96 850 82 c 128,-1,39
 864 68 864 68 864 48 c 128,-1,40
 864 28 864 28 850 14 c 128,-1,41
 836 0 836 0 816 0 c 2,42,-1
 208 0 l 2,16,17
EndSplineSet
Substitution2: "'ss05' Style Set 5 lookup 0 subtable" lslash.ss05
EndChar

StartChar: OE
Encoding: 338 338 256
Width: 1024
GlyphClass: 2
Flags: W
LayerCount: 2
Fore
SplineSet
928 48 m 2,0,1
 928 28 928 28 914 14 c 128,-1,2
 900 0 900 0 880 0 c 2,3,-1
 528 0 l 2,4,5
 508 0 508 0 494 14 c 128,-1,6
 480 28 480 28 480 48 c 2,7,-1
 480 90 l 1,8,9
 421 -16 421 -16 336 -16 c 128,-1,10
 251 -16 251 -16 192 90 c 0,11,12
 151 164 151 164 126 287 c 0,13,14
 96 437 96 437 96 624 c 128,-1,15
 96 811 96 811 126 961 c 0,16,17
 151 1084 151 1084 192 1158 c 0,18,19
 251 1264 251 1264 336 1264 c 128,-1,20
 421 1264 421 1264 480 1158 c 1,21,-1
 480 1200 l 2,22,23
 480 1220 480 1220 494 1234 c 128,-1,24
 508 1248 508 1248 528 1248 c 2,25,-1
 880 1248 l 2,26,27
 900 1248 900 1248 914 1234 c 128,-1,28
 928 1220 928 1220 928 1200 c 2,29,-1
 928 864 l 2,30,31
 928 844 928 844 914 830 c 128,-1,32
 900 816 900 816 880 816 c 128,-1,33
 860 816 860 816 846 830 c 128,-1,34
 832 844 832 844 832 864 c 2,35,-1
 832 1152 l 1,36,-1
 576 1152 l 1,37,-1
 576 720 l 1,38,-1
 672 720 l 1,39,-1
 672 864 l 2,40,41
 672 884 672 884 686 898 c 128,-1,42
 700 912 700 912 720 912 c 128,-1,43
 740 912 740 912 754 898 c 128,-1,44
 768 884 768 884 768 864 c 2,45,-1
 768 480 l 2,46,47
 768 460 768 460 754 446 c 128,-1,48
 740 432 740 432 720 432 c 128,-1,49
 700 432 700 432 686 446 c 128,-1,50
 672 460 672 460 672 480 c 2,51,-1
 672 624 l 1,52,-1
 576 624 l 1,53,-1
 576 96 l 1,54,-1
 832 96 l 1,55,-1
 832 384 l 2,56,57
 832 404 832 404 846 418 c 128,-1,58
 860 432 860 432 880 432 c 128,-1,59
 900 432 900 432 914 418 c 128,-1,60
 928 404 928 404 928 384 c 2,61,-1
 928 48 l 2,0,1
192 624 m 128,-1,63
 192 350 192 350 253 188 c 0,64,65
 269 144 269 144 288 117 c 0,66,67
 301 97 301 97 315 88 c 0,68,69
 326 80 326 80 336 80 c 128,-1,70
 346 80 346 80 357 88 c 0,71,72
 371 97 371 97 384 117 c 0,73,74
 403 144 403 144 419 188 c 0,75,76
 480 350 480 350 480 624 c 128,-1,77
 480 898 480 898 419 1060 c 0,78,79
 403 1104 403 1104 384 1131 c 0,80,81
 371 1151 371 1151 357 1160 c 0,82,83
 346 1168 346 1168 336 1168 c 128,-1,84
 326 1168 326 1168 315 1160 c 0,85,86
 301 1151 301 1151 288 1131 c 0,87,88
 269 1104 269 1104 253 1060 c 0,89,62
 192 898 192 898 192 624 c 128,-1,63
EndSplineSet
EndChar

StartChar: oe
Encoding: 339 339 257
Width: 1024
GlyphClass: 2
Flags: W
LayerCount: 2
Fore
SplineSet
696 784 m 0,0,1
 669 784 669 784 641 748 c 0,2,3
 610 708 610 708 589 639 c 0,4,5
 573 588 573 588 566 528 c 1,6,-1
 830 528 l 1,7,8
 825 599 825 599 804 659 c 0,9,10
 783 718 783 718 753 752 c 0,11,12
 724 784 724 784 696 784 c 0,0,1
192 432 m 128,-1,14
 192 318 192 318 221 225 c 0,15,16
 242 156 242 156 273 116 c 0,17,18
 301 80 301 80 328 80 c 128,-1,19
 355 80 355 80 383 116 c 0,20,21
 414 156 414 156 435 225 c 0,22,23
 464 318 464 318 464 432 c 128,-1,24
 464 546 464 546 435 639 c 0,25,26
 414 708 414 708 383 748 c 0,27,28
 355 784 355 784 328 784 c 128,-1,29
 301 784 301 784 273 748 c 0,30,31
 242 708 242 708 221 639 c 0,32,13
 192 546 192 546 192 432 c 128,-1,14
832 256 m 0,33,34
 832 276 832 276 846 290 c 128,-1,35
 860 304 860 304 880 304 c 128,-1,36
 900 304 900 304 914 290 c 128,-1,37
 928 276 928 276 928 256 c 0,38,39
 928 184 928 184 898.5 122 c 128,-1,40
 869 60 869 60 817 23 c 0,41,42
 761 -16 761 -16 696 -16 c 0,43,44
 623 -16 623 -16 565 57 c 0,45,46
 534 96 534 96 512 153 c 1,47,48
 490 96 490 96 459 57 c 0,49,50
 401 -16 401 -16 328 -16 c 128,-1,51
 255 -16 255 -16 197 57 c 0,52,53
 155 111 155 111 129 197 c 0,54,55
 96 304 96 304 96 432 c 128,-1,56
 96 560 96 560 129 667 c 0,57,58
 155 753 155 753 197 807 c 0,59,60
 255 880 255 880 328 880 c 128,-1,61
 401 880 401 880 459 807 c 0,62,63
 490 768 490 768 512 711 c 1,64,65
 534 768 534 768 565 807 c 0,66,67
 623 880 623 880 696 880 c 0,68,69
 767 880 767 880 825 816 c 0,70,71
 868 767 868 767 895 690 c 0,72,73
 928 594 928 594 928 480 c 0,74,75
 928 460 928 460 914 446 c 128,-1,76
 900 432 900 432 880 432 c 2,77,-1
 560 432 l 1,78,79
 560 318 560 318 589 225 c 0,80,81
 610 156 610 156 641 116 c 0,82,83
 669 80 669 80 696 80 c 0,84,85
 731 80 731 80 761 102 c 0,86,87
 792 124 792 124 812 165 c 128,-1,88
 832 206 832 206 832 256 c 0,33,34
EndSplineSet
EndChar

StartChar: longs
Encoding: 383 383 296
Width: 1024
GlyphClass: 2
Flags: W
LayerCount: 2
Fore
SplineSet
854 1100 m 1,0,1
 826 1131 826 1131 777.5 1149.5 c 128,-1,2
 729 1168 729 1168 672 1168 c 0,3,4
 586 1168 586 1168 525 1107 c 128,-1,5
 464 1046 464 1046 464 960 c 2,6,-1
 464 96 l 1,7,-1
 688 96 l 2,8,9
 708 96 708 96 722 82 c 128,-1,10
 736 68 736 68 736 48 c 128,-1,11
 736 28 736 28 722 14 c 128,-1,12
 708 0 708 0 688 0 c 2,13,-1
 144 0 l 2,14,15
 124 0 124 0 110 14 c 128,-1,16
 96 28 96 28 96 48 c 128,-1,17
 96 68 96 68 110 82 c 128,-1,18
 124 96 124 96 144 96 c 2,19,-1
 368 96 l 1,20,-1
 368 960 l 2,21,22
 368 1086 368 1086 457 1175 c 128,-1,23
 546 1264 546 1264 672 1264 c 0,24,25
 753 1264 753 1264 821 1236 c 128,-1,26
 889 1208 889 1208 929 1160 c 0,27,28
 976 1105 976 1105 976 1040 c 2,29,-1
 976 1008 l 2,30,31
 976 968 976 968 948 940 c 128,-1,32
 920 912 920 912 880 912 c 128,-1,33
 840 912 840 912 812 940 c 128,-1,34
 784 968 784 968 784 1008 c 0,35,36
 784 1041 784 1041 803.5 1066.5 c 128,-1,37
 823 1092 823 1092 854 1100 c 1,0,1
EndSplineSet
EndChar

StartChar: florin
Encoding: 402 402 297
Width: 1024
GlyphClass: 2
Flags: W
LayerCount: 2
Fore
SplineSet
256 704 m 2,0,1
 236 704 236 704 222 718 c 128,-1,2
 208 732 208 732 208 752 c 128,-1,3
 208 772 208 772 222 786 c 128,-1,4
 236 800 236 800 256 800 c 2,5,-1
 464 800 l 1,6,-1
 464 960 l 2,7,8
 464 1071 464 1071 519 1152 c 0,9,10
 555 1204 555 1204 611 1234 c 128,-1,11
 667 1264 667 1264 736 1264 c 0,12,13
 870 1264 870 1264 932 1183 c 0,14,15
 976 1126 976 1126 976 1040 c 2,16,-1
 976 1008 l 2,17,18
 976 968 976 968 948 940 c 128,-1,19
 920 912 920 912 880 912 c 128,-1,20
 840 912 840 912 812 940 c 128,-1,21
 784 968 784 968 784 1008 c 0,22,23
 784 1044 784 1044 808.5 1071.5 c 128,-1,24
 833 1099 833 1099 868 1103 c 1,25,26
 863 1115 863 1115 856 1124 c 0,27,28
 823 1168 823 1168 736 1168 c 0,29,30
 676 1168 676 1168 634 1135 c 0,31,32
 600 1109 600 1109 580 1063 c 128,-1,33
 560 1017 560 1017 560 960 c 2,34,-1
 560 800 l 1,35,-1
 768 800 l 2,36,37
 788 800 788 800 802 786 c 128,-1,38
 816 772 816 772 816 752 c 128,-1,39
 816 732 816 732 802 718 c 128,-1,40
 788 704 788 704 768 704 c 2,41,-1
 560 704 l 1,42,-1
 560 -96 l 2,43,44
 560 -207 560 -207 505 -288 c 0,45,46
 469 -340 469 -340 413 -370 c 128,-1,47
 357 -400 357 -400 288 -400 c 0,48,49
 154 -400 154 -400 92 -319 c 0,50,51
 48 -262 48 -262 48 -176 c 2,52,-1
 48 -144 l 2,53,54
 48 -104 48 -104 76 -76 c 128,-1,55
 104 -48 104 -48 144 -48 c 128,-1,56
 184 -48 184 -48 212 -76 c 128,-1,57
 240 -104 240 -104 240 -144 c 0,58,59
 240 -180 240 -180 215.5 -207.5 c 128,-1,60
 191 -235 191 -235 156 -239 c 1,61,62
 161 -251 161 -251 168 -260 c 0,63,64
 201 -304 201 -304 288 -304 c 0,65,66
 348 -304 348 -304 390 -271 c 0,67,68
 424 -245 424 -245 444 -199 c 128,-1,69
 464 -153 464 -153 464 -96 c 2,70,-1
 464 704 l 1,71,-1
 256 704 l 2,0,1
EndSplineSet
EndChar

StartChar: uni0237
Encoding: 567 567 381
Width: 1024
GlyphClass: 2
Flags: W
LayerCount: 2
Fore
SplineSet
96 -48 m 0,0,1
 96 -8 96 -8 124 20 c 128,-1,2
 152 48 152 48 192 48 c 128,-1,3
 232 48 232 48 260 20 c 128,-1,4
 288 -8 288 -8 288 -48 c 0,5,6
 288 -86 288 -86 261.5 -114 c 128,-1,7
 235 -142 235 -142 198 -144 c 1,8,9
 214 -213 214 -213 270.5 -258.5 c 128,-1,10
 327 -304 327 -304 400 -304 c 0,11,12
 486 -304 486 -304 547 -243 c 128,-1,13
 608 -182 608 -182 608 -96 c 2,14,-1
 608 768 l 1,15,-1
 384 768 l 2,16,17
 364 768 364 768 350 782 c 128,-1,18
 336 796 336 796 336 816 c 128,-1,19
 336 836 336 836 350 850 c 128,-1,20
 364 864 364 864 384 864 c 2,21,-1
 656 864 l 2,22,23
 676 864 676 864 690 850 c 128,-1,24
 704 836 704 836 704 816 c 2,25,-1
 704 -96 l 2,26,27
 704 -222 704 -222 615 -311 c 128,-1,28
 526 -400 526 -400 400 -400 c 128,-1,29
 274 -400 274 -400 185 -311 c 128,-1,30
 96 -222 96 -222 96 -96 c 0,31,32
 96 -86 96 -86 100 -76 c 1,33,34
 96 -62 96 -62 96 -48 c 0,0,1
EndSplineSet
EndChar

StartChar: circumflex
Encoding: 710 710 383
Width: 1024
GlyphClass: 4
Flags: W
LayerCount: 2
Fore
SplineSet
272 1344 m 0,0,1
 252 1344 252 1344 238 1358 c 128,-1,2
 224 1372 224 1372 224 1392 c 0,3,4
 224 1415 224 1415 242 1429 c 2,5,-1
 482 1621 l 2,6,7
 495 1632 495 1632 512 1632 c 128,-1,8
 529 1632 529 1632 542 1621 c 0,9,10
 782 1429 782 1429 782 1429 c 2,11,12
 800 1415 800 1415 800 1392 c 0,13,14
 800 1372 800 1372 786 1358 c 128,-1,15
 772 1344 772 1344 752 1344 c 0,16,17
 735 1344 735 1344 722 1355 c 2,18,-1
 512 1523 l 1,19,-1
 302 1355 l 2,20,21
 289 1344 289 1344 272 1344 c 0,0,1
EndSplineSet
EndChar

StartChar: breve
Encoding: 728 728 384
Width: 1024
GlyphClass: 4
Flags: W
LayerCount: 2
Fore
SplineSet
656 1584 m 0,0,1
 656 1604 656 1604 670 1618 c 128,-1,2
 684 1632 684 1632 704 1632 c 128,-1,3
 724 1632 724 1632 738 1618 c 128,-1,4
 752 1604 752 1604 752 1584 c 0,5,6
 752 1485 752 1485 681.5 1414.5 c 128,-1,7
 611 1344 611 1344 512 1344 c 128,-1,8
 413 1344 413 1344 342.5 1414.5 c 128,-1,9
 272 1485 272 1485 272 1584 c 0,10,11
 272 1604 272 1604 286 1618 c 128,-1,12
 300 1632 300 1632 320 1632 c 128,-1,13
 340 1632 340 1632 354 1618 c 128,-1,14
 368 1604 368 1604 368 1584 c 0,15,16
 368 1524 368 1524 410 1482 c 128,-1,17
 452 1440 452 1440 512 1440 c 128,-1,18
 572 1440 572 1440 614 1482 c 128,-1,19
 656 1524 656 1524 656 1584 c 0,0,1
EndSplineSet
EndChar

StartChar: dotaccent
Encoding: 729 729 385
Width: 1024
GlyphClass: 4
Flags: W
LayerCount: 2
Fore
SplineSet
416 1464 m 128,-1,1
 416 1504 416 1504 444 1532 c 128,-1,2
 472 1560 472 1560 512 1560 c 128,-1,3
 552 1560 552 1560 580 1532 c 128,-1,4
 608 1504 608 1504 608 1464 c 128,-1,5
 608 1424 608 1424 580 1396 c 128,-1,6
 552 1368 552 1368 512 1368 c 128,-1,7
 472 1368 472 1368 444 1396 c 128,-1,0
 416 1424 416 1424 416 1464 c 128,-1,1
EndSplineSet
EndChar

StartChar: ring
Encoding: 730 730 386
Width: 1024
GlyphClass: 4
Flags: W
LayerCount: 2
Fore
SplineSet
352 1488 m 128,-1,1
 352 1554 352 1554 399 1601 c 128,-1,2
 446 1648 446 1648 512 1648 c 128,-1,3
 578 1648 578 1648 625 1601 c 128,-1,4
 672 1554 672 1554 672 1488 c 128,-1,5
 672 1422 672 1422 625 1375 c 128,-1,6
 578 1328 578 1328 512 1328 c 128,-1,7
 446 1328 446 1328 399 1375 c 128,-1,0
 352 1422 352 1422 352 1488 c 128,-1,1
448 1488 m 128,-1,9
 448 1461 448 1461 466.5 1442.5 c 128,-1,10
 485 1424 485 1424 512 1424 c 128,-1,11
 539 1424 539 1424 557.5 1442.5 c 128,-1,12
 576 1461 576 1461 576 1488 c 128,-1,13
 576 1515 576 1515 557.5 1533.5 c 128,-1,14
 539 1552 539 1552 512 1552 c 128,-1,15
 485 1552 485 1552 466.5 1533.5 c 128,-1,8
 448 1515 448 1515 448 1488 c 128,-1,9
EndSplineSet
EndChar

StartChar: tilde
Encoding: 732 732 388
Width: 1024
GlyphClass: 4
Flags: W
LayerCount: 2
Fore
SplineSet
304 1392 m 0,0,1
 304 1372 304 1372 290 1358 c 128,-1,2
 276 1344 276 1344 256 1344 c 128,-1,3
 236 1344 236 1344 222 1358 c 128,-1,4
 208 1372 208 1372 208 1392 c 0,5,6
 208 1469 208 1469 232.5 1527.5 c 128,-1,7
 257 1586 257 1586 306 1613 c 0,8,9
 341 1632 341 1632 384 1632 c 0,10,11
 411 1632 411 1632 435 1623 c 128,-1,12
 459 1614 459 1614 474 1604.5 c 128,-1,13
 489 1595 489 1595 507 1574.5 c 128,-1,14
 525 1554 525 1554 531.5 1545 c 128,-1,15
 538 1536 538 1536 552 1515 c 0,16,17
 580 1472 580 1472 597.5 1456 c 128,-1,18
 615 1440 615 1440 640 1440 c 0,19,20
 659 1440 659 1440 672 1447 c 0,21,22
 696 1461 696 1461 708 1499 c 128,-1,23
 720 1537 720 1537 720 1584 c 0,24,25
 720 1604 720 1604 734 1618 c 128,-1,26
 748 1632 748 1632 768 1632 c 128,-1,27
 788 1632 788 1632 802 1618 c 128,-1,28
 816 1604 816 1604 816 1584 c 0,29,30
 816 1507 816 1507 791.5 1448.5 c 128,-1,31
 767 1390 767 1390 718 1363 c 0,32,33
 683 1344 683 1344 640 1344 c 0,34,35
 613 1344 613 1344 589 1353 c 128,-1,36
 565 1362 565 1362 550 1371.5 c 128,-1,37
 535 1381 535 1381 517 1401.5 c 128,-1,38
 499 1422 499 1422 492.5 1431 c 128,-1,39
 486 1440 486 1440 472 1461 c 0,40,41
 444 1504 444 1504 426.5 1520 c 128,-1,42
 409 1536 409 1536 384 1536 c 0,43,44
 365 1536 365 1536 352 1529 c 0,45,46
 328 1515 328 1515 316 1477 c 128,-1,47
 304 1439 304 1439 304 1392 c 0,0,1
EndSplineSet
EndChar

StartChar: hungarumlaut
Encoding: 733 733 389
Width: 1024
GlyphClass: 4
Flags: W
LayerCount: 2
Fore
SplineSet
288 1344 m 128,-1,1
 268 1344 268 1344 254 1358 c 128,-1,2
 240 1372 240 1372 240 1392 c 128,-1,3
 240 1412 240 1412 254 1426 c 2,4,-1
 446 1618 l 2,5,6
 460 1632 460 1632 480 1632 c 128,-1,7
 500 1632 500 1632 514 1618 c 128,-1,8
 528 1604 528 1604 528 1584 c 128,-1,9
 528 1564 528 1564 514 1550 c 2,10,-1
 322 1358 l 2,11,0
 308 1344 308 1344 288 1344 c 128,-1,1
544 1344 m 128,-1,13
 524 1344 524 1344 510 1358 c 128,-1,14
 496 1372 496 1372 496 1392 c 128,-1,15
 496 1412 496 1412 510 1426 c 2,16,-1
 702 1618 l 2,17,18
 716 1632 716 1632 736 1632 c 128,-1,19
 756 1632 756 1632 770 1618 c 128,-1,20
 784 1604 784 1604 784 1584 c 128,-1,21
 784 1564 784 1564 770 1550 c 2,22,-1
 578 1358 l 2,23,12
 564 1344 564 1344 544 1344 c 128,-1,13
EndSplineSet
EndChar

StartChar: gravecomb
Encoding: 768 768 390
Width: 1024
GlyphClass: 4
Flags: W
LayerCount: 2
Fore
SplineSet
304 1584 m 0,0,1
 304 1604 304 1604 318 1618 c 128,-1,2
 332 1632 332 1632 352 1632 c 0,3,4
 365 1632 365 1632 377 1625 c 2,5,-1
 697 1433 l 2,6,7
 720 1419 720 1419 720 1392 c 0,8,9
 720 1372 720 1372 706 1358 c 128,-1,10
 692 1344 692 1344 672 1344 c 0,11,12
 659 1344 659 1344 647 1351 c 2,13,-1
 327 1543 l 2,14,15
 304 1557 304 1557 304 1584 c 0,0,1
EndSplineSet
EndChar

StartChar: acutecomb
Encoding: 769 769 391
Width: 1024
GlyphClass: 4
Flags: W
LayerCount: 2
Fore
SplineSet
352 1344 m 0,0,1
 332 1344 332 1344 318 1358 c 128,-1,2
 304 1372 304 1372 304 1392 c 0,3,4
 304 1419 304 1419 327 1433 c 2,5,-1
 647 1625 l 2,6,7
 659 1632 659 1632 672 1632 c 0,8,9
 692 1632 692 1632 706 1618 c 128,-1,10
 720 1604 720 1604 720 1584 c 0,11,12
 720 1557 720 1557 697 1543 c 2,13,-1
 377 1351 l 2,14,15
 365 1344 365 1344 352 1344 c 0,0,1
EndSplineSet
EndChar

StartChar: uni0302
Encoding: 770 770 392
Width: 1024
GlyphClass: 4
Flags: W
LayerCount: 2
Fore
SplineSet
272 1344 m 0,0,1
 252 1344 252 1344 238 1358 c 128,-1,2
 224 1372 224 1372 224 1392 c 0,3,4
 224 1415 224 1415 242 1429 c 2,5,-1
 482 1621 l 2,6,7
 495 1632 495 1632 512 1632 c 128,-1,8
 529 1632 529 1632 542 1621 c 0,9,10
 782 1429 782 1429 782 1429 c 2,11,12
 800 1415 800 1415 800 1392 c 0,13,14
 800 1372 800 1372 786 1358 c 128,-1,15
 772 1344 772 1344 752 1344 c 0,16,17
 735 1344 735 1344 722 1355 c 2,18,-1
 512 1523 l 1,19,-1
 302 1355 l 2,20,21
 289 1344 289 1344 272 1344 c 0,0,1
EndSplineSet
EndChar

StartChar: tildecomb
Encoding: 771 771 393
Width: 1024
GlyphClass: 4
Flags: W
LayerCount: 2
Fore
SplineSet
304 1392 m 0,0,1
 304 1372 304 1372 290 1358 c 128,-1,2
 276 1344 276 1344 256 1344 c 128,-1,3
 236 1344 236 1344 222 1358 c 128,-1,4
 208 1372 208 1372 208 1392 c 0,5,6
 208 1469 208 1469 232.5 1527.5 c 128,-1,7
 257 1586 257 1586 306 1613 c 0,8,9
 341 1632 341 1632 384 1632 c 0,10,11
 411 1632 411 1632 435 1623 c 128,-1,12
 459 1614 459 1614 474 1604.5 c 128,-1,13
 489 1595 489 1595 507 1574.5 c 128,-1,14
 525 1554 525 1554 531.5 1545 c 128,-1,15
 538 1536 538 1536 552 1515 c 0,16,17
 580 1472 580 1472 597.5 1456 c 128,-1,18
 615 1440 615 1440 640 1440 c 0,19,20
 659 1440 659 1440 672 1447 c 0,21,22
 696 1461 696 1461 708 1499 c 128,-1,23
 720 1537 720 1537 720 1584 c 0,24,25
 720 1604 720 1604 734 1618 c 128,-1,26
 748 1632 748 1632 768 1632 c 128,-1,27
 788 1632 788 1632 802 1618 c 128,-1,28
 816 1604 816 1604 816 1584 c 0,29,30
 816 1507 816 1507 791.5 1448.5 c 128,-1,31
 767 1390 767 1390 718 1363 c 0,32,33
 683 1344 683 1344 640 1344 c 0,34,35
 613 1344 613 1344 589 1353 c 128,-1,36
 565 1362 565 1362 550 1371.5 c 128,-1,37
 535 1381 535 1381 517 1401.5 c 128,-1,38
 499 1422 499 1422 492.5 1431 c 128,-1,39
 486 1440 486 1440 472 1461 c 0,40,41
 444 1504 444 1504 426.5 1520 c 128,-1,42
 409 1536 409 1536 384 1536 c 0,43,44
 365 1536 365 1536 352 1529 c 0,45,46
 328 1515 328 1515 316 1477 c 128,-1,47
 304 1439 304 1439 304 1392 c 0,0,1
EndSplineSet
EndChar

StartChar: uni0304
Encoding: 772 772 394
Width: 1024
GlyphClass: 4
Flags: W
LayerCount: 2
Fore
SplineSet
352 1440 m 2,0,1
 332 1440 332 1440 318 1454 c 128,-1,2
 304 1468 304 1468 304 1488 c 128,-1,3
 304 1508 304 1508 318 1522 c 128,-1,4
 332 1536 332 1536 352 1536 c 2,5,-1
 672 1536 l 2,6,7
 692 1536 692 1536 706 1522 c 128,-1,8
 720 1508 720 1508 720 1488 c 128,-1,9
 720 1468 720 1468 706 1454 c 128,-1,10
 692 1440 692 1440 672 1440 c 2,11,-1
 352 1440 l 2,0,1
EndSplineSet
EndChar

StartChar: uni0305
Encoding: 773 773 395
Width: 1024
GlyphClass: 4
Flags: W
LayerCount: 2
Fore
SplineSet
144 1440 m 2,0,1
 124 1440 124 1440 110 1454 c 128,-1,2
 96 1468 96 1468 96 1488 c 128,-1,3
 96 1508 96 1508 110 1522 c 128,-1,4
 124 1536 124 1536 144 1536 c 2,5,-1
 880 1536 l 2,6,7
 900 1536 900 1536 914 1522 c 128,-1,8
 928 1508 928 1508 928 1488 c 128,-1,9
 928 1468 928 1468 914 1454 c 128,-1,10
 900 1440 900 1440 880 1440 c 2,11,-1
 144 1440 l 2,0,1
EndSplineSet
EndChar

StartChar: uni0306
Encoding: 774 774 396
Width: 1024
GlyphClass: 4
Flags: W
LayerCount: 2
Fore
SplineSet
656 1584 m 0,0,1
 656 1604 656 1604 670 1618 c 128,-1,2
 684 1632 684 1632 704 1632 c 128,-1,3
 724 1632 724 1632 738 1618 c 128,-1,4
 752 1604 752 1604 752 1584 c 0,5,6
 752 1485 752 1485 681.5 1414.5 c 128,-1,7
 611 1344 611 1344 512 1344 c 128,-1,8
 413 1344 413 1344 342.5 1414.5 c 128,-1,9
 272 1485 272 1485 272 1584 c 0,10,11
 272 1604 272 1604 286 1618 c 128,-1,12
 300 1632 300 1632 320 1632 c 128,-1,13
 340 1632 340 1632 354 1618 c 128,-1,14
 368 1604 368 1604 368 1584 c 0,15,16
 368 1524 368 1524 410 1482 c 128,-1,17
 452 1440 452 1440 512 1440 c 128,-1,18
 572 1440 572 1440 614 1482 c 128,-1,19
 656 1524 656 1524 656 1584 c 0,0,1
EndSplineSet
EndChar

StartChar: uni0307
Encoding: 775 775 397
Width: 1024
GlyphClass: 4
Flags: W
LayerCount: 2
Fore
SplineSet
416 1464 m 128,-1,1
 416 1504 416 1504 444 1532 c 128,-1,2
 472 1560 472 1560 512 1560 c 128,-1,3
 552 1560 552 1560 580 1532 c 128,-1,4
 608 1504 608 1504 608 1464 c 128,-1,5
 608 1424 608 1424 580 1396 c 128,-1,6
 552 1368 552 1368 512 1368 c 128,-1,7
 472 1368 472 1368 444 1396 c 128,-1,0
 416 1424 416 1424 416 1464 c 128,-1,1
EndSplineSet
EndChar

StartChar: uni0308
Encoding: 776 776 398
Width: 1024
GlyphClass: 4
Flags: W
LayerCount: 2
Fore
SplineSet
224 1464 m 128,-1,1
 224 1504 224 1504 252 1532 c 128,-1,2
 280 1560 280 1560 320 1560 c 128,-1,3
 360 1560 360 1560 388 1532 c 128,-1,4
 416 1504 416 1504 416 1464 c 128,-1,5
 416 1424 416 1424 388 1396 c 128,-1,6
 360 1368 360 1368 320 1368 c 128,-1,7
 280 1368 280 1368 252 1396 c 128,-1,0
 224 1424 224 1424 224 1464 c 128,-1,1
608 1464 m 128,-1,9
 608 1504 608 1504 636 1532 c 128,-1,10
 664 1560 664 1560 704 1560 c 128,-1,11
 744 1560 744 1560 772 1532 c 128,-1,12
 800 1504 800 1504 800 1464 c 128,-1,13
 800 1424 800 1424 772 1396 c 128,-1,14
 744 1368 744 1368 704 1368 c 128,-1,15
 664 1368 664 1368 636 1396 c 128,-1,8
 608 1424 608 1424 608 1464 c 128,-1,9
EndSplineSet
EndChar

StartChar: hookabovecomb
Encoding: 777 777 399
Width: 1024
GlyphClass: 4
Flags: W
LayerCount: 2
Fore
SplineSet
512 1536 m 0,0,1
 456 1536 456 1536 432 1515 c 1,2,3
 430 1497 430 1497 416 1484.5 c 128,-1,4
 402 1472 402 1472 384 1472 c 0,5,6
 364 1472 364 1472 350 1486 c 128,-1,7
 336 1500 336 1500 336 1520 c 0,8,9
 336 1559 336 1559 370 1589 c 0,10,11
 392 1608 392 1608 426 1619 c 0,12,13
 465 1632 465 1632 512 1632 c 128,-1,14
 559 1632 559 1632 598 1619 c 0,15,16
 632 1608 632 1608 654 1589 c 0,17,18
 688 1559 688 1559 688 1520 c 128,-1,19
 688 1481 688 1481 654 1451 c 0,20,21
 632 1432 632 1432 598 1421 c 0,22,23
 580 1415 580 1415 560 1412 c 1,24,-1
 560 1392 l 2,25,26
 560 1372 560 1372 546 1358 c 128,-1,27
 532 1344 532 1344 512 1344 c 128,-1,28
 492 1344 492 1344 478 1358 c 128,-1,29
 464 1372 464 1372 464 1392 c 2,30,-1
 464 1456 l 2,31,32
 464 1476 464 1476 478 1490 c 128,-1,33
 492 1504 492 1504 512 1504 c 0,34,35
 548 1504 548 1504 575 1515 c 0,36,37
 580 1517 580 1517 585 1520 c 1,38,39
 581 1523 581 1523 575 1525 c 0,40,41
 549 1536 549 1536 512 1536 c 0,0,1
EndSplineSet
EndChar

StartChar: uni030A
Encoding: 778 778 400
Width: 1024
GlyphClass: 4
Flags: W
LayerCount: 2
Fore
SplineSet
352 1488 m 128,-1,1
 352 1554 352 1554 399 1601 c 128,-1,2
 446 1648 446 1648 512 1648 c 128,-1,3
 578 1648 578 1648 625 1601 c 128,-1,4
 672 1554 672 1554 672 1488 c 128,-1,5
 672 1422 672 1422 625 1375 c 128,-1,6
 578 1328 578 1328 512 1328 c 128,-1,7
 446 1328 446 1328 399 1375 c 128,-1,0
 352 1422 352 1422 352 1488 c 128,-1,1
448 1488 m 128,-1,9
 448 1461 448 1461 466.5 1442.5 c 128,-1,10
 485 1424 485 1424 512 1424 c 128,-1,11
 539 1424 539 1424 557.5 1442.5 c 128,-1,12
 576 1461 576 1461 576 1488 c 128,-1,13
 576 1515 576 1515 557.5 1533.5 c 128,-1,14
 539 1552 539 1552 512 1552 c 128,-1,15
 485 1552 485 1552 466.5 1533.5 c 128,-1,8
 448 1515 448 1515 448 1488 c 128,-1,9
EndSplineSet
EndChar

StartChar: uni030B
Encoding: 779 779 401
Width: 1024
GlyphClass: 4
Flags: W
LayerCount: 2
Fore
SplineSet
288 1344 m 128,-1,1
 268 1344 268 1344 254 1358 c 128,-1,2
 240 1372 240 1372 240 1392 c 128,-1,3
 240 1412 240 1412 254 1426 c 2,4,-1
 446 1618 l 2,5,6
 460 1632 460 1632 480 1632 c 128,-1,7
 500 1632 500 1632 514 1618 c 128,-1,8
 528 1604 528 1604 528 1584 c 128,-1,9
 528 1564 528 1564 514 1550 c 2,10,-1
 322 1358 l 2,11,0
 308 1344 308 1344 288 1344 c 128,-1,1
544 1344 m 128,-1,13
 524 1344 524 1344 510 1358 c 128,-1,14
 496 1372 496 1372 496 1392 c 128,-1,15
 496 1412 496 1412 510 1426 c 2,16,-1
 702 1618 l 2,17,18
 716 1632 716 1632 736 1632 c 128,-1,19
 756 1632 756 1632 770 1618 c 128,-1,20
 784 1604 784 1604 784 1584 c 128,-1,21
 784 1564 784 1564 770 1550 c 2,22,-1
 578 1358 l 2,23,12
 564 1344 564 1344 544 1344 c 128,-1,13
EndSplineSet
EndChar

StartChar: uni030C
Encoding: 780 780 402
Width: 1024
GlyphClass: 4
Flags: W
LayerCount: 2
Fore
SplineSet
224 1584 m 0,0,1
 224 1604 224 1604 238 1618 c 128,-1,2
 252 1632 252 1632 272 1632 c 0,3,4
 289 1632 289 1632 302 1621 c 2,5,-1
 512 1453 l 1,6,-1
 722 1621 l 2,7,8
 735 1632 735 1632 752 1632 c 0,9,10
 772 1632 772 1632 786 1618 c 128,-1,11
 800 1604 800 1604 800 1584 c 0,12,13
 800 1561 800 1561 782 1547 c 2,14,-1
 542 1355 l 2,15,16
 529 1344 529 1344 512 1344 c 128,-1,17
 495 1344 495 1344 482 1355 c 2,18,19
 482 1355 482 1355 242 1547 c 0,20,21
 224 1561 224 1561 224 1584 c 0,0,1
EndSplineSet
EndChar

StartChar: uni030D
Encoding: 781 781 403
Width: 1024
GlyphClass: 4
Flags: W
LayerCount: 2
Fore
SplineSet
464 1584 m 2,0,1
 464 1604 464 1604 478 1618 c 128,-1,2
 492 1632 492 1632 512 1632 c 128,-1,3
 532 1632 532 1632 546 1618 c 128,-1,4
 560 1604 560 1604 560 1584 c 2,5,-1
 560 1392 l 2,6,7
 560 1372 560 1372 546 1358 c 128,-1,8
 532 1344 532 1344 512 1344 c 128,-1,9
 492 1344 492 1344 478 1358 c 128,-1,10
 464 1372 464 1372 464 1392 c 2,11,-1
 464 1584 l 2,0,1
EndSplineSet
EndChar

StartChar: uni030E
Encoding: 782 782 404
Width: 1024
GlyphClass: 4
Flags: W
LayerCount: 2
Fore
SplineSet
368 1584 m 2,0,1
 368 1604 368 1604 382 1618 c 128,-1,2
 396 1632 396 1632 416 1632 c 128,-1,3
 436 1632 436 1632 450 1618 c 128,-1,4
 464 1604 464 1604 464 1584 c 2,5,-1
 464 1392 l 2,6,7
 464 1372 464 1372 450 1358 c 128,-1,8
 436 1344 436 1344 416 1344 c 128,-1,9
 396 1344 396 1344 382 1358 c 128,-1,10
 368 1372 368 1372 368 1392 c 2,11,-1
 368 1584 l 2,0,1
656 1392 m 2,12,13
 656 1372 656 1372 642 1358 c 128,-1,14
 628 1344 628 1344 608 1344 c 128,-1,15
 588 1344 588 1344 574 1358 c 128,-1,16
 560 1372 560 1372 560 1392 c 2,17,-1
 560 1584 l 2,18,19
 560 1604 560 1604 574 1618 c 128,-1,20
 588 1632 588 1632 608 1632 c 128,-1,21
 628 1632 628 1632 642 1618 c 128,-1,22
 656 1604 656 1604 656 1584 c 2,23,-1
 656 1392 l 2,12,13
EndSplineSet
EndChar

StartChar: uni030F
Encoding: 783 783 405
Width: 1024
GlyphClass: 4
Flags: W
LayerCount: 2
Fore
SplineSet
784 1392 m 128,-1,1
 784 1372 784 1372 770 1358 c 128,-1,2
 756 1344 756 1344 736 1344 c 128,-1,3
 716 1344 716 1344 702 1358 c 2,4,-1
 510 1550 l 2,5,6
 496 1564 496 1564 496 1584 c 128,-1,7
 496 1604 496 1604 510 1618 c 128,-1,8
 524 1632 524 1632 544 1632 c 128,-1,9
 564 1632 564 1632 578 1618 c 2,10,-1
 770 1426 l 2,11,0
 784 1412 784 1412 784 1392 c 128,-1,1
528 1392 m 128,-1,13
 528 1372 528 1372 514 1358 c 128,-1,14
 500 1344 500 1344 480 1344 c 128,-1,15
 460 1344 460 1344 446 1358 c 2,16,-1
 254 1550 l 2,17,18
 240 1564 240 1564 240 1584 c 128,-1,19
 240 1604 240 1604 254 1618 c 128,-1,20
 268 1632 268 1632 288 1632 c 128,-1,21
 308 1632 308 1632 322 1618 c 2,22,-1
 514 1426 l 2,23,12
 528 1412 528 1412 528 1392 c 128,-1,13
EndSplineSet
EndChar

StartChar: uni0310
Encoding: 784 784 406
Width: 1024
GlyphClass: 4
Flags: W
LayerCount: 2
Fore
SplineSet
592 1520 m 0,0,1
 592 1540 592 1540 606 1554 c 128,-1,2
 620 1568 620 1568 640 1568 c 128,-1,3
 660 1568 660 1568 674 1554 c 128,-1,4
 688 1540 688 1540 688 1520 c 0,5,6
 688 1447 688 1447 636.5 1395.5 c 128,-1,7
 585 1344 585 1344 512 1344 c 128,-1,8
 439 1344 439 1344 387.5 1395.5 c 128,-1,9
 336 1447 336 1447 336 1520 c 0,10,11
 336 1540 336 1540 350 1554 c 128,-1,12
 364 1568 364 1568 384 1568 c 128,-1,13
 404 1568 404 1568 418 1554 c 128,-1,14
 432 1540 432 1540 432 1520 c 0,15,16
 432 1487 432 1487 455.5 1463.5 c 128,-1,17
 479 1440 479 1440 512 1440 c 128,-1,18
 545 1440 545 1440 568.5 1463.5 c 128,-1,19
 592 1487 592 1487 592 1520 c 0,0,1
448 1584 m 128,-1,21
 448 1610 448 1610 467 1629 c 128,-1,22
 486 1648 486 1648 512 1648 c 128,-1,23
 538 1648 538 1648 557 1629 c 128,-1,24
 576 1610 576 1610 576 1584 c 128,-1,25
 576 1558 576 1558 557 1539 c 128,-1,26
 538 1520 538 1520 512 1520 c 128,-1,27
 486 1520 486 1520 467 1539 c 128,-1,20
 448 1558 448 1558 448 1584 c 128,-1,21
544 1584 m 1,28,-1
 512 1616 l 1,29,-1
 480 1584 l 1,30,-1
 512 1552 l 1,31,-1
 544 1584 l 1,28,-1
EndSplineSet
EndChar

StartChar: uni0311
Encoding: 785 785 407
Width: 1024
GlyphClass: 4
Flags: W
LayerCount: 2
Fore
SplineSet
752 1392 m 0,0,1
 752 1372 752 1372 738 1358 c 128,-1,2
 724 1344 724 1344 704 1344 c 128,-1,3
 684 1344 684 1344 670 1358 c 128,-1,4
 656 1372 656 1372 656 1392 c 0,5,6
 656 1452 656 1452 614 1494 c 128,-1,7
 572 1536 572 1536 512 1536 c 128,-1,8
 452 1536 452 1536 410 1494 c 128,-1,9
 368 1452 368 1452 368 1392 c 0,10,11
 368 1372 368 1372 354 1358 c 128,-1,12
 340 1344 340 1344 320 1344 c 128,-1,13
 300 1344 300 1344 286 1358 c 128,-1,14
 272 1372 272 1372 272 1392 c 0,15,16
 272 1491 272 1491 342.5 1561.5 c 128,-1,17
 413 1632 413 1632 512 1632 c 128,-1,18
 611 1632 611 1632 681.5 1561.5 c 128,-1,19
 752 1491 752 1491 752 1392 c 0,0,1
EndSplineSet
EndChar

StartChar: uni0312
Encoding: 786 786 408
Width: 1024
GlyphClass: 4
Flags: W
LayerCount: 2
Fore
SplineSet
624 1424 m 128,-1,1
 624 1393 624 1393 598 1371 c 0,2,3
 584 1359 584 1359 562 1352 c 0,4,5
 539 1344 539 1344 512 1344 c 128,-1,6
 485 1344 485 1344 462 1352 c 0,7,8
 440 1359 440 1359 426 1371 c 0,9,10
 400 1393 400 1393 400 1424 c 0,11,12
 400 1509 400 1509 469 1572 c 0,13,14
 511 1611 511 1611 559 1629 c 0,15,16
 567 1632 567 1632 576 1632 c 0,17,18
 596 1632 596 1632 610 1618 c 128,-1,19
 624 1604 624 1604 624 1584 c 0,20,21
 624 1569 624 1569 615.5 1556.5 c 128,-1,22
 607 1544 607 1544 593 1539 c 0,23,24
 564 1529 564 1529 535 1503 c 1,25,26
 549 1501 549 1501 562 1496 c 0,27,28
 584 1489 584 1489 598 1477 c 0,29,0
 624 1455 624 1455 624 1424 c 128,-1,1
EndSplineSet
EndChar

